<svg><metadata>Created by FontForge 20120731 at Thu Sep 7 19:34:23 2017 By www-data 2013 published by FontShop International GmbH</metadata><defs><font id="MarkPro-Hairline" horiz-adv-x="1"><font-face x-height="922" ascent="1580" bbox="-1325 -483 3077 2128" cap-height="1400" descent="-420" font-family="MarkPro-Hairline" font-stretch="normal" font-weight="250" panose-1="2 11 4 4 2 1 1 1 1 2" stemh="10" stemv="10" underline-position="-250" underline-thickness="10" unicode-range="U+000D-FEFF" units-per-em="2000"/><glyph d="M201 0v1400h784v-1400h-784zM211 10h764v1380h-764v-1380z" glyph-name=".notdef" horiz-adv-x="1186"/><glyph glyph-name=".null" horiz-adv-x="0"/><glyph glyph-name=".null" horiz-adv-x="0"/><glyph glyph-name="CR" horiz-adv-x="520"/><glyph glyph-name="space" horiz-adv-x="520"/><glyph d="M260 1400v-994h-10v994h10zM260 114v-114h-10v114h10z" glyph-name="exclam" horiz-adv-x="510" unicode="!"/><glyph d="M322 1440h10v-418h-10v418zM572 1440h10v-418h-10v418z" glyph-name="quotedbl" horiz-adv-x="904" unicode="&quot;"/><glyph d="M266 1004h245l85 396h10l-85 -396h521l85 396h10l-85 -396h241l-2 -10h-241l-124 -582h242l-3 -10h-241l-85 -402h-10l85 402h-521l-85 -402h-10l85 402h-245l3 10h244l124 582h-245zM519 994l-124 -582h521l124 582h-521z" glyph-name="numbersign" horiz-adv-x="1431" unicode="#"/><glyph d="M693 1600h10v-195c202 -4 373 -75 469 -148l-6 -8c-95 72 -264 142 -463 146v-684l118 -12c259 -26 387 -151 387 -330c0 -256 -224 -371 -505 -374v-195h-10v195c-191 0 -396 86 -493 152l6 8c96 -66 298 -150 487 -150v697l-78 8c-291 30 -387 175 -387 330 c0 232 200 365 458 365h7v195zM820 689l-117 12v-696c279 2 495 114 495 364c0 175 -122 294 -378 320zM238 1040c0 -151 92 -290 378 -320l77 -8v683h-7c-255 0 -448 -129 -448 -355z" glyph-name="dollar" horiz-adv-x="1400" unicode="$"/><glyph d="M430 1405c184 0 326 -141 326 -326c0 -187 -142 -327 -326 -327c-179 0 -320 140 -320 327c0 185 141 326 320 326zM430 1395c-175 0 -310 -135 -310 -316c0 -183 135 -317 310 -317c180 0 316 134 316 317c0 181 -136 316 -316 316zM1364 1400l-883 -1400h-12l883 1400 h12zM1397 648c184 0 326 -141 326 -327s-142 -326 -326 -326c-179 0 -320 140 -320 326s141 327 320 327zM1397 638c-175 0 -310 -135 -310 -317s135 -316 310 -316c180 0 316 134 316 316s-136 317 -316 317z" glyph-name="percent" horiz-adv-x="1833" unicode="%"/><glyph d="M1248 0h-14l-311 311c-118 -168 -237 -316 -444 -316c-203 0 -347 127 -347 307c0 214 173 340 337 461c-164 161 -241 247 -241 374c0 140 116 268 271 268c154 0 271 -122 271 -258c0 -168 -139 -276 -286 -385l437 -435l272 383l8 -6l-273 -384zM479 5 c203 0 319 146 437 313l-440 438c-163 -120 -334 -245 -334 -454c0 -174 139 -297 337 -297zM238 1137c0 -123 75 -207 239 -368c146 108 283 214 283 378c0 131 -111 248 -261 248s-261 -122 -261 -258z" glyph-name="ampersand" horiz-adv-x="1299" unicode="&amp;"/><glyph d="M322 1440h10v-418h-10v418z" glyph-name="quotesingle" horiz-adv-x="654" unicode="'"/><glyph d="M650 1405l2 -10c-274 -80 -476 -424 -476 -827c0 -402 202 -746 476 -826l-2 -10c-278 82 -484 432 -484 836c0 405 206 755 484 837z" glyph-name="parenleft" horiz-adv-x="744" unicode="("/><glyph d="M94 -268l-2 10c274 80 476 424 476 827c0 402 -202 746 -476 826l2 10c278 -82 484 -432 484 -836c0 -405 -206 -755 -484 -837z" glyph-name="parenright" horiz-adv-x="744" unicode=")"/><glyph d="M118 1248l266 -87v279h10v-279l263 87l3 -10l-263 -87l163 -224l-8 -6l-163 224l-164 -224l-8 6l163 224l-265 87z" glyph-name="asterisk" horiz-adv-x="775" unicode="*"/><glyph d="M600 125h-10v390h-390v10h390v400h10v-400h400v-10h-400v-390z" glyph-name="plus" horiz-adv-x="1200" unicode="+"/><glyph d="M260 195h10l-70 -418h-10z" glyph-name="comma" horiz-adv-x="470" unicode=","/><glyph d="M661 525v-10h-500v10h500z" glyph-name="hyphen" horiz-adv-x="822" unicode="-"/><glyph d="M260 114v-114h-10v114h10z" glyph-name="period" horiz-adv-x="510" unicode="."/><glyph d="M900 1540l-849 -1740h-11l849 1740h11z" glyph-name="slash" horiz-adv-x="959" unicode="/"/><glyph d="M706 1405c302 0 550 -264 550 -704c0 -441 -248 -706 -550 -706s-551 265 -551 706c0 440 249 704 551 704zM706 1395c-296 0 -541 -260 -541 -694c0 -435 245 -696 541 -696s540 261 540 696c0 434 -244 694 -540 694z" glyph-name="zero" horiz-adv-x="1411" unicode="0"/><glyph d="M637 1405v-1405h-10v1390l-549 -238v11z" glyph-name="one" horiz-adv-x="885" unicode="1"/><glyph d="M110 1173l-9 5c64 114 178 227 385 227c271 0 408 -184 408 -396c0 -168 -89 -298 -191 -403l-574 -596h831v-10h-847v8l582 604c102 106 189 231 189 397c0 208 -134 386 -398 386c-202 0 -313 -109 -376 -222z" glyph-name="two" horiz-adv-x="1068" unicode="2"/><glyph d="M466 1405c249 0 421 -149 421 -345c0 -207 -136 -326 -323 -351c200 -27 353 -156 353 -347c0 -250 -215 -367 -439 -367c-170 0 -298 57 -400 147l7 8c100 -90 227 -145 393 -145c219 0 429 113 429 357c0 210 -189 342 -419 342h-219v10h219c221 0 389 119 389 346 c0 190 -167 335 -411 335c-164 0 -294 -73 -377 -178l-9 6c85 105 216 182 386 182z" glyph-name="three" horiz-adv-x="1049" unicode="3"/><glyph d="M794 776v-422h295v-10h-295v-344h-10v344h-722v9l522 1047h11l-521 -1046h710v422h10z" glyph-name="four" horiz-adv-x="1151" unicode="4"/><glyph d="M949 1400v-10h-692l-28 -588h257c335 0 510 -159 510 -394c0 -249 -181 -413 -451 -413c-184 0 -333 68 -444 205l8 6c109 -135 256 -201 436 -201c264 0 441 159 441 403c0 228 -170 384 -500 384h-267l28 608h702z" glyph-name="five" horiz-adv-x="1135" unicode="5"/><glyph d="M606 1400l-401 -681c85 90 211 145 359 145c273 0 469 -187 469 -435s-196 -434 -469 -434c-274 0 -471 187 -471 434c0 77 17 148 53 209l448 762h12zM564 854c-269 0 -460 -182 -461 -425c0 -242 193 -424 461 -424c267 0 459 181 459 424s-192 425 -459 425z" glyph-name="six" horiz-adv-x="1134" unicode="6"/><glyph d="M1015 1400v-8l-694 -1392h-11l693 1390h-910v10h922z" glyph-name="seven" horiz-adv-x="1093" unicode="7"/><glyph d="M620 1405c247 0 454 -120 454 -346c0 -207 -160 -325 -366 -350c226 -25 400 -145 400 -351c0 -241 -221 -364 -488 -364s-488 123 -488 364c0 206 174 326 400 351c-207 25 -366 143 -366 350c0 226 207 346 454 346zM620 704c-264 0 -478 -121 -478 -346 c0 -234 215 -354 478 -354s478 120 478 354c0 225 -214 346 -478 346zM620 1395c-242 0 -444 -116 -444 -336c0 -229 202 -345 444 -345s444 116 444 345c0 220 -202 336 -444 336z" glyph-name="eight" horiz-adv-x="1240" unicode="8"/><glyph d="M528 0l400 680c-84 -89 -211 -144 -358 -144c-273 0 -469 187 -469 435c0 247 196 434 469 434c274 0 471 -187 471 -434c0 -77 -17 -148 -53 -209l-448 -762h-12zM570 546c269 0 460 182 461 425c0 241 -192 424 -461 424c-268 0 -459 -183 -459 -424 c0 -242 191 -425 459 -425z" glyph-name="nine" horiz-adv-x="1134" unicode="9"/><glyph d="M260 114v-114h-10v114h10zM260 922v-114h-10v114h10z" glyph-name="colon" horiz-adv-x="510" unicode=":"/><glyph d="M260 195h10l-70 -418h-10zM237 922v-114h-10v114h10z" glyph-name="semicolon" horiz-adv-x="470" unicode=";"/><glyph d="M961 170v-11l-722 355v13l722 355v-11l-713 -350z" glyph-name="less" horiz-adv-x="1200" unicode="&lt;"/><glyph d="M1000 375v-10h-800v10h800zM1000 675v-10h-800v10h800z" glyph-name="equal" horiz-adv-x="1200" unicode="="/><glyph d="M239 871v11l722 -355v-13l-722 -355v11l713 350z" glyph-name="greater" horiz-adv-x="1200" unicode="&gt;"/><glyph d="M261 406h-10v296h6c262 0 436 139 436 347s-188 346 -426 346c-26 0 -59 -2 -85 -5l-2 10c27 3 59 5 88 5c241 0 435 -142 435 -356c0 -212 -177 -356 -442 -357v-286zM261 114v-114h-10v114h10z" glyph-name="question" horiz-adv-x="803" unicode="?"/><glyph d="M1367 885v-551c0 -155 70 -214 158 -214c154 0 260 175 260 400c0 467 -353 761 -791 761s-791 -349 -791 -781c0 -438 353 -791 791 -791c176 0 339 57 470 155l6 -8c-133 -98 -298 -157 -476 -157c-442 0 -801 359 -801 801c0 436 359 791 801 791s801 -300 801 -771 c0 -227 -110 -410 -270 -410c-92 0 -168 65 -168 224v74c-39 -175 -189 -298 -376 -298c-216 0 -384 168 -384 390s168 390 384 390c187 0 337 -124 376 -300v295h10zM981 880c-212 0 -374 -162 -374 -380s162 -380 374 -380c215 0 376 162 376 380s-161 380 -376 380z" glyph-name="at" horiz-adv-x="1988" unicode="@"/><glyph d="M684 1405l626 -1405h-11l-207 465h-824l-207 -465h-11l626 1405h8zM680 1389l-408 -914h815z" glyph-name="A" horiz-adv-x="1360" unicode="A"/><glyph d="M769 1400c282 0 464 -102 464 -343c0 -210 -140 -313 -358 -335c234 -22 383 -130 383 -359c0 -254 -188 -363 -476 -363h-552v1400h539zM782 716h-542v-706h542c282 0 466 105 466 353c0 250 -183 353 -466 353zM769 1390h-529v-664h529c277 0 454 97 454 331 c0 235 -178 333 -454 333z" glyph-name="B" horiz-adv-x="1396" unicode="B"/><glyph d="M838 1405c231 0 440 -108 551 -282l-8 -6c-109 172 -316 278 -543 278c-380 0 -690 -278 -690 -695s310 -695 690 -695c227 0 434 106 543 278l8 -6c-111 -174 -320 -282 -551 -282c-385 0 -700 282 -700 705s315 705 700 705z" glyph-name="C" horiz-adv-x="1524" unicode="C"/><glyph d="M230 1400h461c498 0 791 -261 791 -700s-293 -700 -791 -700h-461v1400zM691 1390h-451v-1380h451c493 0 781 257 781 690s-288 690 -781 690z" glyph-name="D" horiz-adv-x="1620" unicode="D"/><glyph d="M1131 10v-10h-901v1400h901v-10h-891v-680h871v-10h-871v-690h891z" glyph-name="E" horiz-adv-x="1315" unicode="E"/><glyph d="M1111 710v-10h-871v-700h-10v1400h901v-10h-891v-680h871z" glyph-name="F" horiz-adv-x="1269" unicode="F"/><glyph d="M838 1405c218 0 414 -97 543 -253l-8 -6c-127 154 -321 249 -535 249c-380 0 -690 -278 -690 -695s310 -695 690 -695c389 0 649 278 649 695h-586v10h596v-10c0 -422 -264 -705 -659 -705c-386 0 -700 283 -700 705s314 705 700 705z" glyph-name="G" horiz-adv-x="1635" unicode="G"/><glyph d="M240 1400v-690h1058v690h10v-1400h-10v700h-1058v-700h-10v1400h10z" glyph-name="H" horiz-adv-x="1538" unicode="H"/><glyph d="M240 1400v-1400h-10v1400h10z" glyph-name="I" horiz-adv-x="470" unicode="I"/><glyph d="M933 1400v-891c0 -330 -208 -514 -482 -514c-174 0 -308 75 -391 155l6 8c82 -79 213 -153 385 -153c268 0 472 179 472 504v891h10z" glyph-name="J" horiz-adv-x="1151" unicode="J"/><glyph d="M1230 0l-759 699h-231v-699h-10v1400h10v-691h231l719 691h14l-724 -696l765 -704h-15z" glyph-name="K" horiz-adv-x="1305" unicode="K"/><glyph d="M1131 10v-10h-901v1400h10v-1390h891z" glyph-name="L" horiz-adv-x="1177" unicode="L"/><glyph d="M1598 1405v-1405h-10v1382l-669 -1184h-10l-669 1184v-1382h-10v1405h8l676 -1195l676 1195h8z" glyph-name="M" horiz-adv-x="1828" unicode="M"/><glyph d="M1312 1400v-1405h-8l-1064 1391v-1386h-10v1405h8l1064 -1391v1386h10z" glyph-name="N" horiz-adv-x="1542" unicode="N"/><glyph d="M838 1405c386 0 700 -282 700 -705s-314 -705 -700 -705s-700 282 -700 705s314 705 700 705zM838 1395c-381 0 -690 -278 -690 -695s309 -695 690 -695s690 278 690 695s-309 695 -690 695z" glyph-name="O" horiz-adv-x="1676" unicode="O"/><glyph d="M725 592h-485v-592h-10v1400h495c294 0 493 -142 493 -404s-199 -404 -493 -404zM725 1390h-485v-788h485c289 0 483 138 483 394s-194 394 -483 394z" glyph-name="P" horiz-adv-x="1338" unicode="P"/><glyph d="M838 1405c386 0 700 -282 700 -705c0 -181 -57 -336 -153 -454l210 -246h-13l-203 238c-128 -154 -324 -243 -541 -243c-386 0 -700 282 -700 705s314 705 700 705zM838 1395c-381 0 -690 -278 -690 -695s309 -695 690 -695c215 0 407 88 534 241l-399 469h13l392 -461 c94 116 150 268 150 446c0 417 -309 695 -690 695z" glyph-name="Q" horiz-adv-x="1676" unicode="Q"/><glyph d="M230 1400h488c296 0 470 -137 470 -372c0 -236 -174 -373 -470 -373h-148l609 -655h-14l-608 655h-317v-655h-10v1400zM723 1390h-483v-725h483c286 0 455 134 455 363c0 228 -169 362 -455 362z" glyph-name="R" horiz-adv-x="1308" unicode="R"/><glyph d="M1142 1247l-6 -8c-98 78 -258 156 -488 156c-266 0 -470 -129 -470 -355c0 -163 97 -291 397 -320l215 -21c273 -27 406 -128 406 -330c0 -259 -237 -374 -539 -374c-231 0 -417 92 -519 162l6 8c101 -69 284 -160 513 -160c296 0 529 111 529 364 c0 198 -133 294 -396 320l-215 21c-308 30 -407 162 -407 330c0 232 208 365 480 365c232 0 395 -79 494 -158z" glyph-name="S" horiz-adv-x="1334" unicode="S"/><glyph d="M1176 1400v-10h-560v-1390h-10v1390h-560v10h1130z" glyph-name="T" horiz-adv-x="1222" unicode="T"/><glyph d="M1279 1400v-862c0 -358 -241 -543 -536 -543c-296 0 -536 185 -536 543v862h10v-862c0 -352 235 -533 526 -533c290 0 526 181 526 533v862h10z" glyph-name="U" horiz-adv-x="1486" unicode="U"/><glyph d="M1308 1400l-625 -1405h-8l-625 1405h11l618 -1389l618 1389h11z" glyph-name="V" horiz-adv-x="1358" unicode="V"/><glyph d="M2154 1400l-520 -1405h-8l-509 1392l-509 -1392h-8l-520 1405h11l513 -1388l509 1393h8l509 -1393l513 1388h11z" glyph-name="W" horiz-adv-x="2234" unicode="W"/><glyph d="M1264 1400l-562 -680l595 -720h-13l-588 712l-588 -712h-13l594 720l-561 680h13l555 -673l555 673h13z" glyph-name="X" horiz-adv-x="1392" unicode="X"/><glyph d="M1177 1400l-576 -753v-647h-10v647l-576 753h13l568 -743l568 743h13z" glyph-name="Y" horiz-adv-x="1192" unicode="Y"/><glyph d="M1219 1400v-6l-1067 -1384h1075v-10h-1089v8l1066 1382h-1037v10h1052z" glyph-name="Z" horiz-adv-x="1365" unicode="Z"/><glyph d="M605 -253v-10h-375v1663h375v-10h-365v-1643h365z" glyph-name="bracketleft" horiz-adv-x="697" unicode="["/><glyph d="M908 -200l-849 1740h11l849 -1740h-11z" glyph-name="backslash" horiz-adv-x="959" unicode="\"/><glyph d="M92 1390v10h375v-1663h-375v10h365v1643h-365z" glyph-name="bracketright" horiz-adv-x="697" unicode="]"/><glyph d="M250 678h-11l355 722h12l355 -722h-11l-350 712z" glyph-name="asciicircum" horiz-adv-x="1200" unicode="^"/><glyph d="M935 -190v-10h-940v10h940z" glyph-name="underscore" horiz-adv-x="930" unicode="_"/><glyph d="M532 1052h-13l-251 300h13z" glyph-name="grave" horiz-adv-x="800" unicode="`"/><glyph d="M1040 922v-922h-10v360c-44 -214 -223 -365 -449 -365c-261 0 -461 200 -461 466s200 466 461 466c226 0 405 -151 449 -365v360h10zM581 917c-256 0 -451 -196 -451 -456s195 -456 451 -456c255 0 449 196 449 456s-194 456 -449 456z" glyph-name="a" horiz-adv-x="1241" unicode="a"/><glyph d="M660 927c261 0 461 -200 461 -466s-200 -466 -461 -466c-226 0 -406 151 -449 365v-360h-10v1440h10v-878c43 214 223 365 449 365zM660 917c-255 0 -449 -196 -449 -456s194 -456 449 -456c256 0 451 196 451 456s-195 456 -451 456z" glyph-name="b" horiz-adv-x="1241" unicode="b"/><glyph d="M579 927c134 0 251 -53 334 -139l-8 -6c-81 84 -196 135 -326 135c-255 0 -449 -196 -449 -456s194 -456 449 -456c130 0 245 51 326 135l8 -6c-83 -86 -200 -139 -334 -139c-260 0 -459 200 -459 466s199 466 459 466z" glyph-name="c" horiz-adv-x="1018" unicode="c"/><glyph d="M581 927c226 0 405 -151 449 -365v878h10v-1440h-10v360c-44 -214 -223 -365 -449 -365c-261 0 -461 200 -461 466s200 466 461 466zM581 917c-256 0 -451 -196 -451 -456s195 -456 451 -456c255 0 449 196 449 456s-194 456 -449 456z" glyph-name="d" horiz-adv-x="1241" unicode="d"/><glyph d="M575 927c232 0 421 -193 427 -456v-6h-872v-5c0 -263 187 -455 445 -455c173 0 281 70 370 174l7 -7c-121 -143 -252 -177 -377 -177c-263 0 -455 196 -455 465c0 267 205 467 455 467zM575 917c-241 0 -437 -189 -445 -442h862c-7 254 -191 442 -417 442z" glyph-name="e" horiz-adv-x="1122" unicode="e"/><glyph d="M833 922v-10h-489v-912h-10v912h-274v10h274v163c0 223 77 360 300 360c95 0 182 -30 240 -69l-6 -8c-56 37 -141 67 -234 67c-217 0 -290 -133 -290 -350v-163h489z" glyph-name="f" horiz-adv-x="909" unicode="f"/><glyph d="M579 927c227 0 407 -151 451 -365v360h10v-861c0 -327 -240 -466 -471 -466c-168 0 -307 65 -392 163l8 6c83 -96 220 -159 384 -159c227 0 461 136 461 456v299c-44 -214 -224 -365 -451 -365c-260 0 -459 200 -459 466s199 466 459 466zM579 917 c-255 0 -449 -196 -449 -456s194 -456 449 -456c256 0 451 196 451 456s-195 456 -451 456z" glyph-name="g" horiz-adv-x="1241" unicode="g"/><glyph d="M211 1440v-811c39 173 194 298 388 298c239 0 398 -135 398 -376v-551h-10v551c0 222 -140 366 -388 366c-220 0 -388 -164 -388 -376v-541h-10v1440h10z" glyph-name="h" horiz-adv-x="1186" unicode="h"/><glyph d="M211 922v-922h-10v922h10zM211 1320v-114h-10v114h10z" glyph-name="i" horiz-adv-x="412" unicode="i"/><glyph d="M211 922v-1165c0 -103 -38 -162 -132 -162c-48 0 -89 18 -115 37l6 8c25 -19 65 -35 109 -35c87 0 122 53 122 152v1165h10zM211 1320v-114h-10v114h10z" glyph-name="j" horiz-adv-x="412" unicode="j"/><glyph d="M211 1440v-949h194l494 431h15l-499 -436l511 -486h-14l-507 481h-194v-481h-10v1440h10z" glyph-name="k" horiz-adv-x="996" unicode="k"/><glyph d="M211 1440v-1440h-10v1440h10z" glyph-name="l" horiz-adv-x="412" unicode="l"/><glyph d="M1385 927c239 0 398 -135 398 -376v-551h-10v551c0 222 -140 366 -388 366c-220 0 -388 -164 -388 -376v-541h-10v551c0 222 -140 366 -388 366c-220 0 -388 -164 -388 -376v-541h-10v922h10v-293c39 173 194 298 388 298c218 0 369 -113 394 -315 c33 182 192 315 392 315z" glyph-name="m" horiz-adv-x="1972" unicode="m"/><glyph d="M599 927c239 0 398 -135 398 -376v-551h-10v551c0 222 -140 366 -388 366c-220 0 -388 -164 -388 -376v-541h-10v922h10v-293c39 173 194 298 388 298z" glyph-name="n" horiz-adv-x="1186" unicode="n"/><glyph d="M579 927c261 0 461 -200 461 -466s-200 -466 -461 -466c-260 0 -459 200 -459 466s199 466 459 466zM579 917c-255 0 -449 -196 -449 -456s194 -456 449 -456c256 0 451 196 451 456s-195 456 -451 456z" glyph-name="o" horiz-adv-x="1160" unicode="o"/><glyph d="M660 927c261 0 461 -200 461 -466s-200 -466 -461 -466c-226 0 -406 151 -449 365v-760h-10v1322h10v-360c43 214 223 365 449 365zM660 917c-255 0 -449 -196 -449 -456s194 -456 449 -456c256 0 451 196 451 456s-195 456 -451 456z" glyph-name="p" horiz-adv-x="1241" unicode="p"/><glyph d="M581 927c226 0 405 -151 449 -365v360h10v-1322h-10v760c-44 -214 -223 -365 -449 -365c-261 0 -461 200 -461 466s200 466 461 466zM581 917c-256 0 -451 -196 -451 -456s195 -456 451 -456c255 0 449 196 449 456s-194 456 -449 456z" glyph-name="q" horiz-adv-x="1241" unicode="q"/><glyph d="M524 928c66 0 131 -14 181 -45l-6 -8c-48 29 -111 43 -175 43c-183 0 -313 -167 -313 -381v-537h-10v922h10v-284c34 167 152 290 313 290z" glyph-name="r" horiz-adv-x="765" unicode="r"/><glyph d="M807 817l-6 -8c-69 56 -196 108 -343 108c-182 0 -324 -84 -324 -232c0 -107 67 -190 274 -209l143 -13c181 -16 283 -87 283 -220c0 -172 -167 -248 -372 -248c-178 0 -286 57 -361 116l6 8c78 -62 186 -114 355 -114c199 0 362 72 362 238c0 124 -93 194 -273 210 l-143 13c-214 19 -284 108 -284 219c0 154 146 242 334 242c149 0 278 -53 349 -110z" glyph-name="s" horiz-adv-x="935" unicode="s"/><glyph d="M820 922v-10h-505v-617c0 -192 101 -290 270 -290c103 0 188 32 243 89l8 -6c-57 -59 -144 -93 -251 -93c-173 0 -280 101 -280 300v617h-245v10h245v326h10v-326h505z" glyph-name="t" horiz-adv-x="902" unicode="t"/><glyph d="M985 922v-551c0 -226 -159 -376 -398 -376s-398 150 -398 376v551h10v-551c0 -220 154 -366 388 -366s388 146 388 366v551h10z" glyph-name="u" horiz-adv-x="1174" unicode="u"/><glyph d="M950 922l-449 -927h-6l-449 927h11l441 -911l441 911h11z" glyph-name="v" horiz-adv-x="996" unicode="v"/><glyph d="M896 922l387 -910l419 910h11l-425 -922h-10l-387 908l-387 -908h-10l-425 922h11l419 -910l387 910h10z" glyph-name="w" horiz-adv-x="1782" unicode="w"/><glyph d="M898 922l-413 -451l433 -471h-13l-427 464l-425 -464h-13l431 471l-411 451h13l405 -444l407 444h13z" glyph-name="x" horiz-adv-x="958" unicode="x"/><glyph d="M930 922l-804 -1322h-12l380 625l-462 697h12l456 -687l418 687h12z" glyph-name="y" horiz-adv-x="953" unicode="y"/><glyph d="M947 922v-9l-791 -903h798v-10h-813v8l792 904h-769v10h783z" glyph-name="z" horiz-adv-x="1095" unicode="z"/><glyph d="M194 569c131 -22 218 -117 205 -316l-13 -194c-15 -226 89 -311 231 -311h85v-10h-85c-146 0 -256 91 -241 321l13 194c15 226 -97 311 -251 311v10c154 0 266 85 251 311l-13 194c-15 230 95 321 241 321h85v-10h-85c-142 0 -246 -85 -231 -311l13 -194 c13 -199 -74 -294 -205 -316z" glyph-name="braceleft" horiz-adv-x="794" unicode="{"/><glyph d="M332 1400v-1665h-10v1665h10z" glyph-name="bar" horiz-adv-x="654" unicode="|"/><glyph d="M600 569c-131 22 -218 117 -205 316l13 194c15 226 -89 311 -231 311h-85v10h85c146 0 256 -91 241 -321l-13 -194c-15 -226 97 -311 251 -311v-10c-154 0 -266 -85 -251 -311l13 -194c15 -230 -95 -321 -241 -321h-85v10h85c142 0 246 85 231 311l-13 194 c-13 199 74 294 205 316z" glyph-name="braceright" horiz-adv-x="794" unicode="}"/><glyph d="M993 581l8 -6c-59 -70 -122 -108 -226 -108c-167 0 -192 106 -355 106c-102 0 -162 -36 -218 -104l-8 6c58 70 122 108 226 108c167 0 192 -106 355 -106c102 0 161 36 218 104z" glyph-name="asciitilde" horiz-adv-x="1200" unicode="~"/><glyph glyph-name="uni00A0" horiz-adv-x="520"/><glyph d="M250 -478v994h10v-994h-10zM250 808v114h10v-114h-10z" glyph-name="exclamdown" horiz-adv-x="510" unicode="¡"/><glyph d="M763 1166c133 0 251 -53 334 -139l-8 -6c-81 84 -195 135 -326 135h-23v-912h23c131 0 245 51 326 135l8 -6c-83 -86 -201 -139 -334 -139h-23v-234h-10v235c-244 16 -426 210 -426 465c0 254 182 449 426 465v235h10v-234h23zM314 700c0 -249 178 -439 416 -455v910 c-238 -16 -416 -207 -416 -455z" glyph-name="cent" horiz-adv-x="1400" unicode="¢"/><glyph d="M1191 10v-10h-983v10h208v685h-208v10h208v269c0 281 180 431 399 431c148 0 270 -68 347 -203l-9 -4c-75 131 -193 197 -338 197c-216 0 -389 -144 -389 -421v-269h595v-10h-595v-685h765z" glyph-name="sterling" horiz-adv-x="1400" unicode="£"/><glyph d="M286 1109l7 8l143 -144c69 67 164 109 269 109c103 0 197 -41 266 -108l143 143l7 -8l-143 -143c67 -69 109 -163 109 -266c0 -105 -42 -199 -109 -268l143 -143l-7 -8l-144 143c-68 -66 -162 -107 -265 -107c-105 0 -199 41 -268 108l-144 -144l-7 8l144 144 c-67 69 -108 163 -108 267c0 103 41 196 107 265zM705 327c206 0 372 165 372 373c0 207 -166 372 -372 372c-208 0 -373 -165 -373 -372c0 -208 165 -373 373 -373z" glyph-name="currency" horiz-adv-x="1400" unicode="¤"/><glyph d="M1153 411v-10h-448v-401h-10v401h-448v10h448v290h-448v10h445l-542 689h13l537 -683l537 683h13l-542 -689h445v-10h-448v-290h448z" glyph-name="yen" horiz-adv-x="1400" unicode="¥"/><glyph d="M332 1400v-694h-10v694h10zM332 429v-694h-10v694h10z" glyph-name="brokenbar" horiz-adv-x="654" unicode="¦"/><glyph d="M1100 1244l-6 -8c-89 80 -253 159 -444 159c-243 0 -426 -109 -426 -296c0 -150 131 -249 362 -268l191 -16c198 -17 372 -110 372 -278c0 -127 -75 -213 -191 -263c102 -45 171 -121 171 -228c0 -217 -215 -314 -482 -314c-227 0 -386 92 -481 165l6 8 c95 -73 250 -163 475 -163c265 0 472 93 472 304c0 162 -162 248 -355 266l-203 19c-234 22 -367 122 -367 277c0 121 75 210 189 260c-108 48 -169 129 -169 231c0 193 191 306 436 306c193 0 361 -81 450 -161zM584 821c-73 6 -136 21 -188 42 c-119 -49 -192 -136 -192 -255c0 -150 127 -245 359 -267l196 -19c67 -6 131 -20 186 -42c119 48 194 132 194 257c0 162 -168 252 -364 268z" glyph-name="section" horiz-adv-x="1315" unicode="§"/><glyph d="M195 1320v-114h-10v114h10zM615 1320v-114h-10v114h10z" glyph-name="dieresis" horiz-adv-x="800" unicode="¨"/><glyph d="M943 1477c427 0 777 -349 777 -777s-350 -777 -777 -777c-428 0 -777 349 -777 777s349 777 777 777zM943 1467c-424 0 -767 -343 -767 -767s343 -767 767 -767c423 0 767 343 767 767s-344 767 -767 767zM1294 950l-8 -6c-64 101 -185 163 -319 163 c-223 0 -404 -162 -404 -407s181 -407 404 -407c134 0 255 62 319 163l8 -6c-66 -103 -191 -167 -327 -167c-227 0 -414 168 -414 417s187 417 414 417c136 0 261 -64 327 -167z" glyph-name="copyright" horiz-adv-x="1886" unicode="©"/><glyph d="M369 1315c144 0 254 -64 254 -246v-385h-10v130c-61 -69 -157 -134 -287 -134c-134 0 -225 71 -225 173s84 174 263 174h249v41c0 177 -105 237 -244 237c-103 0 -174 -39 -225 -85l-5 8c51 46 125 87 230 87zM613 829v188h-248c-174 0 -254 -68 -254 -164 s87 -163 215 -163c131 0 228 68 287 139z" glyph-name="ordfeminine" horiz-adv-x="771" unicode="ª"/><glyph d="M517 520l198 -348h-12l-198 348l198 348h12zM187 520l198 -348h-12l-198 348l198 348h12z" glyph-name="guillemotleft" horiz-adv-x="929" unicode="«"/><glyph d="M1000 191h-10v324h-790v10h800v-334z" glyph-name="logicalnot" horiz-adv-x="1200" unicode="¬"/><glyph d="M661 525v-10h-500v10h500z" glyph-name="uni00AD" horiz-adv-x="822" unicode="­"/><glyph d="M369 1420c169 0 308 -139 308 -314c0 -170 -139 -309 -308 -309c-174 0 -314 139 -314 309c0 175 140 314 314 314zM369 807c164 0 298 134 298 299c0 170 -132 304 -298 304c-169 0 -304 -134 -304 -304c0 -165 135 -299 304 -299zM266 1280h122c68 0 116 -33 116 -92 c0 -57 -48 -94 -116 -94h-10l125 -150h-13l-125 150h-89v-150h-10v336zM388 1270h-112v-166h112c64 0 106 31 106 84s-42 82 -106 82z" glyph-name="registered" horiz-adv-x="732" unicode="®"/><glyph d="M127 1197v10h547v-10h-547z" glyph-name="macron" horiz-adv-x="800" unicode="¯"/><glyph d="M345 826c-160 0 -290 130 -290 290c0 159 130 289 290 289c159 0 289 -130 289 -289c0 -160 -130 -290 -289 -290zM345 836c155 0 279 124 279 280c0 155 -124 279 -279 279c-156 0 -280 -124 -280 -279c0 -156 124 -280 280 -280z" glyph-name="degree" horiz-adv-x="689" unicode="°"/><glyph d="M600 315h-10v390h-390v10h390v400h10v-400h400v-10h-400v-390zM1000 160v-10h-800v10h800z" glyph-name="plusminus" horiz-adv-x="1200" unicode="±"/><glyph d="M79 1279l-8 6c33 58 91 116 198 116c138 0 209 -94 209 -203c0 -86 -45 -152 -97 -206l-288 -298h418v-10h-433v8l295 306c52 54 95 117 95 200c0 104 -67 193 -199 193c-102 0 -158 -55 -190 -112z" glyph-name="twosuperior" horiz-adv-x="588" unicode="²"/><glyph d="M257 1401c127 0 214 -76 214 -178c0 -101 -65 -162 -154 -178c96 -16 169 -82 169 -176c0 -128 -109 -188 -223 -188c-89 0 -155 29 -208 76l7 8c51 -46 116 -74 201 -74c110 0 213 56 213 178c0 105 -95 171 -211 171h-111v10h111c111 0 196 60 196 173 c0 96 -83 168 -204 168c-84 0 -151 -37 -193 -90l-8 6c44 54 112 94 201 94z" glyph-name="threesuperior" horiz-adv-x="580" unicode="³"/><glyph d="M281 1052h-13l251 300h13z" glyph-name="acute" horiz-adv-x="800" unicode="´"/><glyph d="M199 -400h-10v1322h10v-551c0 -222 140 -366 388 -366c220 0 388 164 388 376v541h10v-922h-10v293c-39 -173 -194 -298 -388 -298c-204 0 -350 98 -388 277v-672z" glyph-name="mu" horiz-adv-x="1186" unicode="µ"/><glyph d="M503 0v879h-20c-187 0 -315 92 -315 260c0 170 128 261 315 261h30v-1400h-10zM623 0v1400h10v-1400h-10z" glyph-name="paragraph" horiz-adv-x="955" unicode="¶"/><glyph d="M435 628v-114h-10v114h10z" glyph-name="periodcentered" horiz-adv-x="860" unicode="·"/><glyph d="M522 2l-103 -328h-11l104 330z" glyph-name="cedilla" horiz-adv-x="929" unicode="¸"/><glyph d="M340 1401v-717h-10v702l-275 -119v11z" glyph-name="onesuperior" horiz-adv-x="516" unicode="¹"/><glyph d="M414 1315c178 0 314 -136 314 -317s-136 -318 -314 -318c-177 0 -313 137 -313 318s136 317 313 317zM414 1306c-172 0 -303 -133 -303 -308c0 -176 131 -308 303 -308c173 0 304 132 304 308c0 175 -131 308 -304 308z" glyph-name="ordmasculine" horiz-adv-x="829" unicode="º"/><glyph d="M412 520l-198 348h12l198 -348l-198 -348h-12zM742 520l-198 348h12l198 -348l-198 -348h-12z" glyph-name="guillemotright" horiz-adv-x="929" unicode="»"/><glyph d="M1161 1400l-883 -1400h-12l883 1400h12zM1261 398v-215h148v-10h-148v-173h-10v173h-366v9l266 532h11l-265 -531h354v215h10zM340 1401v-717h-10v702l-275 -119v11z" glyph-name="onequarter" horiz-adv-x="1453" unicode="¼"/><glyph d="M1161 1400l-883 -1400h-12l883 1400h12zM980 595l-8 6c33 58 91 116 198 116c138 0 209 -94 209 -203c0 -86 -45 -152 -97 -206l-288 -298h418v-10h-433v8l295 306c52 54 95 117 95 200c0 104 -67 193 -199 193c-102 0 -158 -55 -190 -112zM340 1401v-717h-10v702 l-275 -119v11z" glyph-name="onehalf" horiz-adv-x="1489" unicode="½"/><glyph d="M1215 1400l-883 -1400h-12l883 1400h12zM1315 398v-215h148v-10h-148v-173h-10v173h-366v9l266 532h11l-265 -531h354v215h10zM257 1401c127 0 214 -76 214 -178c0 -101 -65 -162 -154 -178c96 -16 169 -82 169 -176c0 -128 -109 -188 -223 -188c-89 0 -155 29 -208 76 l7 8c51 -46 116 -74 201 -74c110 0 213 56 213 178c0 105 -95 171 -211 171h-111v10h111c111 0 196 60 196 173c0 96 -83 168 -204 168c-84 0 -151 -37 -193 -90l-8 6c44 54 112 94 201 94z" glyph-name="threequarters" horiz-adv-x="1507" unicode="¾"/><glyph d="M542 516h10v-296h-10c-260 -2 -432 -140 -432 -347c0 -208 188 -346 426 -346c26 0 59 2 85 5l2 -10c-27 -3 -59 -5 -88 -5c-241 0 -435 142 -435 356c0 212 177 355 442 357v286zM542 808v114h10v-114h-10z" glyph-name="questiondown" horiz-adv-x="803" unicode="¿"/><glyph d="M684 1405l626 -1405h-11l-207 465h-824l-207 -465h-11l626 1405h8zM680 1389l-408 -914h815zM769 1468l-251 300h13l251 -300h-13z" glyph-name="Agrave" horiz-adv-x="1360" unicode="À"/><glyph d="M684 1405l626 -1405h-11l-207 465h-824l-207 -465h-11l626 1405h8zM680 1389l-408 -914h815zM591 1468h-13l251 300h13z" glyph-name="Aacute" horiz-adv-x="1360" unicode="Á"/><glyph d="M684 1405l626 -1405h-11l-207 465h-824l-207 -465h-11l626 1405h8zM680 1389l-408 -914h815zM970 1492h-15l-275 249l-275 -249h-15l289 262h2z" glyph-name="Acircumflex" horiz-adv-x="1360" unicode="Â"/><glyph d="M684 1405l626 -1405h-11l-207 465h-824l-207 -465h-11l626 1405h8zM680 1389l-408 -914h815zM383 1576l-8 6c44 69 92 108 171 108c132 0 140 -106 268 -106c75 0 119 35 163 104l8 -6c-44 -69 -92 -108 -171 -108c-132 0 -140 106 -268 106c-75 0 -119 -35 -163 -104z" glyph-name="Atilde" horiz-adv-x="1360" unicode="Ã"/><glyph d="M684 1405l626 -1405h-11l-207 465h-824l-207 -465h-11l626 1405h8zM680 1389l-408 -914h815zM475 1669v-114h-10v114h10zM895 1669v-114h-10v114h10z" glyph-name="Adieresis" horiz-adv-x="1360" unicode="Ä"/><glyph d="M684 1405l626 -1405h-11l-207 465h-824l-207 -465h-11l626 1405h8zM680 1389l-408 -914h815zM680 1463c-98 0 -179 81 -179 179s81 179 179 179s179 -81 179 -179s-81 -179 -179 -179zM680 1473c94 0 169 75 169 169s-75 169 -169 169s-169 -75 -169 -169 s75 -169 169 -169z" glyph-name="Aring" horiz-adv-x="1360" unicode="Å"/><glyph d="M2023 10v-10h-901v465h-712l-358 -465h-12l1079 1400h904v-10h-891v-680h871v-10h-871v-690h891zM418 475h704v913z" glyph-name="AE" horiz-adv-x="2207" unicode="Æ"/><glyph d="M838 1405c231 0 440 -108 551 -282l-8 -6c-109 172 -316 278 -543 278c-380 0 -690 -278 -690 -695s310 -695 690 -695c227 0 434 106 543 278l8 -6c-108 -169 -308 -276 -531 -282l-101 -321h-11l101 321h-9c-385 0 -700 282 -700 705s315 705 700 705z" glyph-name="Ccedilla" horiz-adv-x="1524" unicode="Ç"/><glyph d="M1131 10v-10h-901v1400h901v-10h-891v-680h871v-10h-871v-690h891zM760 1468l-251 300h13l251 -300h-13z" glyph-name="Egrave" horiz-adv-x="1315" unicode="È"/><glyph d="M1131 10v-10h-901v1400h901v-10h-891v-680h871v-10h-871v-690h891zM582 1468h-13l251 300h13z" glyph-name="Eacute" horiz-adv-x="1315" unicode="É"/><glyph d="M1131 10v-10h-901v1400h901v-10h-891v-680h871v-10h-871v-690h891zM961 1492h-15l-275 249l-275 -249h-15l289 262h2z" glyph-name="Ecircumflex" horiz-adv-x="1315" unicode="Ê"/><glyph d="M1131 10v-10h-901v1400h901v-10h-891v-680h871v-10h-871v-690h891zM466 1669v-114h-10v114h10zM886 1669v-114h-10v114h10z" glyph-name="Edieresis" horiz-adv-x="1315" unicode="Ë"/><glyph d="M240 1400v-1400h-10v1400h10zM324 1468l-251 300h13l251 -300h-13z" glyph-name="Igrave" horiz-adv-x="470" unicode="Ì"/><glyph d="M240 1400v-1400h-10v1400h10zM146 1468h-13l251 300h13z" glyph-name="Iacute" horiz-adv-x="470" unicode="Í"/><glyph d="M240 1400v-1400h-10v1400h10zM525 1492h-15l-275 249l-275 -249h-15l289 262h2z" glyph-name="Icircumflex" horiz-adv-x="470" unicode="Î"/><glyph d="M240 1400v-1400h-10v1400h10zM30 1669v-114h-10v114h10zM450 1669v-114h-10v114h10z" glyph-name="Idieresis" horiz-adv-x="470" unicode="Ï"/><glyph d="M468 1400h461c498 0 791 -261 791 -700s-293 -700 -791 -700h-461v700h-330v10h330v690zM948 710v-10h-470v-690h451c493 0 781 257 781 690s-288 690 -781 690h-451v-680h470z" glyph-name="Eth" horiz-adv-x="1858" unicode="Ð"/><glyph d="M1312 1400v-1405h-8l-1064 1391v-1386h-10v1405h8l1064 -1391v1386h10zM474 1576l-8 6c44 69 92 108 171 108c132 0 140 -106 268 -106c75 0 119 35 163 104l8 -6c-44 -69 -92 -108 -171 -108c-132 0 -140 106 -268 106c-75 0 -119 -35 -163 -104z" glyph-name="Ntilde" horiz-adv-x="1542" unicode="Ñ"/><glyph d="M838 1405c386 0 700 -282 700 -705s-314 -705 -700 -705s-700 282 -700 705s314 705 700 705zM838 1395c-381 0 -690 -278 -690 -695s309 -695 690 -695s690 278 690 695s-309 695 -690 695zM927 1468l-251 300h13l251 -300h-13z" glyph-name="Ograve" horiz-adv-x="1676" unicode="Ò"/><glyph d="M838 1405c386 0 700 -282 700 -705s-314 -705 -700 -705s-700 282 -700 705s314 705 700 705zM838 1395c-381 0 -690 -278 -690 -695s309 -695 690 -695s690 278 690 695s-309 695 -690 695zM749 1468h-13l251 300h13z" glyph-name="Oacute" horiz-adv-x="1676" unicode="Ó"/><glyph d="M838 1405c386 0 700 -282 700 -705s-314 -705 -700 -705s-700 282 -700 705s314 705 700 705zM838 1395c-381 0 -690 -278 -690 -695s309 -695 690 -695s690 278 690 695s-309 695 -690 695zM1128 1492h-15l-275 249l-275 -249h-15l289 262h2z" glyph-name="Ocircumflex" horiz-adv-x="1676" unicode="Ô"/><glyph d="M838 1405c386 0 700 -282 700 -705s-314 -705 -700 -705s-700 282 -700 705s314 705 700 705zM838 1395c-381 0 -690 -278 -690 -695s309 -695 690 -695s690 278 690 695s-309 695 -690 695zM541 1576l-8 6c44 69 92 108 171 108c132 0 140 -106 268 -106 c75 0 119 35 163 104l8 -6c-44 -69 -92 -108 -171 -108c-132 0 -140 106 -268 106c-75 0 -119 -35 -163 -104z" glyph-name="Otilde" horiz-adv-x="1676" unicode="Õ"/><glyph d="M838 1405c386 0 700 -282 700 -705s-314 -705 -700 -705s-700 282 -700 705s314 705 700 705zM838 1395c-381 0 -690 -278 -690 -695s309 -695 690 -695s690 278 690 695s-309 695 -690 695zM633 1669v-114h-10v114h10zM1053 1669v-114h-10v114h10z" glyph-name="Odieresis" horiz-adv-x="1676" unicode="Ö"/><glyph d="M286 202l-7 7l311 311l-311 311l7 7l311 -311l318 318l7 -7l-318 -318l318 -318l-7 -7l-318 318z" glyph-name="multiply" horiz-adv-x="1200" unicode="×"/><glyph d="M838 1405c195 0 372 -73 499 -199l197 198l8 -7l-198 -198c120 -122 194 -294 194 -499c0 -423 -314 -705 -700 -705c-196 0 -373 71 -500 198l-196 -196l-8 7l197 196c-119 123 -193 295 -193 500c0 423 314 705 700 705zM1528 700c0 202 -73 371 -191 492l-992 -992 c125 -124 300 -195 493 -195c381 0 690 278 690 695zM838 1395c-381 0 -690 -278 -690 -695c0 -202 72 -372 190 -493l992 992c-125 124 -300 196 -492 196z" glyph-name="Oslash" horiz-adv-x="1676" unicode="Ø"/><glyph d="M1279 1400v-862c0 -358 -241 -543 -536 -543c-296 0 -536 185 -536 543v862h10v-862c0 -352 235 -533 526 -533c290 0 526 181 526 533v862h10zM832 1468l-251 300h13l251 -300h-13z" glyph-name="Ugrave" horiz-adv-x="1486" unicode="Ù"/><glyph d="M1279 1400v-862c0 -358 -241 -543 -536 -543c-296 0 -536 185 -536 543v862h10v-862c0 -352 235 -533 526 -533c290 0 526 181 526 533v862h10zM654 1468h-13l251 300h13z" glyph-name="Uacute" horiz-adv-x="1486" unicode="Ú"/><glyph d="M1279 1400v-862c0 -358 -241 -543 -536 -543c-296 0 -536 185 -536 543v862h10v-862c0 -352 235 -533 526 -533c290 0 526 181 526 533v862h10zM1033 1492h-15l-275 249l-275 -249h-15l289 262h2z" glyph-name="Ucircumflex" horiz-adv-x="1486" unicode="Û"/><glyph d="M1279 1400v-862c0 -358 -241 -543 -536 -543c-296 0 -536 185 -536 543v862h10v-862c0 -352 235 -533 526 -533c290 0 526 181 526 533v862h10zM538 1669v-114h-10v114h10zM958 1669v-114h-10v114h10z" glyph-name="Udieresis" horiz-adv-x="1486" unicode="Ü"/><glyph d="M1177 1400l-576 -753v-647h-10v647l-576 753h13l568 -743l568 743h13zM508 1468h-13l251 300h13z" glyph-name="Yacute" horiz-adv-x="1192" unicode="Ý"/><glyph d="M240 1400v-281h485c294 0 493 -142 493 -404s-199 -404 -493 -404h-485v-311h-10v1400h10zM725 1109h-485v-788h485c290 0 483 138 483 394s-193 394 -483 394z" glyph-name="Thorn" horiz-adv-x="1338" unicode="Þ"/><glyph d="M191 0v1015c0 280 180 430 416 430c239 0 425 -137 425 -360c0 -197 -124 -316 -290 -346c191 -24 328 -173 328 -367c0 -239 -177 -377 -379 -377c-120 0 -204 31 -270 72l5 8c65 -40 147 -70 265 -70c197 0 369 133 369 367c0 209 -161 361 -377 361h-116v10h100 c197 0 355 124 355 342c0 217 -180 350 -415 350c-232 0 -406 -144 -406 -420v-1015h-10z" glyph-name="germandbls" horiz-adv-x="1190" unicode="ß"/><glyph d="M1040 922v-922h-10v360c-44 -214 -223 -365 -449 -365c-261 0 -461 200 -461 466s200 466 461 466c226 0 405 -151 449 -365v360h10zM581 917c-256 0 -451 -196 -451 -456s195 -456 451 -456c255 0 449 196 449 456s-194 456 -449 456zM650 1052l-251 300h13l251 -300 h-13z" glyph-name="agrave" horiz-adv-x="1241" unicode="à"/><glyph d="M1040 922v-922h-10v360c-44 -214 -223 -365 -449 -365c-261 0 -461 200 -461 466s200 466 461 466c226 0 405 -151 449 -365v360h10zM581 917c-256 0 -451 -196 -451 -456s195 -456 451 -456c255 0 449 196 449 456s-194 456 -449 456zM522 1052h-13l251 300h13z" glyph-name="aacute" horiz-adv-x="1241" unicode="á"/><glyph d="M1040 922v-922h-10v360c-44 -214 -223 -365 -449 -365c-261 0 -461 200 -461 466s200 466 461 466c226 0 405 -151 449 -365v360h10zM581 917c-256 0 -451 -196 -451 -456s195 -456 451 -456c255 0 449 196 449 456s-194 456 -449 456zM881 1076h-15l-275 249l-275 -249 h-15l289 262h2z" glyph-name="acircumflex" horiz-adv-x="1241" unicode="â"/><glyph d="M1040 922v-922h-10v360c-44 -214 -223 -365 -449 -365c-261 0 -461 200 -461 466s200 466 461 466c226 0 405 -151 449 -365v360h10zM581 917c-256 0 -451 -196 -451 -456s195 -456 451 -456c255 0 449 196 449 456s-194 456 -449 456zM314 1160l-8 6 c44 69 92 108 171 108c132 0 140 -106 268 -106c75 0 119 35 163 104l8 -6c-44 -69 -92 -108 -171 -108c-132 0 -140 106 -268 106c-75 0 -119 -35 -163 -104z" glyph-name="atilde" horiz-adv-x="1241" unicode="ã"/><glyph d="M1040 922v-922h-10v360c-44 -214 -223 -365 -449 -365c-261 0 -461 200 -461 466s200 466 461 466c226 0 405 -151 449 -365v360h10zM581 917c-256 0 -451 -196 -451 -456s195 -456 451 -456c255 0 449 196 449 456s-194 456 -449 456zM386 1320v-114h-10v114h10z M806 1320v-114h-10v114h10z" glyph-name="adieresis" horiz-adv-x="1241" unicode="ä"/><glyph d="M1040 922v-922h-10v360c-44 -214 -223 -365 -449 -365c-261 0 -461 200 -461 466s200 466 461 466c226 0 405 -151 449 -365v360h10zM581 917c-256 0 -451 -196 -451 -456s195 -456 451 -456c255 0 449 196 449 456s-194 456 -449 456zM591 1047c-98 0 -179 81 -179 179 s81 179 179 179s179 -81 179 -179s-81 -179 -179 -179zM591 1057c94 0 169 75 169 169s-75 169 -169 169s-169 -75 -169 -169s75 -169 169 -169z" glyph-name="aring" horiz-adv-x="1241" unicode="å"/><glyph d="M1331 927c232 0 421 -193 427 -456v-6h-872v-5c0 -263 185 -455 442 -455c173 0 287 73 373 174l7 -7c-120 -143 -256 -177 -380 -177c-186 0 -334 96 -406 250c-89 -145 -264 -250 -452 -250c-208 0 -350 91 -350 240s123 240 387 240h369v91c0 262 -157 351 -362 351 c-150 0 -253 -53 -326 -113l-6 8c73 60 180 115 332 115c209 0 372 -93 372 -361v-5c45 215 228 366 445 366zM1331 917c-240 0 -437 -189 -445 -442h862c-7 253 -192 442 -417 442zM470 5c186 0 361 105 447 251c-26 61 -41 130 -41 204v5h-369c-258 0 -377 -88 -377 -230 s137 -230 340 -230z" glyph-name="ae" horiz-adv-x="1878" unicode="æ"/><glyph d="M579 927c134 0 251 -53 334 -139l-8 -6c-81 84 -196 135 -326 135c-255 0 -449 -196 -449 -456s194 -456 449 -456c130 0 245 51 326 135l8 -6c-81 -84 -193 -136 -322 -139l-101 -321h-11l101 321h-1c-260 0 -459 200 -459 466s199 466 459 466z" glyph-name="ccedilla" horiz-adv-x="1018" unicode="ç"/><glyph d="M575 927c232 0 421 -193 427 -456v-6h-872v-5c0 -263 187 -455 445 -455c173 0 281 70 370 174l7 -7c-121 -143 -252 -177 -377 -177c-263 0 -455 196 -455 465c0 267 205 467 455 467zM575 917c-241 0 -437 -189 -445 -442h862c-7 254 -191 442 -417 442zM634 1052 l-251 300h13l251 -300h-13z" glyph-name="egrave" horiz-adv-x="1122" unicode="è"/><glyph d="M575 927c232 0 421 -193 427 -456v-6h-872v-5c0 -263 187 -455 445 -455c173 0 281 70 370 174l7 -7c-121 -143 -252 -177 -377 -177c-263 0 -455 196 -455 465c0 267 205 467 455 467zM575 917c-241 0 -437 -189 -445 -442h862c-7 254 -191 442 -417 442zM506 1052h-13 l251 300h13z" glyph-name="eacute" horiz-adv-x="1122" unicode="é"/><glyph d="M575 927c232 0 421 -193 427 -456v-6h-872v-5c0 -263 187 -455 445 -455c173 0 281 70 370 174l7 -7c-121 -143 -252 -177 -377 -177c-263 0 -455 196 -455 465c0 267 205 467 455 467zM575 917c-241 0 -437 -189 -445 -442h862c-7 254 -191 442 -417 442zM865 1076h-15 l-275 249l-275 -249h-15l289 262h2z" glyph-name="ecircumflex" horiz-adv-x="1122" unicode="ê"/><glyph d="M575 927c232 0 421 -193 427 -456v-6h-872v-5c0 -263 187 -455 445 -455c173 0 281 70 370 174l7 -7c-121 -143 -252 -177 -377 -177c-263 0 -455 196 -455 465c0 267 205 467 455 467zM575 917c-241 0 -437 -189 -445 -442h862c-7 254 -191 442 -417 442zM370 1320v-114 h-10v114h10zM790 1320v-114h-10v114h10z" glyph-name="edieresis" horiz-adv-x="1122" unicode="ë"/><glyph d="M211 922v-922h-10v922h10zM265 1052l-251 300h13l251 -300h-13z" glyph-name="igrave" horiz-adv-x="412" unicode="ì"/><glyph d="M211 922v-922h-10v922h10zM137 1052h-13l251 300h13z" glyph-name="iacute" horiz-adv-x="412" unicode="í"/><glyph d="M211 922v-922h-10v922h10zM496 1076h-15l-275 249l-275 -249h-15l289 262h2z" glyph-name="icircumflex" horiz-adv-x="412" unicode="î"/><glyph d="M211 922v-922h-10v922h10zM1 1320v-114h-10v114h10zM421 1320v-114h-10v114h10z" glyph-name="idieresis" horiz-adv-x="412" unicode="ï"/><glyph d="M914 1400l4 -8l-295 -163c206 -187 417 -470 417 -768c0 -265 -201 -466 -461 -466c-259 0 -459 201 -459 466s200 466 459 466c193 0 353 -109 423 -275c-60 208 -211 412 -389 572l-282 -154l-4 8l278 153c-92 81 -191 151 -290 204l4 9c100 -54 202 -125 295 -208z M579 917c-255 0 -449 -195 -449 -456s194 -456 449 -456c256 0 451 195 451 456s-195 456 -451 456z" glyph-name="eth" horiz-adv-x="1160" unicode="ð"/><glyph d="M599 927c239 0 398 -135 398 -376v-551h-10v551c0 222 -140 366 -388 366c-220 0 -388 -164 -388 -376v-541h-10v922h10v-293c39 173 194 298 388 298zM327 1160l-8 6c44 69 92 108 171 108c132 0 140 -106 268 -106c75 0 119 35 163 104l8 -6 c-44 -69 -92 -108 -171 -108c-132 0 -140 106 -268 106c-75 0 -119 -35 -163 -104z" glyph-name="ntilde" horiz-adv-x="1186" unicode="ñ"/><glyph d="M579 927c261 0 461 -200 461 -466s-200 -466 -461 -466c-260 0 -459 200 -459 466s199 466 459 466zM579 917c-255 0 -449 -196 -449 -456s194 -456 449 -456c256 0 451 196 451 456s-195 456 -451 456zM639 1052l-251 300h13l251 -300h-13z" glyph-name="ograve" horiz-adv-x="1160" unicode="ò"/><glyph d="M579 927c261 0 461 -200 461 -466s-200 -466 -461 -466c-260 0 -459 200 -459 466s199 466 459 466zM579 917c-255 0 -449 -196 -449 -456s194 -456 449 -456c256 0 451 196 451 456s-195 456 -451 456zM511 1052h-13l251 300h13z" glyph-name="oacute" horiz-adv-x="1160" unicode="ó"/><glyph d="M579 927c261 0 461 -200 461 -466s-200 -466 -461 -466c-260 0 -459 200 -459 466s199 466 459 466zM579 917c-255 0 -449 -196 -449 -456s194 -456 449 -456c256 0 451 196 451 456s-195 456 -451 456zM870 1076h-15l-275 249l-275 -249h-15l289 262h2z" glyph-name="ocircumflex" horiz-adv-x="1160" unicode="ô"/><glyph d="M579 927c261 0 461 -200 461 -466s-200 -466 -461 -466c-260 0 -459 200 -459 466s199 466 459 466zM579 917c-255 0 -449 -196 -449 -456s194 -456 449 -456c256 0 451 196 451 456s-195 456 -451 456zM303 1160l-8 6c44 69 92 108 171 108c132 0 140 -106 268 -106 c75 0 119 35 163 104l8 -6c-44 -69 -92 -108 -171 -108c-132 0 -140 106 -268 106c-75 0 -119 -35 -163 -104z" glyph-name="otilde" horiz-adv-x="1160" unicode="õ"/><glyph d="M579 927c261 0 461 -200 461 -466s-200 -466 -461 -466c-260 0 -459 200 -459 466s199 466 459 466zM579 917c-255 0 -449 -196 -449 -456s194 -456 449 -456c256 0 451 196 451 456s-195 456 -451 456zM375 1320v-114h-10v114h10zM795 1320v-114h-10v114h10z" glyph-name="odieresis" horiz-adv-x="1160" unicode="ö"/><glyph d="M1000 525v-10h-800v10h800zM605 293v-114h-10v114h10zM605 861v-114h-10v114h10z" glyph-name="divide" horiz-adv-x="1200" unicode="÷"/><glyph d="M579 927c130 0 244 -50 327 -132l134 134l8 -7l-135 -134c79 -83 127 -198 127 -327c0 -266 -200 -466 -461 -466c-130 0 -244 49 -326 132l-133 -133l-8 7l134 133c-79 83 -126 197 -126 327c0 266 199 466 459 466zM1030 461c0 127 -47 239 -124 320l-646 -647 c80 -81 192 -129 319 -129c256 0 451 196 451 456zM579 917c-255 0 -449 -196 -449 -456c0 -127 46 -239 123 -320l646 647c-81 80 -193 129 -320 129z" glyph-name="oslash" horiz-adv-x="1160" unicode="ø"/><glyph d="M985 922v-551c0 -226 -159 -376 -398 -376s-398 150 -398 376v551h10v-551c0 -220 154 -366 388 -366s388 146 388 366v551h10zM646 1052l-251 300h13l251 -300h-13z" glyph-name="ugrave" horiz-adv-x="1174" unicode="ù"/><glyph d="M985 922v-551c0 -226 -159 -376 -398 -376s-398 150 -398 376v551h10v-551c0 -220 154 -366 388 -366s388 146 388 366v551h10zM518 1052h-13l251 300h13z" glyph-name="uacute" horiz-adv-x="1174" unicode="ú"/><glyph d="M985 922v-551c0 -226 -159 -376 -398 -376s-398 150 -398 376v551h10v-551c0 -220 154 -366 388 -366s388 146 388 366v551h10zM877 1076h-15l-275 249l-275 -249h-15l289 262h2z" glyph-name="ucircumflex" horiz-adv-x="1174" unicode="û"/><glyph d="M985 922v-551c0 -226 -159 -376 -398 -376s-398 150 -398 376v551h10v-551c0 -220 154 -366 388 -366s388 146 388 366v551h10zM382 1320v-114h-10v114h10zM802 1320v-114h-10v114h10z" glyph-name="udieresis" horiz-adv-x="1174" unicode="ü"/><glyph d="M930 922l-804 -1322h-12l380 625l-462 697h12l456 -687l418 687h12zM412 1052h-13l251 300h13z" glyph-name="yacute" horiz-adv-x="953" unicode="ý"/><glyph d="M660 927c261 0 461 -200 461 -466s-200 -466 -461 -466c-226 0 -406 151 -449 365v-760h-10v1840h10v-878c43 214 223 365 449 365zM660 917c-254 0 -449 -196 -449 -456s195 -456 449 -456c255 0 451 196 451 456s-196 456 -451 456z" glyph-name="thorn" horiz-adv-x="1241" unicode="þ"/><glyph d="M930 922l-804 -1322h-12l380 625l-462 697h12l456 -687l418 687h12zM276 1320v-114h-10v114h10zM696 1320v-114h-10v114h10z" glyph-name="ydieresis" horiz-adv-x="953" unicode="ÿ"/><glyph d="M684 1405l626 -1405h-11l-207 465h-824l-207 -465h-11l626 1405h8zM680 1389l-408 -914h815zM407 1613v10h547v-10h-547z" glyph-name="Amacron" horiz-adv-x="1360" unicode="Ā"/><glyph d="M1040 922v-922h-10v360c-44 -214 -223 -365 -449 -365c-261 0 -461 200 -461 466s200 466 461 466c226 0 405 -151 449 -365v360h10zM581 917c-256 0 -451 -196 -451 -456s195 -456 451 -456c255 0 449 196 449 456s-194 456 -449 456zM318 1197v10h547v-10h-547z" glyph-name="amacron" horiz-adv-x="1241" unicode="ā"/><glyph d="M684 1405l626 -1405h-11l-207 465h-824l-207 -465h-11l626 1405h8zM680 1389l-408 -914h815zM402 1742l10 2c34 -150 133 -231 268 -231s233 81 268 231l10 -2c-36 -154 -139 -239 -278 -239s-243 85 -278 239z" glyph-name="Abreve" horiz-adv-x="1360" unicode="Ă"/><glyph d="M1040 922v-922h-10v360c-44 -214 -223 -365 -449 -365c-261 0 -461 200 -461 466s200 466 461 466c226 0 405 -151 449 -365v360h10zM581 917c-256 0 -451 -196 -451 -456s195 -456 451 -456c255 0 449 196 449 456s-194 456 -449 456zM313 1326l10 2 c34 -150 133 -231 268 -231s233 81 268 231l10 -2c-36 -154 -139 -239 -278 -239s-243 85 -278 239z" glyph-name="abreve" horiz-adv-x="1241" unicode="ă"/><glyph d="M1321 -316l8 -6c-43 -54 -98 -83 -159 -83c-93 0 -161 55 -161 142c0 114 107 191 288 268l-205 460h-824l-207 -465h-11l626 1405h8l626 -1405c-183 -78 -291 -152 -291 -263c0 -82 63 -132 151 -132c59 0 110 27 151 79zM680 1389l-408 -914h815z" glyph-name="Aogonek" horiz-adv-x="1360" unicode="Ą"/><glyph d="M1051 -316l8 -6c-43 -54 -98 -83 -159 -83c-93 0 -161 55 -161 142c0 115 110 192 291 270v353c-44 -214 -223 -365 -449 -365c-261 0 -461 200 -461 466s200 466 461 466c226 0 405 -151 449 -365v360h10v-922c-183 -78 -291 -152 -291 -263c0 -82 63 -132 151 -132 c59 0 110 27 151 79zM581 917c-256 0 -451 -196 -451 -456s195 -456 451 -456c255 0 449 196 449 456s-194 456 -449 456z" glyph-name="aogonek" horiz-adv-x="1241" unicode="ą"/><glyph d="M838 1405c231 0 440 -108 551 -282l-8 -6c-109 172 -316 278 -543 278c-380 0 -690 -278 -690 -695s310 -695 690 -695c227 0 434 106 543 278l8 -6c-111 -174 -320 -282 -551 -282c-385 0 -700 282 -700 705s315 705 700 705zM746 1468h-13l251 300h13z" glyph-name="Cacute" horiz-adv-x="1524" unicode="Ć"/><glyph d="M579 927c134 0 251 -53 334 -139l-8 -6c-81 84 -196 135 -326 135c-255 0 -449 -196 -449 -456s194 -456 449 -456c130 0 245 51 326 135l8 -6c-83 -86 -200 -139 -334 -139c-260 0 -459 200 -459 466s199 466 459 466zM510 1052h-13l251 300h13z" glyph-name="cacute" horiz-adv-x="1018" unicode="ć"/><glyph d="M838 1405c231 0 440 -108 551 -282l-8 -6c-109 172 -316 278 -543 278c-380 0 -690 -278 -690 -695s310 -695 690 -695c227 0 434 106 543 278l8 -6c-111 -174 -320 -282 -551 -282c-385 0 -700 282 -700 705s315 705 700 705zM1125 1492h-15l-275 249l-275 -249h-15 l289 262h2z" glyph-name="Ccircumflex" horiz-adv-x="1524" unicode="Ĉ"/><glyph d="M579 927c134 0 251 -53 334 -139l-8 -6c-81 84 -196 135 -326 135c-255 0 -449 -196 -449 -456s194 -456 449 -456c130 0 245 51 326 135l8 -6c-83 -86 -200 -139 -334 -139c-260 0 -459 200 -459 466s199 466 459 466zM869 1076h-15l-275 249l-275 -249h-15l289 262h2z" glyph-name="ccircumflex" horiz-adv-x="1018" unicode="ĉ"/><glyph d="M838 1405c231 0 440 -108 551 -282l-8 -6c-109 172 -316 278 -543 278c-380 0 -690 -278 -690 -695s310 -695 690 -695c227 0 434 106 543 278l8 -6c-111 -174 -320 -282 -551 -282c-385 0 -700 282 -700 705s315 705 700 705zM840 1669v-114h-10v114h10z" glyph-name="Cdotaccent" horiz-adv-x="1524" unicode="Ċ"/><glyph d="M579 927c134 0 251 -53 334 -139l-8 -6c-81 84 -196 135 -326 135c-255 0 -449 -196 -449 -456s194 -456 449 -456c130 0 245 51 326 135l8 -6c-83 -86 -200 -139 -334 -139c-260 0 -459 200 -459 466s199 466 459 466zM584 1320v-114h-10v114h10z" glyph-name="cdotaccent" horiz-adv-x="1018" unicode="ċ"/><glyph d="M838 1405c231 0 440 -108 551 -282l-8 -6c-109 172 -316 278 -543 278c-380 0 -690 -278 -690 -695s310 -695 690 -695c227 0 434 106 543 278l8 -6c-111 -174 -320 -282 -551 -282c-385 0 -700 282 -700 705s315 705 700 705zM545 1748h15l275 -249l275 249h15 l-289 -262h-2z" glyph-name="Ccaron" horiz-adv-x="1524" unicode="Č"/><glyph d="M579 927c134 0 251 -53 334 -139l-8 -6c-81 84 -196 135 -326 135c-255 0 -449 -196 -449 -456s194 -456 449 -456c130 0 245 51 326 135l8 -6c-83 -86 -200 -139 -334 -139c-260 0 -459 200 -459 466s199 466 459 466zM289 1332h15l275 -249l275 249h15l-289 -262h-2z" glyph-name="ccaron" horiz-adv-x="1018" unicode="č"/><glyph d="M230 1400h461c498 0 791 -261 791 -700s-293 -700 -791 -700h-461v1400zM691 1390h-451v-1380h451c493 0 781 257 781 690s-288 690 -781 690zM441 1748h15l275 -249l275 249h15l-289 -262h-2z" glyph-name="Dcaron" horiz-adv-x="1620" unicode="Ď"/><glyph d="M581 927c226 0 405 -151 449 -365v878h10v-1440h-10v360c-44 -214 -223 -365 -449 -365c-261 0 -461 200 -461 466s200 466 461 466zM581 917c-256 0 -451 -196 -451 -456s195 -456 451 -456c255 0 449 196 449 456s-194 456 -449 456zM1191 1052h-10l22 388h10z" glyph-name="dcaron" horiz-adv-x="1241" unicode="ď"/><glyph d="M468 1400h461c498 0 791 -261 791 -700s-293 -700 -791 -700h-461v700h-330v10h330v690zM948 710v-10h-470v-690h451c493 0 781 257 781 690s-288 690 -781 690h-451v-680h470z" glyph-name="Dcroat" horiz-adv-x="1858" unicode="Đ"/><glyph d="M1241 1165v-10h-201v-1155h-10v360c-44 -214 -223 -365 -449 -365c-261 0 -461 200 -461 466s200 466 461 466c226 0 405 -151 449 -365v593h-479v10h479v275h10v-275h201zM581 917c-256 0 -451 -196 -451 -456s195 -456 451 -456c255 0 449 196 449 456 s-194 456 -449 456z" glyph-name="dcroat" horiz-adv-x="1241" unicode="đ"/><glyph d="M1131 10v-10h-901v1400h901v-10h-891v-680h871v-10h-871v-690h891zM398 1613v10h547v-10h-547z" glyph-name="Emacron" horiz-adv-x="1315" unicode="Ē"/><glyph d="M575 927c232 0 421 -193 427 -456v-6h-872v-5c0 -263 187 -455 445 -455c173 0 281 70 370 174l7 -7c-121 -143 -252 -177 -377 -177c-263 0 -455 196 -455 465c0 267 205 467 455 467zM575 917c-241 0 -437 -189 -445 -442h862c-7 254 -191 442 -417 442zM302 1197v10 h547v-10h-547z" glyph-name="emacron" horiz-adv-x="1122" unicode="ē"/><glyph d="M1131 10v-10h-901v1400h901v-10h-891v-680h871v-10h-871v-690h891zM393 1742l10 2c34 -150 133 -231 268 -231s233 81 268 231l10 -2c-36 -154 -139 -239 -278 -239s-243 85 -278 239z" glyph-name="Ebreve" horiz-adv-x="1315" unicode="Ĕ"/><glyph d="M575 927c232 0 421 -193 427 -456v-6h-872v-5c0 -263 187 -455 445 -455c173 0 281 70 370 174l7 -7c-121 -143 -252 -177 -377 -177c-263 0 -455 196 -455 465c0 267 205 467 455 467zM575 917c-241 0 -437 -189 -445 -442h862c-7 254 -191 442 -417 442zM297 1326l10 2 c34 -150 133 -231 268 -231s233 81 268 231l10 -2c-36 -154 -139 -239 -278 -239s-243 85 -278 239z" glyph-name="ebreve" horiz-adv-x="1122" unicode="ĕ"/><glyph d="M1131 10v-10h-901v1400h901v-10h-891v-680h871v-10h-871v-690h891zM676 1669v-114h-10v114h10z" glyph-name="Edotaccent" horiz-adv-x="1315" unicode="Ė"/><glyph d="M575 927c232 0 421 -193 427 -456v-6h-872v-5c0 -263 187 -455 445 -455c173 0 281 70 370 174l7 -7c-121 -143 -252 -177 -377 -177c-263 0 -455 196 -455 465c0 267 205 467 455 467zM575 917c-241 0 -437 -189 -445 -442h862c-7 254 -191 442 -417 442zM580 1320v-114 h-10v114h10z" glyph-name="edotaccent" horiz-adv-x="1122" unicode="ė"/><glyph d="M1131 10v-10h-188c-103 -64 -180 -130 -180 -234c0 -97 77 -161 184 -161c69 0 134 27 183 79l8 -6c-51 -54 -118 -83 -191 -83c-113 0 -194 69 -194 171c0 105 74 171 173 234h-696v1400h901v-10h-891v-680h871v-10h-871v-690h891z" glyph-name="Eogonek" horiz-adv-x="1315" unicode="Ę"/><glyph d="M911 -316l8 -6c-51 -54 -118 -83 -191 -83c-113 0 -194 69 -194 171c0 113 85 183 198 252c-48 -17 -103 -23 -157 -23c-263 0 -455 196 -455 465c0 267 205 467 455 467c232 0 421 -193 427 -456v-6h-872v-5c0 -263 187 -455 445 -455c173 0 281 70 370 174l7 -7 c-50 -59 -95 -94 -146 -122c-137 -75 -262 -157 -262 -284c0 -97 77 -161 184 -161c69 0 134 27 183 79zM575 917c-241 0 -437 -189 -445 -442h862c-7 254 -191 442 -417 442z" glyph-name="eogonek" horiz-adv-x="1122" unicode="ę"/><glyph d="M1131 10v-10h-901v1400h901v-10h-891v-680h871v-10h-871v-690h891zM381 1748h15l275 -249l275 249h15l-289 -262h-2z" glyph-name="Ecaron" horiz-adv-x="1315" unicode="Ě"/><glyph d="M575 927c232 0 421 -193 427 -456v-6h-872v-5c0 -263 187 -455 445 -455c173 0 281 70 370 174l7 -7c-121 -143 -252 -177 -377 -177c-263 0 -455 196 -455 465c0 267 205 467 455 467zM575 917c-241 0 -437 -189 -445 -442h862c-7 254 -191 442 -417 442zM285 1332h15 l275 -249l275 249h15l-289 -262h-2z" glyph-name="ecaron" horiz-adv-x="1122" unicode="ě"/><glyph d="M838 1405c218 0 414 -97 543 -253l-8 -6c-127 154 -321 249 -535 249c-380 0 -690 -278 -690 -695s310 -695 690 -695c389 0 649 278 649 695h-586v10h596v-10c0 -422 -264 -705 -659 -705c-386 0 -700 283 -700 705s314 705 700 705zM1116 1492h-15l-275 249l-275 -249 h-15l289 262h2z" glyph-name="Gcircumflex" horiz-adv-x="1635" unicode="Ĝ"/><glyph d="M579 927c227 0 407 -151 451 -365v360h10v-861c0 -327 -240 -466 -471 -466c-168 0 -307 65 -392 163l8 6c83 -96 220 -159 384 -159c227 0 461 136 461 456v299c-44 -214 -224 -365 -451 -365c-260 0 -459 200 -459 466s199 466 459 466zM579 917 c-255 0 -449 -196 -449 -456s194 -456 449 -456c256 0 451 196 451 456s-195 456 -451 456zM880 1076h-15l-275 249l-275 -249h-15l289 262h2z" glyph-name="gcircumflex" horiz-adv-x="1241" unicode="ĝ"/><glyph d="M838 1405c218 0 414 -97 543 -253l-8 -6c-127 154 -321 249 -535 249c-380 0 -690 -278 -690 -695s310 -695 690 -695c389 0 649 278 649 695h-586v10h596v-10c0 -422 -264 -705 -659 -705c-386 0 -700 283 -700 705s314 705 700 705zM548 1742l10 2 c34 -150 133 -231 268 -231s233 81 268 231l10 -2c-36 -154 -139 -239 -278 -239s-243 85 -278 239z" glyph-name="Gbreve" horiz-adv-x="1635" unicode="Ğ"/><glyph d="M579 927c227 0 407 -151 451 -365v360h10v-861c0 -327 -240 -466 -471 -466c-168 0 -307 65 -392 163l8 6c83 -96 220 -159 384 -159c227 0 461 136 461 456v299c-44 -214 -224 -365 -451 -365c-260 0 -459 200 -459 466s199 466 459 466zM579 917 c-255 0 -449 -196 -449 -456s194 -456 449 -456c256 0 451 196 451 456s-195 456 -451 456zM312 1326l10 2c34 -150 133 -231 268 -231s233 81 268 231l10 -2c-36 -154 -139 -239 -278 -239s-243 85 -278 239z" glyph-name="gbreve" horiz-adv-x="1241" unicode="ğ"/><glyph d="M838 1405c218 0 414 -97 543 -253l-8 -6c-127 154 -321 249 -535 249c-380 0 -690 -278 -690 -695s310 -695 690 -695c389 0 649 278 649 695h-586v10h596v-10c0 -422 -264 -705 -659 -705c-386 0 -700 283 -700 705s314 705 700 705zM831 1669v-114h-10v114h10z" glyph-name="Gdotaccent" horiz-adv-x="1635" unicode="Ġ"/><glyph d="M579 927c227 0 407 -151 451 -365v360h10v-861c0 -327 -240 -466 -471 -466c-168 0 -307 65 -392 163l8 6c83 -96 220 -159 384 -159c227 0 461 136 461 456v299c-44 -214 -224 -365 -451 -365c-260 0 -459 200 -459 466s199 466 459 466zM579 917 c-255 0 -449 -196 -449 -456s194 -456 449 -456c256 0 451 196 451 456s-195 456 -451 456zM595 1320v-114h-10v114h10z" glyph-name="gdotaccent" horiz-adv-x="1241" unicode="ġ"/><glyph d="M838 1405c218 0 414 -97 543 -253l-8 -6c-127 154 -321 249 -535 249c-380 0 -690 -278 -690 -695s310 -695 690 -695c389 0 649 278 649 695h-586v10h596v-10c0 -422 -264 -705 -659 -705c-386 0 -700 283 -700 705s314 705 700 705zM839 -90h10l-52 -310h-10z" glyph-name="Gcommaaccent" horiz-adv-x="1635" unicode="Ģ"/><glyph d="M579 927c227 0 407 -151 451 -365v360h10v-861c0 -327 -240 -466 -471 -466c-168 0 -307 65 -392 163l8 6c83 -96 220 -159 384 -159c227 0 461 136 461 456v299c-44 -214 -224 -365 -451 -365c-260 0 -459 200 -459 466s199 466 459 466zM579 917 c-255 0 -449 -196 -449 -456s194 -456 449 -456c256 0 451 196 451 456s-195 456 -451 456zM585 1052h-10l52 310h10z" glyph-name="gcommaaccent" horiz-adv-x="1241" unicode="ģ"/><glyph d="M240 1400v-690h1058v690h10v-1400h-10v700h-1058v-700h-10v1400h10zM1059 1492h-15l-275 249l-275 -249h-15l289 262h2z" glyph-name="Hcircumflex" horiz-adv-x="1538" unicode="Ĥ"/><glyph d="M211 1440v-811c39 173 194 298 388 298c239 0 398 -135 398 -376v-551h-10v551c0 222 -140 366 -388 366c-220 0 -388 -164 -388 -376v-541h-10v1440h10zM889 1554h-15l-275 249l-275 -249h-15l289 262h2z" glyph-name="hcircumflex" horiz-adv-x="1186" unicode="ĥ"/><glyph d="M1559 1067v-10h-206v-1057h-10v700h-1058v-700h-10v1057h-206v10h206v333h10v-333h1058v333h10v-333h206zM285 710h1058v347h-1058v-347z" glyph-name="Hbar" horiz-adv-x="1628" unicode="Ħ"/><glyph d="M690 1165v-10h-479v-526c39 173 194 298 388 298c239 0 398 -135 398 -376v-551h-10v551c0 222 -140 366 -388 366c-220 0 -388 -164 -388 -376v-541h-10v1155h-201v10h201v275h10v-275h479z" glyph-name="hbar" horiz-adv-x="1186" unicode="ħ"/><glyph d="M240 1400v-1400h-10v1400h10zM-62 1576l-8 6c44 69 92 108 171 108c132 0 140 -106 268 -106c75 0 119 35 163 104l8 -6c-44 -69 -92 -108 -171 -108c-132 0 -140 106 -268 106c-75 0 -119 -35 -163 -104z" glyph-name="Itilde" horiz-adv-x="470" unicode="Ĩ"/><glyph d="M211 922v-922h-10v922h10zM-71 1160l-8 6c44 69 92 108 171 108c132 0 140 -106 268 -106c75 0 119 35 163 104l8 -6c-44 -69 -92 -108 -171 -108c-132 0 -140 106 -268 106c-75 0 -119 -35 -163 -104z" glyph-name="itilde" horiz-adv-x="412" unicode="ĩ"/><glyph d="M240 1400v-1400h-10v1400h10zM-38 1613v10h547v-10h-547z" glyph-name="Imacron" horiz-adv-x="470" unicode="Ī"/><glyph d="M211 922v-922h-10v922h10zM-67 1197v10h547v-10h-547z" glyph-name="imacron" horiz-adv-x="412" unicode="ī"/><glyph d="M240 1400v-1400h-10v1400h10zM-43 1742l10 2c34 -150 133 -231 268 -231s233 81 268 231l10 -2c-36 -154 -139 -239 -278 -239s-243 85 -278 239z" glyph-name="Ibreve" horiz-adv-x="470" unicode="Ĭ"/><glyph d="M211 922v-922h-10v922h10zM-72 1326l10 2c34 -150 133 -231 268 -231s233 81 268 231l10 -2c-36 -154 -139 -239 -278 -239s-243 85 -278 239z" glyph-name="ibreve" horiz-adv-x="412" unicode="ĭ"/><glyph d="M372 -316l8 -6c-43 -54 -97 -83 -159 -83c-93 0 -161 55 -161 142s81 179 170 267v1396h10v-1400c-90 -88 -170 -181 -170 -263s63 -132 151 -132c59 0 110 27 151 79z" glyph-name="Iogonek" horiz-adv-x="470" unicode="Į"/><glyph d="M211 922v-922c-90 -88 -170 -181 -170 -263s63 -132 151 -132c59 0 110 27 151 79l8 -6c-43 -54 -97 -83 -159 -83c-93 0 -161 55 -161 142s81 181 170 269v916h10zM211 1320v-114h-10v114h10z" glyph-name="iogonek" horiz-adv-x="412" unicode="į"/><glyph d="M240 1400v-1400h-10v1400h10zM240 1669v-114h-10v114h10z" glyph-name="Idotaccent" horiz-adv-x="470" unicode="İ"/><glyph d="M211 922v-922h-10v922h10z" glyph-name="dotlessi" horiz-adv-x="412" unicode="ı"/><glyph d="M240 1400v-1400h-10v1400h10zM1403 1400v-891c0 -330 -208 -514 -482 -514c-174 0 -308 75 -391 155l6 8c82 -79 213 -153 385 -153c268 0 472 179 472 504v891h10z" glyph-name="IJ" horiz-adv-x="1621" unicode="Ĳ"/><glyph d="M623 922v-1165c0 -103 -38 -162 -132 -162c-48 0 -89 18 -115 37l6 8c25 -19 65 -35 109 -35c87 0 122 53 122 152v1165h10zM623 1320v-114h-10v114h10zM211 922v-922h-10v922h10zM211 1320v-114h-10v114h10z" glyph-name="ij" horiz-adv-x="824" unicode="ĳ"/><glyph d="M933 1400v-891c0 -330 -208 -514 -482 -514c-174 0 -308 75 -391 155l6 8c82 -79 213 -153 385 -153c268 0 472 179 472 504v891h10zM1218 1492h-15l-275 249l-275 -249h-15l289 262h2z" glyph-name="Jcircumflex" horiz-adv-x="1151" unicode="Ĵ"/><glyph d="M211 922v-1165c0 -103 -38 -162 -132 -162c-48 0 -89 18 -115 37l6 8c25 -19 65 -35 109 -35c87 0 122 53 122 152v1165h10zM496 1076h-15l-275 249l-275 -249h-15l289 262h2z" glyph-name="jcircumflex" horiz-adv-x="412" unicode="ĵ"/><glyph d="M1230 0l-759 699h-231v-699h-10v1400h10v-691h231l719 691h14l-724 -696l765 -704h-15zM669 -90h10l-52 -310h-10z" glyph-name="Kcommaaccent" horiz-adv-x="1305" unicode="Ķ"/><glyph d="M211 1440v-949h194l494 431h15l-499 -436l511 -486h-14l-507 481h-194v-481h-10v1440h10zM558 -90h10l-52 -310h-10z" glyph-name="kcommaaccent" horiz-adv-x="996" unicode="ķ"/><glyph d="M211 922v-431h184l474 431h15l-480 -436l492 -486h-14l-487 481h-184v-481h-10v922h10z" glyph-name="kgreenlandic" horiz-adv-x="966" unicode="ĸ"/><glyph d="M1131 10v-10h-901v1400h10v-1390h891zM146 1468h-13l251 300h13z" glyph-name="Lacute" horiz-adv-x="1177" unicode="Ĺ"/><glyph d="M211 1440v-1440h-10v1440h10zM66 1548h-13l251 300h13z" glyph-name="lacute" horiz-adv-x="412" unicode="ĺ"/><glyph d="M1131 10v-10h-901v1400h10v-1390h891zM682 -90h10l-52 -310h-10z" glyph-name="Lcommaaccent" horiz-adv-x="1177" unicode="Ļ"/><glyph d="M211 1440v-1440h-10v1440h10zM227 -90h10l-52 -310h-10z" glyph-name="lcommaaccent" horiz-adv-x="412" unicode="ļ"/><glyph d="M1131 10v-10h-901v1400h10v-1390h891zM587 1012h-10l22 388h10z" glyph-name="Lcaron" horiz-adv-x="1177" unicode="Ľ"/><glyph d="M211 1440v-1440h-10v1440h10zM351 1052h-10l22 388h10z" glyph-name="lcaron" horiz-adv-x="412" unicode="ľ"/><glyph d="M1131 10v-10h-901v1400h10v-1390h891zM819 756v-114h-10v114h10z" glyph-name="Ldot" horiz-adv-x="1177" unicode="Ŀ"/><glyph d="M211 1440v-1440h-10v1440h10zM425 781v-114h-10v114h10z" glyph-name="ldot" horiz-adv-x="435" unicode="ŀ"/><glyph d="M1309 10v-10h-901v610l-270 -155v12l270 155v778h10v-772l593 339v-12l-593 -339v-606h891z" glyph-name="Lslash" horiz-adv-x="1355" unicode="Ł"/><glyph d="M315 1440v-667l245 196v-13l-245 -196v-760h-10v752l-245 -196v13l245 196v675h10z" glyph-name="lslash" horiz-adv-x="620" unicode="ł"/><glyph d="M1312 1400v-1405h-8l-1064 1391v-1386h-10v1405h8l1064 -1391v1386h10zM682 1468h-13l251 300h13z" glyph-name="Nacute" horiz-adv-x="1542" unicode="Ń"/><glyph d="M599 927c239 0 398 -135 398 -376v-551h-10v551c0 222 -140 366 -388 366c-220 0 -388 -164 -388 -376v-541h-10v922h10v-293c39 173 194 298 388 298zM535 1052h-13l251 300h13z" glyph-name="nacute" horiz-adv-x="1186" unicode="ń"/><glyph d="M1312 1400v-1405h-8l-1064 1391v-1386h-10v1405h8l1064 -1391v1386h10zM792 -90h10l-52 -310h-10z" glyph-name="Ncommaaccent" horiz-adv-x="1542" unicode="Ņ"/><glyph d="M599 927c239 0 398 -135 398 -376v-551h-10v551c0 222 -140 366 -388 366c-220 0 -388 -164 -388 -376v-541h-10v922h10v-293c39 173 194 298 388 298zM616 -90h10l-52 -310h-10z" glyph-name="ncommaaccent" horiz-adv-x="1186" unicode="ņ"/><glyph d="M1312 1400v-1405h-8l-1064 1391v-1386h-10v1405h8l1064 -1391v1386h10zM481 1748h15l275 -249l275 249h15l-289 -262h-2z" glyph-name="Ncaron" horiz-adv-x="1542" unicode="Ň"/><glyph d="M599 927c239 0 398 -135 398 -376v-551h-10v551c0 222 -140 366 -388 366c-220 0 -388 -164 -388 -376v-541h-10v922h10v-293c39 173 194 298 388 298zM314 1332h15l275 -249l275 249h15l-289 -262h-2z" glyph-name="ncaron" horiz-adv-x="1186" unicode="ň"/><glyph d="M260 1440h10l-70 -418h-10zM889 927c239 0 398 -135 398 -376v-551h-10v551c0 222 -140 366 -388 366c-220 0 -388 -164 -388 -376v-541h-10v922h10v-293c39 173 194 298 388 298z" glyph-name="napostrophe" horiz-adv-x="1476" unicode="ŉ"/><glyph d="M1312 1400v-1445c0 -201 -78 -360 -300 -360c-95 0 -182 30 -240 69l6 8c56 -37 141 -67 234 -67c215 0 290 153 290 350v43l-1062 1388v-1386h-10v1405h8l1064 -1391v1386h10z" glyph-name="Eng" horiz-adv-x="1542" unicode="Ŋ"/><glyph d="M599 927c239 0 398 -135 398 -376v-694c0 -103 -37 -162 -132 -162c-48 0 -89 18 -115 37l6 8c26 -19 63 -35 109 -35c87 0 122 53 122 152v694c0 222 -140 366 -388 366c-220 0 -388 -164 -388 -376v-541h-10v922h10v-293c39 173 194 298 388 298z" glyph-name="eng" horiz-adv-x="1186" unicode="ŋ"/><glyph d="M838 1405c386 0 700 -282 700 -705s-314 -705 -700 -705s-700 282 -700 705s314 705 700 705zM838 1395c-381 0 -690 -278 -690 -695s309 -695 690 -695s690 278 690 695s-309 695 -690 695zM565 1613v10h547v-10h-547z" glyph-name="Omacron" horiz-adv-x="1676" unicode="Ō"/><glyph d="M579 927c261 0 461 -200 461 -466s-200 -466 -461 -466c-260 0 -459 200 -459 466s199 466 459 466zM579 917c-255 0 -449 -196 -449 -456s194 -456 449 -456c256 0 451 196 451 456s-195 456 -451 456zM307 1197v10h547v-10h-547z" glyph-name="omacron" horiz-adv-x="1160" unicode="ō"/><glyph d="M838 1405c386 0 700 -282 700 -705s-314 -705 -700 -705s-700 282 -700 705s314 705 700 705zM838 1395c-381 0 -690 -278 -690 -695s309 -695 690 -695s690 278 690 695s-309 695 -690 695zM560 1742l10 2c34 -150 133 -231 268 -231s233 81 268 231l10 -2 c-36 -154 -139 -239 -278 -239s-243 85 -278 239z" glyph-name="Obreve" horiz-adv-x="1676" unicode="Ŏ"/><glyph d="M579 927c261 0 461 -200 461 -466s-200 -466 -461 -466c-260 0 -459 200 -459 466s199 466 459 466zM579 917c-255 0 -449 -196 -449 -456s194 -456 449 -456c256 0 451 196 451 456s-195 456 -451 456zM302 1326l10 2c34 -150 133 -231 268 -231s233 81 268 231l10 -2 c-36 -154 -139 -239 -278 -239s-243 85 -278 239z" glyph-name="obreve" horiz-adv-x="1160" unicode="ŏ"/><glyph d="M838 1405c386 0 700 -282 700 -705s-314 -705 -700 -705s-700 282 -700 705s314 705 700 705zM838 1395c-381 0 -690 -278 -690 -695s309 -695 690 -695s690 278 690 695s-309 695 -690 695zM979 1468h-13l251 300h13zM639 1468h-13l251 300h13z" glyph-name="Ohungarumlaut" horiz-adv-x="1676" unicode="Ő"/><glyph d="M579 927c261 0 461 -200 461 -466s-200 -466 -461 -466c-260 0 -459 200 -459 466s199 466 459 466zM579 917c-255 0 -449 -196 -449 -456s194 -456 449 -456c256 0 451 196 451 456s-195 456 -451 456zM731 1052h-13l251 300h13zM391 1052h-13l251 300h13z" glyph-name="ohungarumlaut" horiz-adv-x="1160" unicode="ő"/><glyph d="M2081 10v-10h-1152c-499 0 -791 260 -791 700s292 700 791 700h1152v-10h-891v-680h871v-10h-871v-690h891zM148 700c0 -433 288 -690 781 -690h251v1380h-251c-493 0 -781 -257 -781 -690z" glyph-name="OE" horiz-adv-x="2265" unicode="Œ"/><glyph d="M1485 927c232 0 421 -193 427 -456v-6h-872v-5c0 -263 185 -455 442 -455c173 0 287 73 373 174l7 -7c-120 -143 -255 -177 -380 -177c-238 0 -417 161 -448 393c-33 -229 -219 -393 -455 -393c-260 0 -459 200 -459 466s199 466 459 466c237 0 424 -166 456 -397 c32 231 222 397 450 397zM579 917c-254 0 -449 -196 -449 -456s195 -456 449 -456c255 0 451 196 451 456s-196 456 -451 456zM1485 917c-240 0 -437 -189 -445 -442h862c-7 253 -192 442 -417 442z" glyph-name="oe" horiz-adv-x="2032" unicode="œ"/><glyph d="M230 1400h488c296 0 470 -137 470 -372c0 -236 -174 -373 -470 -373h-148l609 -655h-14l-608 655h-317v-655h-10v1400zM723 1390h-483v-725h483c286 0 455 134 455 363c0 228 -169 362 -455 362zM564 1468h-13l251 300h13z" glyph-name="Racute" horiz-adv-x="1308" unicode="Ŕ"/><glyph d="M524 928c66 0 131 -14 181 -45l-6 -8c-48 29 -111 43 -175 43c-183 0 -313 -167 -313 -381v-537h-10v922h10v-284c34 167 152 290 313 290zM372 1052h-13l251 300h13z" glyph-name="racute" horiz-adv-x="765" unicode="ŕ"/><glyph d="M230 1400h488c296 0 470 -137 470 -372c0 -236 -174 -373 -470 -373h-148l609 -655h-14l-608 655h-317v-655h-10v1400zM723 1390h-483v-725h483c286 0 455 134 455 363c0 228 -169 362 -455 362zM663 -90h10l-52 -310h-10z" glyph-name="Rcommaaccent" horiz-adv-x="1308" unicode="Ŗ"/><glyph d="M524 928c66 0 131 -14 181 -45l-6 -8c-48 29 -111 43 -175 43c-183 0 -313 -167 -313 -381v-537h-10v922h10v-284c34 167 152 290 313 290zM227 -90h10l-52 -310h-10z" glyph-name="rcommaaccent" horiz-adv-x="765" unicode="ŗ"/><glyph d="M230 1400h488c296 0 470 -137 470 -372c0 -236 -174 -373 -470 -373h-148l609 -655h-14l-608 655h-317v-655h-10v1400zM723 1390h-483v-725h483c286 0 455 134 455 363c0 228 -169 362 -455 362zM363 1748h15l275 -249l275 249h15l-289 -262h-2z" glyph-name="Rcaron" horiz-adv-x="1308" unicode="Ř"/><glyph d="M524 928c66 0 131 -14 181 -45l-6 -8c-48 29 -111 43 -175 43c-183 0 -313 -167 -313 -381v-537h-10v922h10v-284c34 167 152 290 313 290zM151 1332h15l275 -249l275 249h15l-289 -262h-2z" glyph-name="rcaron" horiz-adv-x="765" unicode="ř"/><glyph d="M1142 1247l-6 -8c-98 78 -258 156 -488 156c-266 0 -470 -129 -470 -355c0 -163 97 -291 397 -320l215 -21c273 -27 406 -128 406 -330c0 -259 -237 -374 -539 -374c-231 0 -417 92 -519 162l6 8c101 -69 284 -160 513 -160c296 0 529 111 529 364 c0 198 -133 294 -396 320l-215 21c-308 30 -407 162 -407 330c0 232 208 365 480 365c232 0 395 -79 494 -158zM587 1468h-13l251 300h13z" glyph-name="Sacute" horiz-adv-x="1334" unicode="Ś"/><glyph d="M807 817l-6 -8c-69 56 -196 108 -343 108c-182 0 -324 -84 -324 -232c0 -107 67 -190 274 -209l143 -13c181 -16 283 -87 283 -220c0 -172 -167 -248 -372 -248c-178 0 -286 57 -361 116l6 8c78 -62 186 -114 355 -114c199 0 362 72 362 238c0 124 -93 194 -273 210 l-143 13c-214 19 -284 108 -284 219c0 154 146 242 334 242c149 0 278 -53 349 -110zM403 1052h-13l251 300h13z" glyph-name="sacute" horiz-adv-x="935" unicode="ś"/><glyph d="M1142 1247l-6 -8c-98 78 -258 156 -488 156c-266 0 -470 -129 -470 -355c0 -163 97 -291 397 -320l215 -21c273 -27 406 -128 406 -330c0 -259 -237 -374 -539 -374c-231 0 -417 92 -519 162l6 8c101 -69 284 -160 513 -160c296 0 529 111 529 364 c0 198 -133 294 -396 320l-215 21c-308 30 -407 162 -407 330c0 232 208 365 480 365c232 0 395 -79 494 -158zM966 1492h-15l-275 249l-275 -249h-15l289 262h2z" glyph-name="Scircumflex" horiz-adv-x="1334" unicode="Ŝ"/><glyph d="M807 817l-6 -8c-69 56 -196 108 -343 108c-182 0 -324 -84 -324 -232c0 -107 67 -190 274 -209l143 -13c181 -16 283 -87 283 -220c0 -172 -167 -248 -372 -248c-178 0 -286 57 -361 116l6 8c78 -62 186 -114 355 -114c199 0 362 72 362 238c0 124 -93 194 -273 210 l-143 13c-214 19 -284 108 -284 219c0 154 146 242 334 242c149 0 278 -53 349 -110zM762 1076h-15l-275 249l-275 -249h-15l289 262h2z" glyph-name="scircumflex" horiz-adv-x="935" unicode="ŝ"/><glyph d="M1142 1247l-6 -8c-98 78 -258 156 -488 156c-266 0 -470 -129 -470 -355c0 -163 97 -291 397 -320l215 -21c273 -27 406 -128 406 -330c0 -245 -211 -361 -488 -373l-101 -322h-11l101 322c-13 -1 -27 -1 -40 -1c-231 0 -417 92 -519 162l6 8c101 -69 284 -160 513 -160 c296 0 529 111 529 364c0 198 -133 294 -396 320l-215 21c-308 30 -407 162 -407 330c0 232 208 365 480 365c232 0 395 -79 494 -158z" glyph-name="Scedilla" horiz-adv-x="1334" unicode="Ş"/><glyph d="M807 817l-6 -8c-69 56 -196 108 -343 108c-182 0 -324 -84 -324 -232c0 -107 67 -190 274 -209l143 -13c181 -16 283 -87 283 -220c0 -161 -146 -238 -333 -247l-101 -322h-11l101 321h-28c-178 0 -286 57 -361 116l6 8c78 -62 186 -114 355 -114c199 0 362 72 362 238 c0 124 -93 194 -273 210l-143 13c-214 19 -284 108 -284 219c0 154 146 242 334 242c149 0 278 -53 349 -110z" glyph-name="scedilla" horiz-adv-x="935" unicode="ş"/><glyph d="M1142 1247l-6 -8c-98 78 -258 156 -488 156c-266 0 -470 -129 -470 -355c0 -163 97 -291 397 -320l215 -21c273 -27 406 -128 406 -330c0 -259 -237 -374 -539 -374c-231 0 -417 92 -519 162l6 8c101 -69 284 -160 513 -160c296 0 529 111 529 364 c0 198 -133 294 -396 320l-215 21c-308 30 -407 162 -407 330c0 232 208 365 480 365c232 0 395 -79 494 -158zM386 1748h15l275 -249l275 249h15l-289 -262h-2z" glyph-name="Scaron" horiz-adv-x="1334" unicode="Š"/><glyph d="M807 817l-6 -8c-69 56 -196 108 -343 108c-182 0 -324 -84 -324 -232c0 -107 67 -190 274 -209l143 -13c181 -16 283 -87 283 -220c0 -172 -167 -248 -372 -248c-178 0 -286 57 -361 116l6 8c78 -62 186 -114 355 -114c199 0 362 72 362 238c0 124 -93 194 -273 210 l-143 13c-214 19 -284 108 -284 219c0 154 146 242 334 242c149 0 278 -53 349 -110zM182 1332h15l275 -249l275 249h15l-289 -262h-2z" glyph-name="scaron" horiz-adv-x="935" unicode="š"/><glyph d="M1176 1400v-10h-560v-1390l-104 -326h-11l105 326v1390h-560v10h1130z" glyph-name="Tcommaaccent" horiz-adv-x="1222" unicode="Ţ"/><glyph d="M820 922v-10h-505v-617c0 -192 101 -290 270 -290c103 0 188 32 243 89l8 -6c-55 -57 -139 -91 -241 -93l-101 -321h-11l101 321c-173 1 -279 101 -279 300v617h-245v10h245v326h10v-326h505z" glyph-name="tcommaaccent" horiz-adv-x="902" unicode="ţ"/><glyph d="M1176 1400v-10h-560v-1390h-10v1390h-560v10h1130zM321 1748h15l275 -249l275 249h15l-289 -262h-2z" glyph-name="Tcaron" horiz-adv-x="1222" unicode="Ť"/><glyph d="M820 922v-10h-505v-617c0 -192 101 -290 270 -290c103 0 188 32 243 89l8 -6c-57 -59 -144 -93 -251 -93c-173 0 -280 101 -280 300v617h-245v10h245v326h10v-326h505zM525 1052h-10l22 388h10z" glyph-name="tcaron" horiz-adv-x="902" unicode="ť"/><glyph d="M1016 710v-10h-400v-700h-10v700h-400v10h400v680h-560v10h1130v-10h-560v-680h400z" glyph-name="Tbar" horiz-adv-x="1222" unicode="Ŧ"/><glyph d="M820 922v-10h-505v-367h378v-10h-378v-240c0 -192 101 -290 270 -290c103 0 188 32 243 89l8 -6c-57 -59 -144 -93 -251 -93c-173 0 -280 101 -280 300v240h-232v10h232v367h-245v10h245v326h10v-326h505z" glyph-name="tbar" horiz-adv-x="902" unicode="ŧ"/><glyph d="M1279 1400v-862c0 -358 -241 -543 -536 -543c-296 0 -536 185 -536 543v862h10v-862c0 -352 235 -533 526 -533c290 0 526 181 526 533v862h10zM446 1576l-8 6c44 69 92 108 171 108c132 0 140 -106 268 -106c75 0 119 35 163 104l8 -6c-44 -69 -92 -108 -171 -108 c-132 0 -140 106 -268 106c-75 0 -119 -35 -163 -104z" glyph-name="Utilde" horiz-adv-x="1486" unicode="Ũ"/><glyph d="M985 922v-551c0 -226 -159 -376 -398 -376s-398 150 -398 376v551h10v-551c0 -220 154 -366 388 -366s388 146 388 366v551h10zM310 1160l-8 6c44 69 92 108 171 108c132 0 140 -106 268 -106c75 0 119 35 163 104l8 -6c-44 -69 -92 -108 -171 -108 c-132 0 -140 106 -268 106c-75 0 -119 -35 -163 -104z" glyph-name="utilde" horiz-adv-x="1174" unicode="ũ"/><glyph d="M1279 1400v-862c0 -358 -241 -543 -536 -543c-296 0 -536 185 -536 543v862h10v-862c0 -352 235 -533 526 -533c290 0 526 181 526 533v862h10zM470 1613v10h547v-10h-547z" glyph-name="Umacron" horiz-adv-x="1486" unicode="Ū"/><glyph d="M985 922v-551c0 -226 -159 -376 -398 -376s-398 150 -398 376v551h10v-551c0 -220 154 -366 388 -366s388 146 388 366v551h10zM314 1197v10h547v-10h-547z" glyph-name="umacron" horiz-adv-x="1174" unicode="ū"/><glyph d="M1279 1400v-862c0 -358 -241 -543 -536 -543c-296 0 -536 185 -536 543v862h10v-862c0 -352 235 -533 526 -533c290 0 526 181 526 533v862h10zM465 1742l10 2c34 -150 133 -231 268 -231s233 81 268 231l10 -2c-36 -154 -139 -239 -278 -239s-243 85 -278 239z" glyph-name="Ubreve" horiz-adv-x="1486" unicode="Ŭ"/><glyph d="M985 922v-551c0 -226 -159 -376 -398 -376s-398 150 -398 376v551h10v-551c0 -220 154 -366 388 -366s388 146 388 366v551h10zM309 1326l10 2c34 -150 133 -231 268 -231s233 81 268 231l10 -2c-36 -154 -139 -239 -278 -239s-243 85 -278 239z" glyph-name="ubreve" horiz-adv-x="1174" unicode="ŭ"/><glyph d="M1279 1400v-862c0 -358 -241 -543 -536 -543c-296 0 -536 185 -536 543v862h10v-862c0 -352 235 -533 526 -533c290 0 526 181 526 533v862h10zM743 1463c-98 0 -179 81 -179 179s81 179 179 179s179 -81 179 -179s-81 -179 -179 -179zM743 1473c94 0 169 75 169 169 s-75 169 -169 169s-169 -75 -169 -169s75 -169 169 -169z" glyph-name="Uring" horiz-adv-x="1486" unicode="Ů"/><glyph d="M985 922v-551c0 -226 -159 -376 -398 -376s-398 150 -398 376v551h10v-551c0 -220 154 -366 388 -366s388 146 388 366v551h10zM587 1047c-98 0 -179 81 -179 179s81 179 179 179s179 -81 179 -179s-81 -179 -179 -179zM587 1057c94 0 169 75 169 169s-75 169 -169 169 s-169 -75 -169 -169s75 -169 169 -169z" glyph-name="uring" horiz-adv-x="1174" unicode="ů"/><glyph d="M1279 1400v-862c0 -358 -241 -543 -536 -543c-296 0 -536 185 -536 543v862h10v-862c0 -352 235 -533 526 -533c290 0 526 181 526 533v862h10zM884 1468h-13l251 300h13zM544 1468h-13l251 300h13z" glyph-name="Uhungarumlaut" horiz-adv-x="1486" unicode="Ű"/><glyph d="M985 922v-551c0 -226 -159 -376 -398 -376s-398 150 -398 376v551h10v-551c0 -220 154 -366 388 -366s388 146 388 366v551h10zM738 1052h-13l251 300h13zM398 1052h-13l251 300h13z" glyph-name="uhungarumlaut" horiz-adv-x="1174" unicode="ű"/><glyph d="M1107 -316l8 -6c-51 -54 -118 -83 -191 -83c-113 0 -194 69 -194 171c0 118 96 191 221 264c-64 -23 -134 -35 -208 -35c-296 0 -536 185 -536 543v862h10v-862c0 -352 235 -533 526 -533c290 0 526 181 526 533v862h10v-862c0 -241 -104 -395 -266 -484 c-149 -82 -273 -159 -273 -288c0 -97 77 -161 184 -161c69 0 134 27 183 79z" glyph-name="Uogonek" horiz-adv-x="1486" unicode="Ų"/><glyph d="M914 -316l8 -6c-51 -54 -118 -83 -191 -83c-113 0 -194 69 -194 171c0 112 84 182 198 251c-42 -14 -93 -22 -148 -22c-239 0 -398 150 -398 376v551h10v-551c0 -220 154 -366 388 -366s388 146 388 366v551h10v-551c0 -153 -67 -261 -183 -326 c-137 -76 -255 -158 -255 -279c0 -97 77 -161 184 -161c69 0 134 27 183 79z" glyph-name="uogonek" horiz-adv-x="1174" unicode="ų"/><glyph d="M2154 1400l-520 -1405h-8l-509 1392l-509 -1392h-8l-520 1405h11l513 -1388l509 1393h8l509 -1393l513 1388h11zM1407 1492h-15l-275 249l-275 -249h-15l289 262h2z" glyph-name="Wcircumflex" horiz-adv-x="2234" unicode="Ŵ"/><glyph d="M896 922l387 -910l419 910h11l-425 -922h-10l-387 908l-387 -908h-10l-425 922h11l419 -910l387 910h10zM1181 1076h-15l-275 249l-275 -249h-15l289 262h2z" glyph-name="wcircumflex" horiz-adv-x="1782" unicode="ŵ"/><glyph d="M1177 1400l-576 -753v-647h-10v647l-576 753h13l568 -743l568 743h13zM887 1492h-15l-275 249l-275 -249h-15l289 262h2z" glyph-name="Ycircumflex" horiz-adv-x="1192" unicode="Ŷ"/><glyph d="M930 922l-804 -1322h-12l380 625l-462 697h12l456 -687l418 687h12zM771 1076h-15l-275 249l-275 -249h-15l289 262h2z" glyph-name="ycircumflex" horiz-adv-x="953" unicode="ŷ"/><glyph d="M1177 1400l-576 -753v-647h-10v647l-576 753h13l568 -743l568 743h13zM392 1669v-114h-10v114h10zM812 1669v-114h-10v114h10z" glyph-name="Ydieresis" horiz-adv-x="1192" unicode="Ÿ"/><glyph d="M1219 1400v-6l-1067 -1384h1075v-10h-1089v8l1066 1382h-1037v10h1052zM604 1468h-13l251 300h13z" glyph-name="Zacute" horiz-adv-x="1365" unicode="Ź"/><glyph d="M947 922v-9l-791 -903h798v-10h-813v8l792 904h-769v10h783zM487 1052h-13l251 300h13z" glyph-name="zacute" horiz-adv-x="1095" unicode="ź"/><glyph d="M1219 1400v-6l-1067 -1384h1075v-10h-1089v8l1066 1382h-1037v10h1052zM698 1669v-114h-10v114h10z" glyph-name="Zdotaccent" horiz-adv-x="1365" unicode="Ż"/><glyph d="M947 922v-9l-791 -903h798v-10h-813v8l792 904h-769v10h783zM561 1320v-114h-10v114h10z" glyph-name="zdotaccent" horiz-adv-x="1095" unicode="ż"/><glyph d="M1219 1400v-6l-1067 -1384h1075v-10h-1089v8l1066 1382h-1037v10h1052zM403 1748h15l275 -249l275 249h15l-289 -262h-2z" glyph-name="Zcaron" horiz-adv-x="1365" unicode="Ž"/><glyph d="M947 922v-9l-791 -903h798v-10h-813v8l792 904h-769v10h783zM266 1332h15l275 -249l275 249h15l-289 -262h-2z" glyph-name="zcaron" horiz-adv-x="1095" unicode="ž"/><glyph d="M491 1445c95 0 182 -30 240 -69l-6 -8c-56 37 -141 67 -234 67c-215 0 -290 -133 -290 -350v-1085h-10v1085c0 223 77 360 300 360z" glyph-name="longs" horiz-adv-x="671" unicode="ſ"/><glyph d="M797 1405c386 0 700 -282 700 -705s-306 -705 -680 -705c-387 0 -679 282 -679 705v10h1349c-5 411 -313 685 -690 685c-215 0 -408 -95 -535 -249l-8 6c129 156 325 253 543 253zM817 5c369 0 670 278 670 695h-1339c0 -417 288 -695 669 -695z" glyph-name="uni018F" horiz-adv-x="1635" unicode="Ə"/><glyph d="M1073 730v-10h-363l-42 -435c-16 -169 -108 -290 -247 -290c-78 0 -150 31 -198 69l6 8c47 -38 116 -67 192 -67c134 0 221 115 237 280l42 435h-317v10h318l37 385c16 169 109 290 247 290c78 0 151 -31 198 -69l-6 -8c-46 38 -116 67 -192 67 c-133 0 -221 -115 -237 -280l-37 -385h362z" glyph-name="florin" horiz-adv-x="1400" unicode="ƒ"/><glyph d="M1083 710v-10h-399l-532 -690h1075v-10h-1089v8l534 692h-389v10h396l525 680h-1037v10h1052v-6l-528 -684h392z" glyph-name="uni01B5" horiz-adv-x="1365" unicode="Ƶ"/><glyph d="M854 475v-10h-300l-398 -455h798v-10h-813v8l400 457h-280v10h289l383 437h-769v10h783v-9l-384 -438h291z" glyph-name="uni01B6" horiz-adv-x="1095" unicode="ƶ"/><glyph d="M684 1405l626 -1405h-11l-207 465h-824l-207 -465h-11l626 1405h8zM680 1389l-408 -914h815zM390 1748h15l275 -249l275 249h15l-289 -262h-2z" glyph-name="uni01CD" horiz-adv-x="1360" unicode="Ǎ"/><glyph d="M1040 922v-922h-10v360c-44 -214 -223 -365 -449 -365c-261 0 -461 200 -461 466s200 466 461 466c226 0 405 -151 449 -365v360h10zM581 917c-256 0 -451 -196 -451 -456s195 -456 451 -456c255 0 449 196 449 456s-194 456 -449 456zM301 1332h15l275 -249l275 249h15 l-289 -262h-2z" glyph-name="uni01CE" horiz-adv-x="1241" unicode="ǎ"/><glyph d="M240 1400v-1400h-10v1400h10zM-55 1748h15l275 -249l275 249h15l-289 -262h-2z" glyph-name="uni01CF" horiz-adv-x="470" unicode="Ǐ"/><glyph d="M211 922v-922h-10v922h10zM-84 1332h15l275 -249l275 249h15l-289 -262h-2z" glyph-name="uni01D0" horiz-adv-x="412" unicode="ǐ"/><glyph d="M838 1405c386 0 700 -282 700 -705s-314 -705 -700 -705s-700 282 -700 705s314 705 700 705zM838 1395c-381 0 -690 -278 -690 -695s309 -695 690 -695s690 278 690 695s-309 695 -690 695zM548 1748h15l275 -249l275 249h15l-289 -262h-2z" glyph-name="uni01D1" horiz-adv-x="1676" unicode="Ǒ"/><glyph d="M579 927c261 0 461 -200 461 -466s-200 -466 -461 -466c-260 0 -459 200 -459 466s199 466 459 466zM579 917c-255 0 -449 -196 -449 -456s194 -456 449 -456c256 0 451 196 451 456s-195 456 -451 456zM290 1332h15l275 -249l275 249h15l-289 -262h-2z" glyph-name="uni01D2" horiz-adv-x="1160" unicode="ǒ"/><glyph d="M1279 1400v-862c0 -358 -241 -543 -536 -543c-296 0 -536 185 -536 543v862h10v-862c0 -352 235 -533 526 -533c290 0 526 181 526 533v862h10zM453 1748h15l275 -249l275 249h15l-289 -262h-2z" glyph-name="uni01D3" horiz-adv-x="1486" unicode="Ǔ"/><glyph d="M985 922v-551c0 -226 -159 -376 -398 -376s-398 150 -398 376v551h10v-551c0 -220 154 -366 388 -366s388 146 388 366v551h10zM297 1332h15l275 -249l275 249h15l-289 -262h-2z" glyph-name="uni01D4" horiz-adv-x="1174" unicode="ǔ"/><glyph d="M1279 1400v-862c0 -358 -241 -543 -536 -543c-296 0 -536 185 -536 543v862h10v-862c0 -352 235 -533 526 -533c290 0 526 181 526 533v862h10zM470 1873v10h547v-10h-547zM538 1669v-114h-10v114h10zM958 1669v-114h-10v114h10z" glyph-name="uni01D5" horiz-adv-x="1486" unicode="Ǖ"/><glyph d="M985 922v-551c0 -226 -159 -376 -398 -376s-398 150 -398 376v551h10v-551c0 -220 154 -366 388 -366s388 146 388 366v551h10zM382 1320v-114h-10v114h10zM802 1320v-114h-10v114h10zM314 1497v10h547v-10h-547z" glyph-name="uni01D6" horiz-adv-x="1174" unicode="ǖ"/><glyph d="M1279 1400v-862c0 -358 -241 -543 -536 -543c-296 0 -536 185 -536 543v862h10v-862c0 -352 235 -533 526 -533c290 0 526 181 526 533v862h10zM654 1828h-13l251 300h13zM538 1669v-114h-10v114h10zM958 1669v-114h-10v114h10z" glyph-name="uni01D7" horiz-adv-x="1486" unicode="Ǘ"/><glyph d="M985 922v-551c0 -226 -159 -376 -398 -376s-398 150 -398 376v551h10v-551c0 -220 154 -366 388 -366s388 146 388 366v551h10zM382 1320v-114h-10v114h10zM802 1320v-114h-10v114h10zM498 1452h-13l251 300h13z" glyph-name="uni01D8" horiz-adv-x="1174" unicode="ǘ"/><glyph d="M1279 1400v-862c0 -358 -241 -543 -536 -543c-296 0 -536 185 -536 543v862h10v-862c0 -352 235 -533 526 -533c290 0 526 181 526 533v862h10zM453 2108h15l275 -249l275 249h15l-289 -262h-2zM538 1669v-114h-10v114h10zM958 1669v-114h-10v114h10z" glyph-name="uni01D9" horiz-adv-x="1486" unicode="Ǚ"/><glyph d="M985 922v-551c0 -226 -159 -376 -398 -376s-398 150 -398 376v551h10v-551c0 -220 154 -366 388 -366s388 146 388 366v551h10zM382 1320v-114h-10v114h10zM802 1320v-114h-10v114h10zM297 1732h15l275 -249l275 249h15l-289 -262h-2z" glyph-name="uni01DA" horiz-adv-x="1174" unicode="ǚ"/><glyph d="M1279 1400v-862c0 -358 -241 -543 -536 -543c-296 0 -536 185 -536 543v862h10v-862c0 -352 235 -533 526 -533c290 0 526 181 526 533v862h10zM832 1828l-251 300h13l251 -300h-13zM538 1669v-114h-10v114h10zM958 1669v-114h-10v114h10z" glyph-name="uni01DB" horiz-adv-x="1486" unicode="Ǜ"/><glyph d="M985 922v-551c0 -226 -159 -376 -398 -376s-398 150 -398 376v551h10v-551c0 -220 154 -366 388 -366s388 146 388 366v551h10zM382 1320v-114h-10v114h10zM802 1320v-114h-10v114h10zM676 1452l-251 300h13l251 -300h-13z" glyph-name="uni01DC" horiz-adv-x="1174" unicode="ǜ"/><glyph d="M2023 10v-10h-901v465h-712l-358 -465h-12l1079 1400h904v-10h-891v-680h871v-10h-871v-690h891zM418 475h704v913zM1211 1613v10h547v-10h-547z" glyph-name="uni01E2" horiz-adv-x="2207" unicode="Ǣ"/><glyph d="M1331 927c232 0 421 -193 427 -456v-6h-872v-5c0 -263 185 -455 442 -455c173 0 287 73 373 174l7 -7c-120 -143 -256 -177 -380 -177c-186 0 -334 96 -406 250c-89 -145 -264 -250 -452 -250c-208 0 -350 91 -350 240s123 240 387 240h369v91c0 262 -157 351 -362 351 c-150 0 -253 -53 -326 -113l-6 8c73 60 180 115 332 115c209 0 372 -93 372 -361v-5c45 215 228 366 445 366zM1331 917c-240 0 -437 -189 -445 -442h862c-7 253 -192 442 -417 442zM470 5c186 0 361 105 447 251c-26 61 -41 130 -41 204v5h-369c-258 0 -377 -88 -377 -230 s137 -230 340 -230zM641 1197v10h547v-10h-547z" glyph-name="uni01E3" horiz-adv-x="1878" unicode="ǣ"/><glyph d="M838 1405c218 0 414 -97 543 -253l-8 -6c-127 154 -321 249 -535 249c-380 0 -690 -278 -690 -695s310 -695 690 -695c389 0 649 278 649 695h-586v10h596v-10c0 -422 -264 -705 -659 -705c-386 0 -700 283 -700 705s314 705 700 705zM536 1748h15l275 -249l275 249h15 l-289 -262h-2z" glyph-name="Gcaron" horiz-adv-x="1635" unicode="Ǧ"/><glyph d="M579 927c227 0 407 -151 451 -365v360h10v-861c0 -327 -240 -466 -471 -466c-168 0 -307 65 -392 163l8 6c83 -96 220 -159 384 -159c227 0 461 136 461 456v299c-44 -214 -224 -365 -451 -365c-260 0 -459 200 -459 466s199 466 459 466zM579 917 c-255 0 -449 -196 -449 -456s194 -456 449 -456c256 0 451 196 451 456s-195 456 -451 456zM300 1332h15l275 -249l275 249h15l-289 -262h-2z" glyph-name="gcaron" horiz-adv-x="1241" unicode="ǧ"/><glyph d="M61 0h-11l623 1399c-95 3 -172 83 -172 179c0 98 81 179 179 179s179 -81 179 -179c0 -96 -78 -176 -173 -179l624 -1399h-11l-207 465h-824zM680 1389l-408 -914h815zM680 1409c94 0 169 75 169 169s-75 169 -169 169s-169 -75 -169 -169s75 -169 169 -169zM591 1798 h-13l251 300h13z" glyph-name="Aringacute" horiz-adv-x="1360" unicode="Ǻ"/><glyph d="M1040 922v-922h-10v360c-44 -214 -223 -365 -449 -365c-261 0 -461 200 -461 466s200 466 461 466c226 0 405 -151 449 -365v360h10zM581 917c-256 0 -451 -196 -451 -456s195 -456 451 -456c255 0 449 196 449 456s-194 456 -449 456zM551 1027c-98 0 -179 81 -179 179 s81 179 179 179s179 -81 179 -179s-81 -179 -179 -179zM551 1037c94 0 169 75 169 169s-75 169 -169 169s-169 -75 -169 -169s75 -169 169 -169zM462 1450h-13l251 300h13z" glyph-name="aringacute" horiz-adv-x="1241" unicode="ǻ"/><glyph d="M2023 10v-10h-901v465h-712l-358 -465h-12l1079 1400h904v-10h-891v-680h871v-10h-871v-690h891zM418 475h704v913zM1395 1468h-13l251 300h13z" glyph-name="AEacute" horiz-adv-x="2207" unicode="Ǽ"/><glyph d="M1331 927c232 0 421 -193 427 -456v-6h-872v-5c0 -263 185 -455 442 -455c173 0 287 73 373 174l7 -7c-120 -143 -256 -177 -380 -177c-186 0 -334 96 -406 250c-89 -145 -264 -250 -452 -250c-208 0 -350 91 -350 240s123 240 387 240h369v91c0 262 -157 351 -362 351 c-150 0 -253 -53 -326 -113l-6 8c73 60 180 115 332 115c209 0 372 -93 372 -361v-5c45 215 228 366 445 366zM1331 917c-240 0 -437 -189 -445 -442h862c-7 253 -192 442 -417 442zM470 5c186 0 361 105 447 251c-26 61 -41 130 -41 204v5h-369c-258 0 -377 -88 -377 -230 s137 -230 340 -230zM845 1052h-13l251 300h13z" glyph-name="aeacute" horiz-adv-x="1878" unicode="ǽ"/><glyph d="M838 1405c195 0 372 -73 499 -199l197 198l8 -7l-198 -198c120 -122 194 -294 194 -499c0 -423 -314 -705 -700 -705c-196 0 -373 71 -500 198l-196 -196l-8 7l197 196c-119 123 -193 295 -193 500c0 423 314 705 700 705zM1528 700c0 202 -73 371 -191 492l-992 -992 c125 -124 300 -195 493 -195c381 0 690 278 690 695zM838 1395c-381 0 -690 -278 -690 -695c0 -202 72 -372 190 -493l992 992c-125 124 -300 196 -492 196zM749 1468h-13l251 300h13z" glyph-name="Oslashacute" horiz-adv-x="1676" unicode="Ǿ"/><glyph d="M579 927c130 0 244 -50 327 -132l134 134l8 -7l-135 -134c79 -83 127 -198 127 -327c0 -266 -200 -466 -461 -466c-130 0 -244 49 -326 132l-133 -133l-8 7l134 133c-79 83 -126 197 -126 327c0 266 199 466 459 466zM1030 461c0 127 -47 239 -124 320l-646 -647 c80 -81 192 -129 319 -129c256 0 451 196 451 456zM579 917c-255 0 -449 -196 -449 -456c0 -127 46 -239 123 -320l646 647c-81 80 -193 129 -320 129zM510 1052h-13l251 300h13z" glyph-name="oslashacute" horiz-adv-x="1160" unicode="ǿ"/><glyph d="M1142 1247l-6 -8c-98 78 -258 156 -488 156c-266 0 -470 -129 -470 -355c0 -163 97 -291 397 -320l215 -21c273 -27 406 -128 406 -330c0 -259 -237 -374 -539 -374c-231 0 -417 92 -519 162l6 8c101 -69 284 -160 513 -160c296 0 529 111 529 364 c0 198 -133 294 -396 320l-215 21c-308 30 -407 162 -407 330c0 232 208 365 480 365c232 0 395 -79 494 -158zM727 -90h10l-52 -310h-10z" glyph-name="Scommaaccent" horiz-adv-x="1334" unicode="Ș"/><glyph d="M807 817l-6 -8c-69 56 -196 108 -343 108c-182 0 -324 -84 -324 -232c0 -107 67 -190 274 -209l143 -13c181 -16 283 -87 283 -220c0 -172 -167 -248 -372 -248c-178 0 -286 57 -361 116l6 8c78 -62 186 -114 355 -114c199 0 362 72 362 238c0 124 -93 194 -273 210 l-143 13c-214 19 -284 108 -284 219c0 154 146 242 334 242c149 0 278 -53 349 -110zM484 -90h10l-52 -310h-10z" glyph-name="scommaaccent" horiz-adv-x="935" unicode="ș"/><glyph d="M1176 1400v-10h-560v-1390h-10v1390h-560v10h1130zM632 -90h10l-52 -310h-10z" glyph-name="uni021A" horiz-adv-x="1222" unicode="Ț"/><glyph d="M820 922v-10h-505v-617c0 -192 101 -290 270 -290c103 0 188 32 243 89l8 -6c-57 -59 -144 -93 -251 -93c-173 0 -280 101 -280 300v617h-245v10h245v326h10v-326h505zM578 -90h10l-52 -310h-10z" glyph-name="uni021B" horiz-adv-x="902" unicode="ț"/><glyph d="M1177 1400l-576 -753v-647h-10v647l-576 753h13l568 -743l568 743h13zM324 1613v10h547v-10h-547z" glyph-name="uni0232" horiz-adv-x="1192" unicode="Ȳ"/><glyph d="M930 922l-804 -1322h-12l380 625l-462 697h12l456 -687l418 687h12zM208 1197v10h547v-10h-547z" glyph-name="uni0233" horiz-adv-x="953" unicode="ȳ"/><glyph d="M211 922v-1165c0 -103 -38 -162 -132 -162c-48 0 -89 18 -115 37l6 8c25 -19 65 -35 109 -35c87 0 122 53 122 152v1165h10z" glyph-name="uni0237" horiz-adv-x="412" unicode="ȷ"/><glyph d="M547 -5c-232 0 -421 193 -427 456v6h872v5c0 263 -187 455 -445 455c-173 0 -281 -70 -370 -174l-7 7c121 143 252 177 377 177c263 0 455 -196 455 -465c0 -267 -205 -467 -455 -467zM547 5c241 0 437 189 445 442h-862c7 -254 191 -442 417 -442z" glyph-name="uni0259" horiz-adv-x="1122" unicode="ə"/><glyph d="M210 1022h-10l70 418h10z" glyph-name="uni02BB" horiz-adv-x="470" unicode="ʻ"/><glyph d="M260 1440h10l-70 -418h-10z" glyph-name="afii57929" horiz-adv-x="470" unicode="ʼ"/><glyph d="M161 866v10c156 0 280 124 280 279c0 156 -124 280 -280 280v10c160 0 290 -130 290 -290c0 -159 -130 -289 -290 -289z" glyph-name="uni02BE" horiz-adv-x="506" unicode="ʾ"/><glyph d="M345 1445v-10c-156 0 -280 -124 -280 -279c0 -156 124 -280 280 -280v-10c-160 0 -290 130 -290 290c0 159 130 289 290 289z" glyph-name="uni02BF" horiz-adv-x="506" unicode="ʿ"/><glyph d="M690 1076h-15l-275 249l-275 -249h-15l289 262h2z" glyph-name="circumflex" horiz-adv-x="800" unicode="ˆ"/><glyph d="M110 1332h15l275 -249l275 249h15l-289 -262h-2z" glyph-name="caron" horiz-adv-x="800" unicode="ˇ"/><glyph d="M122 1326l10 2c34 -150 133 -231 268 -231s234 81 268 231l10 -2c-36 -154 -139 -239 -278 -239s-242 85 -278 239z" glyph-name="breve" horiz-adv-x="800" unicode="˘"/><glyph d="M211 1320v-114h-10v114h10z" glyph-name="dotaccent" horiz-adv-x="412" unicode="˙"/><glyph d="M400 1047c-98 0 -179 81 -179 179s81 179 179 179s179 -81 179 -179s-81 -179 -179 -179zM400 1057c94 0 169 75 169 169s-75 169 -169 169s-169 -75 -169 -169s75 -169 169 -169z" glyph-name="ring" horiz-adv-x="800" unicode="˚"/><glyph d="M735 -316l8 -6c-51 -54 -118 -83 -191 -83c-113 0 -194 69 -194 171c0 136 125 209 283 299l3 -7c-154 -90 -276 -163 -276 -292c0 -97 77 -161 184 -161c69 0 134 27 183 79z" glyph-name="ogonek" horiz-adv-x="1042" unicode="˛"/><glyph d="M103 1160l-8 6c44 69 92 108 171 108c132 0 140 -106 268 -106c75 0 119 35 163 104l8 -6c-44 -69 -92 -108 -171 -108c-132 0 -140 106 -268 106c-75 0 -119 -35 -163 -104z" glyph-name="tilde" horiz-adv-x="800" unicode="˜"/><glyph d="M451 1052h-13l251 300h13zM111 1052h-13l251 300h13z" glyph-name="hungarumlaut" horiz-adv-x="800" unicode="˝"/><glyph d="M-521 1052l-251 300h13l251 -300h-13z" glyph-name="gravecomb" unicode="̀"/><glyph d="M-649 1052h-13l251 300h13z" glyph-name="acutecomb" unicode="́"/><glyph d="M-290 1076h-15l-275 249l-275 -249h-15l289 262h2z" glyph-name="uni0302" unicode="̂"/><glyph d="M-857 1160l-8 6c44 69 92 108 171 108c132 0 140 -106 268 -106c75 0 119 35 163 104l8 -6c-44 -69 -92 -108 -171 -108c-132 0 -140 106 -268 106c-75 0 -119 -35 -163 -104z" glyph-name="tildecomb" unicode="̃"/><glyph d="M-853 1197v10h547v-10h-547z" glyph-name="uni0304" unicode="̄"/><glyph d="M-858 1326l10 2c34 -150 133 -231 268 -231s233 81 268 231l10 -2c-36 -154 -139 -239 -278 -239s-243 85 -278 239z" glyph-name="uni0306" unicode="̆"/><glyph d="M-575 1320v-114h-10v114h10z" glyph-name="uni0307" unicode="̇"/><glyph d="M-785 1320v-114h-10v114h10zM-365 1320v-114h-10v114h10z" glyph-name="uni0308" unicode="̈"/><glyph d="M-580 1047c-98 0 -179 81 -179 179s81 179 179 179s179 -81 179 -179s-81 -179 -179 -179zM-580 1057c94 0 169 75 169 169s-75 169 -169 169s-169 -75 -169 -169s75 -169 169 -169z" glyph-name="uni030A" unicode="̊"/><glyph d="M-429 1052h-13l251 300h13zM-769 1052h-13l251 300h13z" glyph-name="uni030B" unicode="̋"/><glyph d="M-870 1332h15l275 -249l275 249h15l-289 -262h-2z" glyph-name="uni030C" unicode="̌"/><glyph d="M-585 1052h-10l52 310h10z" glyph-name="uni0312" unicode="̒"/><glyph d="M-574 -200v-114h-10v114h10z" glyph-name="dotbelowcomb" unicode="̣"/><glyph d="M-558 -90h10l-52 -310h-10z" glyph-name="uni0326" unicode="̦"/><glyph d="M-522 2l-103 -328h-11l104 330z" glyph-name="uni0327" unicode="̧"/><glyph d="M-394 -316l8 -6c-51 -54 -118 -83 -191 -83c-113 0 -194 69 -194 171c0 136 125 209 283 299l3 -7c-154 -90 -276 -163 -276 -292c0 -97 77 -161 184 -161c69 0 134 27 183 79z" glyph-name="uni0328" unicode="̨"/><glyph d="M-857 -144l10 2c34 -150 133 -231 268 -231s233 81 268 231l10 -2c-36 -154 -139 -239 -278 -239s-243 85 -278 239z" glyph-name="uni032E" unicode="̮"/><glyph d="M-852 -263v10h547v-10h-547z" glyph-name="uni0331" unicode="̱"/><glyph d="M-235 525v-10h-690v10h690z" glyph-name="uni0335" unicode="̵"/><glyph d="M165 525v-10h-1490v10h1490z" glyph-name="uni0336" unicode="̶"/><glyph d="M723 1405l625 -1397v-8h-1256v8l625 1397h6zM720 1388l-616 -1378h1232z" glyph-name="uni0394" horiz-adv-x="1440" unicode="Δ"/><glyph d="M92 10h511c-260 97 -446 344 -446 675c0 431 315 720 700 720s700 -289 700 -720c0 -331 -186 -578 -446 -675h511v-10h-547v8c274 87 472 335 472 677c0 427 -309 710 -690 710s-690 -283 -690 -710c0 -342 198 -590 472 -677v-8h-547v10z" glyph-name="uni03A9" horiz-adv-x="1714" unicode="Ω"/><glyph d="M199 -400h-10v1322h10v-551c0 -222 140 -366 388 -366c220 0 388 164 388 376v541h10v-922h-10v293c-39 -173 -194 -298 -388 -298c-204 0 -350 98 -388 277v-672z" glyph-name="uni03BC" horiz-adv-x="1186" unicode="μ"/><glyph d="M997 922v-922h-10v912h-776v-912h-10v922h796z" glyph-name="pi" horiz-adv-x="1186" unicode="π"/><glyph d="M230 1400h461c498 0 791 -261 791 -700s-293 -700 -791 -700h-461v1400zM691 1390h-451v-1380h451c493 0 781 257 781 690s-288 690 -781 690zM750 -200v-114h-10v114h10z" glyph-name="uni1E0C" horiz-adv-x="1620" unicode="Ḍ"/><glyph d="M581 927c226 0 405 -151 449 -365v878h10v-1440h-10v360c-44 -214 -223 -365 -449 -365c-261 0 -461 200 -461 466s200 466 461 466zM581 917c-256 0 -451 -196 -451 -456s195 -456 451 -456c255 0 449 196 449 456s-194 456 -449 456zM599 -200v-114h-10v114h10z" glyph-name="uni1E0D" horiz-adv-x="1241" unicode="ḍ"/><glyph d="M230 1400h461c498 0 791 -261 791 -700s-293 -700 -791 -700h-461v1400zM691 1390h-451v-1380h451c493 0 781 257 781 690s-288 690 -781 690zM472 -263v10h547v-10h-547z" glyph-name="uni1E0E" horiz-adv-x="1620" unicode="Ḏ"/><glyph d="M581 927c226 0 405 -151 449 -365v878h10v-1440h-10v360c-44 -214 -223 -365 -449 -365c-261 0 -461 200 -461 466s200 466 461 466zM581 917c-256 0 -451 -196 -451 -456s195 -456 451 -456c255 0 449 196 449 456s-194 456 -449 456zM320 -263v10h547v-10h-547z" glyph-name="uni1E0F" horiz-adv-x="1241" unicode="ḏ"/><glyph d="M240 1400v-690h1058v690h10v-1400h-10v700h-1058v-700h-10v1400h10zM774 -200v-114h-10v114h10z" glyph-name="uni1E24" horiz-adv-x="1538" unicode="Ḥ"/><glyph d="M211 1440v-811c39 173 194 298 388 298c239 0 398 -135 398 -376v-551h-10v551c0 222 -140 366 -388 366c-220 0 -388 -164 -388 -376v-541h-10v1440h10zM605 -200v-114h-10v114h10z" glyph-name="uni1E25" horiz-adv-x="1186" unicode="ḥ"/><glyph d="M240 1400v-690h1058v690h10v-1400h-10v700h-1058v-700l-103 -326h-11l104 326v1400h10z" glyph-name="uni1E28" horiz-adv-x="1538" unicode="Ḩ"/><glyph d="M211 1440v-811c39 173 194 298 388 298c239 0 398 -135 398 -376v-551h-10v551c0 222 -140 366 -388 366c-220 0 -388 -164 -388 -376v-541l-103 -326h-11l104 326v1440h10z" glyph-name="uni1E29" horiz-adv-x="1186" unicode="ḩ"/><glyph d="M240 1400v-690h1058v690h10v-1400h-10v700h-1058v-700h-10v1400h10zM491 -144l10 2c34 -150 133 -231 268 -231s233 81 268 231l10 -2c-36 -154 -139 -239 -278 -239s-243 85 -278 239z" glyph-name="uni1E2A" horiz-adv-x="1538" unicode="Ḫ"/><glyph d="M211 1440v-811c39 173 194 298 388 298c239 0 398 -135 398 -376v-551h-10v551c0 222 -140 366 -388 366c-220 0 -388 -164 -388 -376v-541h-10v1440h10zM321 -144l10 2c34 -150 133 -231 268 -231s233 81 268 231l10 -2c-36 -154 -139 -239 -278 -239s-243 85 -278 239z" glyph-name="uni1E2B" horiz-adv-x="1186" unicode="ḫ"/><glyph d="M1230 0l-759 699h-231v-699h-10v1400h10v-691h231l719 691h14l-724 -696l765 -704h-15zM653 -200v-114h-10v114h10z" glyph-name="uni1E32" horiz-adv-x="1305" unicode="Ḳ"/><glyph d="M211 1440v-949h194l494 431h15l-499 -436l511 -486h-14l-507 481h-194v-481h-10v1440h10zM543 -200v-114h-10v114h10z" glyph-name="uni1E33" horiz-adv-x="996" unicode="ḳ"/><glyph d="M1131 10v-10h-901v1400h10v-1390h891zM666 -200v-114h-10v114h10z" glyph-name="uni1E36" horiz-adv-x="1177" unicode="Ḷ"/><glyph d="M211 1440v-1440h-10v1440h10zM212 -200v-114h-10v114h10z" glyph-name="uni1E37" horiz-adv-x="412" unicode="ḷ"/><glyph d="M1131 10v-10h-901v1400h10v-1390h891zM666 -200v-114h-10v114h10zM-38 1613v10h547v-10h-547z" glyph-name="uni1E38" horiz-adv-x="1177" unicode="Ḹ"/><glyph d="M211 1440v-1440h-10v1440h10zM-94 1617v10h547v-10h-547zM212 -200v-114h-10v114h10z" glyph-name="uni1E39" horiz-adv-x="412" unicode="ḹ"/><glyph d="M1131 10v-10h-901v1400h10v-1390h891zM388 -263v10h547v-10h-547z" glyph-name="uni1E3A" horiz-adv-x="1177" unicode="Ḻ"/><glyph d="M211 1440v-1440h-10v1440h10zM-67 -263v10h547v-10h-547z" glyph-name="uni1E3B" horiz-adv-x="412" unicode="ḻ"/><glyph d="M1598 1405v-1405h-10v1382l-669 -1184h-10l-669 1184v-1382h-10v1405h8l676 -1195l676 1195h8zM919 1669v-114h-10v114h10z" glyph-name="uni1E40" horiz-adv-x="1828" unicode="Ṁ"/><glyph d="M1385 927c239 0 398 -135 398 -376v-551h-10v551c0 222 -140 366 -388 366c-220 0 -388 -164 -388 -376v-541h-10v551c0 222 -140 366 -388 366c-220 0 -388 -164 -388 -376v-541h-10v922h10v-293c39 173 194 298 388 298c218 0 369 -113 394 -315 c33 182 192 315 392 315zM997 1356v-114h-10v114h10z" glyph-name="uni1E41" horiz-adv-x="1972" unicode="ṁ"/><glyph d="M1598 1405v-1405h-10v1382l-669 -1184h-10l-669 1184v-1382h-10v1405h8l676 -1195l676 1195h8zM919 -200v-114h-10v114h10z" glyph-name="uni1E42" horiz-adv-x="1828" unicode="Ṃ"/><glyph d="M1385 927c239 0 398 -135 398 -376v-551h-10v551c0 222 -140 366 -388 366c-220 0 -388 -164 -388 -376v-541h-10v551c0 222 -140 366 -388 366c-220 0 -388 -164 -388 -376v-541h-10v922h10v-293c39 173 194 298 388 298c218 0 369 -113 394 -315 c33 182 192 315 392 315zM998 -200v-114h-10v114h10z" glyph-name="uni1E43" horiz-adv-x="1972" unicode="ṃ"/><glyph d="M1312 1400v-1405h-8l-1064 1391v-1386h-10v1405h8l1064 -1391v1386h10zM776 1669v-114h-10v114h10z" glyph-name="uni1E44" horiz-adv-x="1542" unicode="Ṅ"/><glyph d="M599 927c239 0 398 -135 398 -376v-551h-10v551c0 222 -140 366 -388 366c-220 0 -388 -164 -388 -376v-541h-10v922h10v-293c39 173 194 298 388 298zM609 1320v-114h-10v114h10z" glyph-name="uni1E45" horiz-adv-x="1186" unicode="ṅ"/><glyph d="M1312 1400v-1405h-8l-1064 1391v-1386h-10v1405h8l1064 -1391v1386h10zM776 -200v-114h-10v114h10z" glyph-name="uni1E46" horiz-adv-x="1542" unicode="Ṇ"/><glyph d="M599 927c239 0 398 -135 398 -376v-551h-10v551c0 222 -140 366 -388 366c-220 0 -388 -164 -388 -376v-541h-10v922h10v-293c39 173 194 298 388 298zM601 -200v-114h-10v114h10z" glyph-name="uni1E47" horiz-adv-x="1186" unicode="ṇ"/><glyph d="M1312 1400v-1405h-8l-1064 1391v-1386h-10v1405h8l1064 -1391v1386h10zM498 -263v10h547v-10h-547z" glyph-name="uni1E48" horiz-adv-x="1542" unicode="Ṉ"/><glyph d="M599 927c239 0 398 -135 398 -376v-551h-10v551c0 222 -140 366 -388 366c-220 0 -388 -164 -388 -376v-541h-10v922h10v-293c39 173 194 298 388 298zM322 -263v10h547v-10h-547z" glyph-name="uni1E49" horiz-adv-x="1186" unicode="ṉ"/><glyph d="M230 1400h488c296 0 470 -137 470 -372c0 -236 -174 -373 -470 -373h-148l609 -655h-14l-608 655h-317v-655h-10v1400zM723 1390h-483v-725h483c286 0 455 134 455 363c0 228 -169 362 -455 362zM658 1669v-114h-10v114h10z" glyph-name="uni1E58" horiz-adv-x="1308" unicode="Ṙ"/><glyph d="M524 928c66 0 131 -14 181 -45l-6 -8c-48 29 -111 43 -175 43c-183 0 -313 -167 -313 -381v-537h-10v922h10v-284c34 167 152 290 313 290zM446 1320v-114h-10v114h10z" glyph-name="uni1E59" horiz-adv-x="765" unicode="ṙ"/><glyph d="M230 1400h488c296 0 470 -137 470 -372c0 -236 -174 -373 -470 -373h-148l609 -655h-14l-608 655h-317v-655h-10v1400zM723 1390h-483v-725h483c286 0 455 134 455 363c0 228 -169 362 -455 362zM647 -200v-114h-10v114h10z" glyph-name="uni1E5A" horiz-adv-x="1308" unicode="Ṛ"/><glyph d="M524 928c66 0 131 -14 181 -45l-6 -8c-48 29 -111 43 -175 43c-183 0 -313 -167 -313 -381v-537h-10v922h10v-284c34 167 152 290 313 290zM212 -200v-114h-10v114h10z" glyph-name="uni1E5B" horiz-adv-x="765" unicode="ṛ"/><glyph d="M230 1400h488c296 0 470 -137 470 -372c0 -236 -174 -373 -470 -373h-148l609 -655h-14l-608 655h-317v-655h-10v1400zM723 1390h-483v-725h483c286 0 455 134 455 363c0 228 -169 362 -455 362zM647 -200v-114h-10v114h10zM380 1613v10h547v-10h-547z" glyph-name="uni1E5C" horiz-adv-x="1308" unicode="Ṝ"/><glyph d="M524 928c66 0 131 -14 181 -45l-6 -8c-48 29 -111 43 -175 43c-183 0 -313 -167 -313 -381v-537h-10v922h10v-284c34 167 152 290 313 290zM168 1197v10h547v-10h-547zM212 -200v-114h-10v114h10z" glyph-name="uni1E5D" horiz-adv-x="765" unicode="ṝ"/><glyph d="M230 1400h488c296 0 470 -137 470 -372c0 -236 -174 -373 -470 -373h-148l609 -655h-14l-608 655h-317v-655h-10v1400zM723 1390h-483v-725h483c286 0 455 134 455 363c0 228 -169 362 -455 362zM369 -263v10h547v-10h-547z" glyph-name="uni1E5E" horiz-adv-x="1308" unicode="Ṟ"/><glyph d="M524 928c66 0 131 -14 181 -45l-6 -8c-48 29 -111 43 -175 43c-183 0 -313 -167 -313 -381v-537h-10v922h10v-284c34 167 152 290 313 290zM-67 -263v10h547v-10h-547z" glyph-name="uni1E5F" horiz-adv-x="765" unicode="ṟ"/><glyph d="M1142 1247l-6 -8c-98 78 -258 156 -488 156c-266 0 -470 -129 -470 -355c0 -163 97 -291 397 -320l215 -21c273 -27 406 -128 406 -330c0 -259 -237 -374 -539 -374c-231 0 -417 92 -519 162l6 8c101 -69 284 -160 513 -160c296 0 529 111 529 364 c0 198 -133 294 -396 320l-215 21c-308 30 -407 162 -407 330c0 232 208 365 480 365c232 0 395 -79 494 -158zM711 -200v-114h-10v114h10z" glyph-name="uni1E62" horiz-adv-x="1334" unicode="Ṣ"/><glyph d="M807 817l-6 -8c-69 56 -196 108 -343 108c-182 0 -324 -84 -324 -232c0 -107 67 -190 274 -209l143 -13c181 -16 283 -87 283 -220c0 -172 -167 -248 -372 -248c-178 0 -286 57 -361 116l6 8c78 -62 186 -114 355 -114c199 0 362 72 362 238c0 124 -93 194 -273 210 l-143 13c-214 19 -284 108 -284 219c0 154 146 242 334 242c149 0 278 -53 349 -110zM469 -200v-114h-10v114h10z" glyph-name="uni1E63" horiz-adv-x="935" unicode="ṣ"/><glyph d="M1176 1400v-10h-560v-1390h-10v1390h-560v10h1130zM616 -200v-114h-10v114h10z" glyph-name="uni1E6C" horiz-adv-x="1222" unicode="Ṭ"/><glyph d="M820 922v-10h-505v-617c0 -192 101 -290 270 -290c103 0 188 32 243 89l8 -6c-57 -59 -144 -93 -251 -93c-173 0 -280 101 -280 300v617h-245v10h245v326h10v-326h505zM563 -200v-114h-10v114h10z" glyph-name="uni1E6D" horiz-adv-x="902" unicode="ṭ"/><glyph d="M1176 1400v-10h-560v-1390h-10v1390h-560v10h1130zM338 -263v10h547v-10h-547z" glyph-name="uni1E6E" horiz-adv-x="1222" unicode="Ṯ"/><glyph d="M820 922v-10h-505v-617c0 -192 101 -290 270 -290c103 0 188 32 243 89l8 -6c-57 -59 -144 -93 -251 -93c-173 0 -280 101 -280 300v617h-245v10h245v326h10v-326h505zM284 -263v10h547v-10h-547z" glyph-name="uni1E6F" horiz-adv-x="902" unicode="ṯ"/><glyph d="M2154 1400l-520 -1405h-8l-509 1392l-509 -1392h-8l-520 1405h11l513 -1388l509 1393h8l509 -1393l513 1388h11zM1206 1468l-251 300h13l251 -300h-13z" glyph-name="Wgrave" horiz-adv-x="2234" unicode="Ẁ"/><glyph d="M896 922l387 -910l419 910h11l-425 -922h-10l-387 908l-387 -908h-10l-425 922h11l419 -910l387 910h10zM950 1052l-251 300h13l251 -300h-13z" glyph-name="wgrave" horiz-adv-x="1782" unicode="ẁ"/><glyph d="M2154 1400l-520 -1405h-8l-509 1392l-509 -1392h-8l-520 1405h11l513 -1388l509 1393h8l509 -1393l513 1388h11zM1028 1468h-13l251 300h13z" glyph-name="Wacute" horiz-adv-x="2234" unicode="Ẃ"/><glyph d="M896 922l387 -910l419 910h11l-425 -922h-10l-387 908l-387 -908h-10l-425 922h11l419 -910l387 910h10zM822 1052h-13l251 300h13z" glyph-name="wacute" horiz-adv-x="1782" unicode="ẃ"/><glyph d="M2154 1400l-520 -1405h-8l-509 1392l-509 -1392h-8l-520 1405h11l513 -1388l509 1393h8l509 -1393l513 1388h11zM912 1669v-114h-10v114h10zM1332 1669v-114h-10v114h10z" glyph-name="Wdieresis" horiz-adv-x="2234" unicode="Ẅ"/><glyph d="M896 922l387 -910l419 910h11l-425 -922h-10l-387 908l-387 -908h-10l-425 922h11l419 -910l387 910h10zM686 1320v-114h-10v114h10zM1106 1320v-114h-10v114h10z" glyph-name="wdieresis" horiz-adv-x="1782" unicode="ẅ"/><glyph d="M2154 1400l-520 -1405h-8l-509 1392l-509 -1392h-8l-520 1405h11l513 -1388l509 1393h8l509 -1393l513 1388h11zM1124 -200v-114h-10v114h10z" glyph-name="uni1E88" horiz-adv-x="2234" unicode="Ẉ"/><glyph d="M896 922l387 -910l419 910h11l-425 -922h-10l-387 908l-387 -908h-10l-425 922h11l419 -910l387 910h10zM897 -200v-114h-10v114h10z" glyph-name="uni1E89" horiz-adv-x="1782" unicode="ẉ"/><glyph d="M1219 1400v-6l-1067 -1384h1075v-10h-1089v8l1066 1382h-1037v10h1052zM688 -200v-114h-10v114h10z" glyph-name="uni1E92" horiz-adv-x="1365" unicode="Ẓ"/><glyph d="M947 922v-9l-791 -903h798v-10h-813v8l792 904h-769v10h783zM554 -200v-114h-10v114h10z" glyph-name="uni1E93" horiz-adv-x="1095" unicode="ẓ"/><glyph d="M1219 1400v-6l-1067 -1384h1075v-10h-1089v8l1066 1382h-1037v10h1052zM410 -263v10h547v-10h-547z" glyph-name="uni1E94" horiz-adv-x="1365" unicode="Ẕ"/><glyph d="M947 922v-9l-791 -903h798v-10h-813v8l792 904h-769v10h783zM275 -263v10h547v-10h-547z" glyph-name="uni1E95" horiz-adv-x="1095" unicode="ẕ"/><glyph d="M211 1440v-811c39 173 194 298 388 298c239 0 398 -135 398 -376v-551h-10v551c0 222 -140 366 -388 366c-220 0 -388 -164 -388 -376v-541h-10v1440h10zM326 -263v10h547v-10h-547z" glyph-name="uni1E96" horiz-adv-x="1186" unicode="ẖ"/><glyph d="M806 700v8l440 466c-84 118 -218 221 -508 221c-298 0 -521 -157 -521 -460v-935h-10v935c0 309 229 470 531 470c298 0 437 -111 521 -232l-437 -463c291 -2 505 -149 505 -366c0 -216 -211 -349 -469 -349c-162 0 -264 35 -343 77l6 8c75 -39 177 -75 337 -75 c256 0 459 129 459 339c0 212 -209 356 -500 356h-11z" glyph-name="uni1E9E" horiz-adv-x="1465" unicode="ẞ"/><glyph d="M1177 1400l-576 -753v-647h-10v647l-576 753h13l568 -743l568 743h13zM686 1468l-251 300h13l251 -300h-13z" glyph-name="Ygrave" horiz-adv-x="1192" unicode="Ỳ"/><glyph d="M930 922l-804 -1322h-12l380 625l-462 697h12l456 -687l418 687h12zM540 1052l-251 300h13l251 -300h-13z" glyph-name="ygrave" horiz-adv-x="953" unicode="ỳ"/><glyph d="M1177 1400l-576 -753v-647h-10v647l-576 753h13l568 -743l568 743h13zM601 -200v-114h-10v114h10z" glyph-name="uni1EF4" horiz-adv-x="1192" unicode="Ỵ"/><glyph d="M930 922l-804 -1322h-12l380 625l-462 697h12l456 -687l418 687h12zM654 -200v-114h-10v114h10z" glyph-name="uni1EF5" horiz-adv-x="953" unicode="ỵ"/><glyph glyph-name="uni2007" horiz-adv-x="1411"/><glyph glyph-name="uni2008" horiz-adv-x="510"/><glyph glyph-name="uni2009" horiz-adv-x="173"/><glyph glyph-name="uni200B" horiz-adv-x="0" unicode="​"/><glyph glyph-name="uniFEFF" horiz-adv-x="0"/><glyph d="M661 525v-10h-500v10h500z" glyph-name="uni2010" horiz-adv-x="822" unicode="‐"/><glyph d="M661 525v-10h-500v10h500z" glyph-name="uni2011" horiz-adv-x="822" unicode="‑"/><glyph d="M1075 525v-10h-950v10h950z" glyph-name="figuredash" horiz-adv-x="1200" unicode="‒"/><glyph d="M1088 525v-10h-950v10h950z" glyph-name="endash" horiz-adv-x="1226" unicode="–"/><glyph d="M1569 525v-10h-1500v10h1500z" glyph-name="emdash" horiz-adv-x="1638" unicode="—"/><glyph d="M210 1022h-10l70 418h10z" glyph-name="quoteleft" horiz-adv-x="470" unicode="‘"/><glyph d="M260 1440h10l-70 -418h-10z" glyph-name="quoteright" horiz-adv-x="470" unicode="’"/><glyph d="M260 195h10l-70 -418h-10z" glyph-name="quotesinglbase" horiz-adv-x="470" unicode="‚"/><glyph d="M210 1022h-10l70 418h10zM482 1022h-10l70 418h10z" glyph-name="quotedblleft" horiz-adv-x="742" unicode="“"/><glyph d="M532 1440h10l-70 -418h-10zM260 1440h10l-70 -418h-10z" glyph-name="quotedblright" horiz-adv-x="742" unicode="”"/><glyph d="M532 195h10l-70 -418h-10zM260 195h10l-70 -418h-10z" glyph-name="quotedblbase" horiz-adv-x="742" unicode="„"/><glyph d="M320 780h-10v455h-195v10h195v195h10v-195h195v-10h-195v-455z" glyph-name="dagger" horiz-adv-x="630" unicode="†"/><glyph d="M320 1440v-195h195v-10h-195v-250h195v-10h-195v-195h-10v195h-195v10h195v250h-195v10h195v195h10z" glyph-name="daggerdbl" horiz-adv-x="630" unicode="‡"/><glyph d="M461 606c46 0 86 -37 86 -86c0 -46 -40 -86 -86 -86c-49 0 -86 40 -86 86c0 49 37 86 86 86z" glyph-name="bullet" horiz-adv-x="922" unicode="•"/><glyph d="M678 520l-341 -198v396z" glyph-name="uni2023" horiz-adv-x="922" unicode="‣"/><glyph d="M260 114v-114h-10v114h10zM918 114v-114h-10v114h10zM589 114v-114h-10v114h10z" glyph-name="ellipsis" horiz-adv-x="1168" unicode="…"/><glyph d="M430 1405c184 0 326 -141 326 -326c0 -187 -142 -327 -326 -327c-179 0 -320 140 -320 327c0 185 141 326 320 326zM430 1395c-175 0 -310 -135 -310 -316c0 -183 135 -317 310 -317c180 0 316 134 316 317c0 181 -136 316 -316 316zM1364 1400l-883 -1400h-12l883 1400 h12zM1397 648c184 0 326 -141 326 -327s-142 -326 -326 -326c-179 0 -320 140 -320 326s141 327 320 327zM1397 638c-175 0 -310 -135 -310 -317s135 -316 310 -316c180 0 316 134 316 316s-136 317 -316 317zM2207 648c184 0 326 -141 326 -327s-142 -326 -326 -326 c-179 0 -320 140 -320 326s141 327 320 327zM2207 638c-175 0 -310 -135 -310 -317s135 -316 310 -316c180 0 316 134 316 316s-136 317 -316 317z" glyph-name="perthousand" horiz-adv-x="2643" unicode="‰"/><glyph d="M311 1400h10l-121 -569h-10z" glyph-name="minute" horiz-adv-x="521" unicode="′"/><glyph d="M561 1400h10l-121 -569h-10zM311 1400h10l-121 -569h-10z" glyph-name="second" horiz-adv-x="771" unicode="″"/><glyph d="M531 1400h10l-121 -569h-10zM751 1400h10l-121 -569h-10zM311 1400h10l-121 -569h-10z" glyph-name="uni2034" horiz-adv-x="961" unicode="‴"/><glyph d="M187 520l198 -348h-12l-198 348l198 348h12z" glyph-name="guilsinglleft" horiz-adv-x="599" unicode="‹"/><glyph d="M412 520l-198 348h12l198 -348l-198 -348h-12z" glyph-name="guilsinglright" horiz-adv-x="599" unicode="›"/><glyph d="M635 1400l-883 -1400h-12l883 1400h12z" glyph-name="fraction" horiz-adv-x="375" unicode="⁄"/><glyph d="M392 1401c154 0 281 -135 281 -360s-127 -360 -281 -360c-155 0 -282 135 -282 360s127 360 282 360zM392 1391c-149 0 -272 -130 -272 -350c0 -219 123 -350 272 -350s271 131 271 350c0 220 -122 350 -271 350z" glyph-name="uni2070" horiz-adv-x="783" unicode="⁰"/><glyph d="M166 1312v-628h-10v628h10zM166 1583v-80h-10v80h10z" glyph-name="uni2071" horiz-adv-x="322" unicode="ⁱ"/><glyph d="M420 1082v-215h148v-10h-148v-173h-10v173h-366v9l266 532h11l-265 -531h354v215h10z" glyph-name="uni2074" horiz-adv-x="612" unicode="⁴"/><glyph d="M505 1398v-10h-351l-13 -293h129c170 0 259 -82 259 -203c0 -127 -94 -211 -231 -211c-94 0 -170 35 -227 105l8 6c55 -68 129 -101 219 -101c133 0 221 80 221 201c0 114 -84 193 -250 193h-138l14 313h360z" glyph-name="uni2075" horiz-adv-x="628" unicode="⁵"/><glyph d="M334 1398l-198 -334c43 39 102 62 171 62c140 0 240 -96 240 -223s-100 -222 -240 -222s-241 96 -241 222c0 40 10 77 29 110l227 385h12zM307 1116c-135 0 -230 -91 -231 -213c0 -121 97 -212 231 -212s230 90 230 212s-96 213 -230 213z" glyph-name="uni2076" horiz-adv-x="618" unicode="⁶"/><glyph d="M537 1398v-8l-352 -706h-11l351 704h-459v10h471z" glyph-name="uni2077" horiz-adv-x="592" unicode="⁷"/><glyph d="M344 1401c126 0 232 -62 232 -178c0 -100 -74 -159 -169 -177c106 -17 187 -78 187 -179c0 -124 -113 -187 -250 -187s-250 63 -250 187c0 101 81 162 187 179c-95 18 -169 77 -169 177c0 116 106 178 232 178zM344 1041c-132 0 -240 -61 -240 -174 c0 -117 108 -177 240 -177s240 60 240 177c0 113 -108 174 -240 174zM344 1391c-121 0 -222 -58 -222 -168c0 -114 101 -172 222 -172s222 58 222 172c0 110 -101 168 -222 168z" glyph-name="uni2078" horiz-adv-x="688" unicode="⁸"/><glyph d="M284 684l197 333c-42 -38 -101 -61 -170 -61c-140 0 -240 96 -240 223s100 222 240 222s241 -96 241 -222c0 -40 -10 -77 -29 -110l-227 -385h-12zM311 966c135 0 230 91 231 213c0 121 -97 212 -231 212s-230 -90 -230 -212s96 -213 230 -213z" glyph-name="uni2079" horiz-adv-x="618" unicode="⁹"/><glyph d="M428 1315c163 0 271 -93 271 -257v-374h-10v374c0 150 -94 248 -262 248c-144 0 -261 -110 -261 -254v-368h-10v628h10v-190c30 112 132 193 262 193z" glyph-name="uni207F" horiz-adv-x="847" unicode="ⁿ"/><glyph d="M392 379c154 0 281 -135 281 -360s-127 -360 -281 -360c-155 0 -282 135 -282 360s127 360 282 360zM392 369c-149 0 -272 -130 -272 -350c0 -219 123 -350 272 -350s271 131 271 350c0 220 -122 350 -271 350z" glyph-name="uni2080" horiz-adv-x="783" unicode="₀"/><glyph d="M340 379v-717h-10v702l-275 -119v11z" glyph-name="uni2081" horiz-adv-x="516" unicode="₁"/><glyph d="M79 257l-8 6c33 58 91 116 198 116c138 0 209 -94 209 -203c0 -86 -45 -152 -97 -206l-288 -298h418v-10h-433v8l295 306c52 54 95 117 95 200c0 104 -67 193 -199 193c-102 0 -158 -55 -190 -112z" glyph-name="uni2082" horiz-adv-x="588" unicode="₂"/><glyph d="M257 379c127 0 214 -76 214 -178c0 -101 -65 -162 -154 -178c96 -16 169 -82 169 -176c0 -128 -109 -188 -223 -188c-89 0 -155 29 -208 76l7 8c51 -46 116 -74 201 -74c110 0 213 56 213 178c0 105 -95 171 -211 171h-111v10h111c111 0 196 60 196 173 c0 96 -83 168 -204 168c-84 0 -151 -37 -193 -90l-8 6c44 54 112 94 201 94z" glyph-name="uni2083" horiz-adv-x="580" unicode="₃"/><glyph d="M420 60v-215h148v-10h-148v-173h-10v173h-366v9l266 532h11l-265 -531h354v215h10z" glyph-name="uni2084" horiz-adv-x="612" unicode="₄"/><glyph d="M505 376v-10h-351l-13 -293h129c170 0 259 -82 259 -203c0 -127 -94 -211 -231 -211c-94 0 -170 35 -227 105l8 6c55 -68 129 -101 219 -101c133 0 221 80 221 201c0 114 -84 193 -250 193h-138l14 313h360z" glyph-name="uni2085" horiz-adv-x="628" unicode="₅"/><glyph d="M334 376l-198 -334c43 39 102 62 171 62c140 0 240 -96 240 -223s-100 -222 -240 -222s-241 96 -241 222c0 40 10 77 29 110l227 385h12zM307 94c-135 0 -230 -91 -231 -213c0 -121 97 -212 231 -212s230 90 230 212s-96 213 -230 213z" glyph-name="uni2086" horiz-adv-x="618" unicode="₆"/><glyph d="M537 376v-8l-352 -706h-11l351 704h-459v10h471z" glyph-name="uni2087" horiz-adv-x="592" unicode="₇"/><glyph d="M344 379c126 0 232 -62 232 -178c0 -100 -74 -159 -169 -177c106 -17 187 -78 187 -179c0 -124 -113 -187 -250 -187s-250 63 -250 187c0 101 81 162 187 179c-95 18 -169 77 -169 177c0 116 106 178 232 178zM344 19c-132 0 -240 -61 -240 -174 c0 -117 108 -177 240 -177s240 60 240 177c0 113 -108 174 -240 174zM344 369c-121 0 -222 -58 -222 -168c0 -114 101 -172 222 -172s222 58 222 172c0 110 -101 168 -222 168z" glyph-name="uni2088" horiz-adv-x="688" unicode="₈"/><glyph d="M284 -338l197 333c-42 -38 -101 -61 -170 -61c-140 0 -240 96 -240 223s100 222 240 222s241 -96 241 -222c0 -40 -10 -77 -29 -110l-227 -385h-12zM311 -56c135 0 230 91 231 213c0 121 -97 212 -231 212s-230 -90 -230 -212s96 -213 230 -213z" glyph-name="uni2089" horiz-adv-x="618" unicode="₉"/><glyph d="M1051 555v-10h-792c45 -330 241 -540 565 -540c227 0 395 105 480 277l8 -4c-85 -174 -259 -283 -488 -283c-330 0 -530 215 -575 550h-164v10h163c-6 46 -9 94 -9 145c0 50 3 99 9 145h-163v10h164c45 335 245 550 575 550c229 0 403 -109 488 -283l-8 -4 c-85 172 -253 277 -480 277c-324 0 -520 -210 -565 -540h792v-10h-793c-6 -46 -9 -95 -9 -145c0 -51 3 -99 9 -145h793z" glyph-name="Euro" horiz-adv-x="1400" unicode="€"/><glyph d="M979 742v-10l-609 -305v-417h332c246 0 410 95 551 344l8 -4c-141 -253 -309 -350 -559 -350h-342v422l-217 -108v10l217 108v290l-217 -108v10l217 108v668h10v-663l609 305v-10l-609 -305v-290z" glyph-name="uni20BA" horiz-adv-x="1400" unicode="₺"/><glyph d="M416 1405c144 0 254 -64 254 -246v-385h-10v130c-61 -69 -157 -134 -287 -134c-134 0 -225 71 -225 173s84 174 263 174h249v41c0 177 -105 237 -244 237c-103 0 -174 -39 -225 -85l-5 8c51 46 125 87 230 87zM660 919v188h-248c-174 0 -254 -68 -254 -164 s87 -163 215 -163c131 0 228 68 287 139zM1361 1400l-883 -1400h-12l883 1400h12zM1325 631c91 0 171 -36 227 -95l-7 -6c-55 57 -132 91 -220 91c-172 0 -303 -132 -303 -307c0 -176 131 -308 303 -308c88 0 165 35 220 91l7 -6c-56 -59 -136 -95 -227 -95 c-178 0 -313 137 -313 318s135 317 313 317z" glyph-name="uni2100" horiz-adv-x="1700" unicode="℀"/><glyph d="M412 1405c144 0 254 -64 254 -246v-385h-10v130c-61 -69 -157 -134 -287 -134c-134 0 -225 71 -225 173s84 174 263 174h249v41c0 177 -105 237 -244 237c-103 0 -174 -39 -225 -85l-5 8c51 46 125 87 230 87zM656 919v188h-248c-174 0 -254 -68 -254 -164 s87 -163 215 -163c131 0 228 68 287 139zM1357 1400l-883 -1400h-12l883 1400h12zM1539 557l-5 -8c-47 37 -133 72 -233 72c-123 0 -218 -56 -218 -155c0 -72 47 -129 185 -141l95 -8c124 -10 194 -60 194 -151c0 -117 -113 -170 -254 -170c-119 0 -194 38 -246 79l6 8 c53 -42 126 -77 240 -77c135 0 244 48 244 160c0 83 -62 130 -184 141l-96 9c-146 13 -194 73 -194 150c0 105 99 165 228 165c101 0 189 -36 238 -74z" glyph-name="uni2101" horiz-adv-x="1700" unicode="℁"/><glyph d="M435 1405c91 0 171 -36 227 -95l-7 -6c-55 57 -132 91 -220 91c-172 0 -303 -132 -303 -307c0 -176 131 -308 303 -308c88 0 165 35 220 91l7 -6c-56 -59 -136 -95 -227 -95c-178 0 -313 137 -313 318s135 317 313 317zM1299 1400l-883 -1400h-12l883 1400h12zM1265 631 c178 0 314 -136 314 -317s-136 -318 -314 -318c-177 0 -313 137 -313 318s136 317 313 317zM1265 622c-172 0 -303 -133 -303 -308c0 -176 131 -308 303 -308c173 0 304 132 304 308c0 175 -131 308 -304 308z" glyph-name="afii61248" horiz-adv-x="1700" unicode="℅"/><glyph d="M434 1405c91 0 171 -36 227 -95l-7 -6c-55 57 -132 91 -220 91c-172 0 -303 -132 -303 -307c0 -176 131 -308 303 -308c88 0 165 35 220 91l7 -6c-56 -59 -136 -95 -227 -95c-178 0 -313 137 -313 318s135 317 313 317zM1298 1400l-883 -1400h-12l883 1400h12zM1579 628 v-375c0 -155 -109 -257 -272 -257c-162 0 -271 102 -271 257v375h10v-375c0 -149 104 -247 261 -247c158 0 262 98 262 247v375h10z" glyph-name="uni2106" horiz-adv-x="1700" unicode="℆"/><glyph d="M202 407l-4 10c62 29 123 62 181 98v596c0 200 93 334 233 334c139 0 233 -106 233 -264c0 -273 -196 -505 -456 -671v-215c0 -194 91 -290 245 -290c96 0 169 33 219 88l8 -6c-52 -57 -129 -92 -227 -92c-158 0 -255 102 -255 300v209c-57 -36 -116 -68 -177 -97z M389 1111v-589c256 163 446 391 446 659c0 154 -88 254 -223 254c-134 0 -223 -128 -223 -324z" glyph-name="afii61289" horiz-adv-x="1106" unicode="ℓ"/><glyph d="M2250 564v-10h-608v10h608zM1946 1405c176 0 310 -134 310 -313c0 -178 -134 -311 -310 -311c-175 0 -308 133 -308 311c0 179 133 313 308 313zM1946 1395c-169 0 -298 -129 -298 -303c0 -173 129 -301 298 -301c170 0 300 128 300 301c0 174 -130 303 -300 303z M1312 1400v-1405h-8l-1064 1391v-1386h-10v1405h8l1064 -1391v1386h10z" glyph-name="afii61352" horiz-adv-x="2357" unicode="№"/><glyph d="M943 1477c427 0 777 -349 777 -777s-350 -777 -777 -777c-428 0 -777 349 -777 777s349 777 777 777zM943 1467c-424 0 -767 -343 -767 -767s343 -767 767 -767c423 0 767 343 767 767s-344 767 -767 767zM713 1111h293c173 0 291 -84 291 -240 c0 -152 -118 -237 -291 -237h-283v-345h-10v822zM1006 1101h-283v-457h283c169 0 281 81 281 227c0 150 -112 230 -281 230z" glyph-name="uni2117" horiz-adv-x="1886" unicode="℗"/><glyph d="M484 1350l-5 -9c-37 25 -94 50 -175 50c-95 0 -167 -41 -167 -112c0 -53 35 -92 141 -100l75 -6c99 -8 150 -42 150 -110c0 -85 -87 -124 -198 -124c-83 0 -151 29 -190 53l6 8c36 -23 103 -51 184 -51c105 0 188 35 188 114c0 63 -48 92 -143 100l-75 6 c-109 9 -149 52 -149 110c0 76 77 122 178 122c83 0 143 -26 180 -51zM1074 941h-10v438l-213 -378h-6l-214 378v-438h-10v459h10l217 -384l216 384h10v-459z" glyph-name="uni2120" horiz-adv-x="1166" unicode="℠"/><glyph d="M1005 943h-10v438l-213 -378h-6l-214 378v-438h-10v459h10l217 -384l216 384h10v-459zM282 943h-10v447h-180v10h369v-10h-179v-447z" glyph-name="trademark" horiz-adv-x="1097" unicode="™"/><glyph d="M92 10h511c-260 97 -446 344 -446 675c0 431 315 720 700 720s700 -289 700 -720c0 -331 -186 -578 -446 -675h511v-10h-547v8c274 87 472 335 472 677c0 427 -309 710 -690 710s-690 -283 -690 -710c0 -342 198 -590 472 -677v-8h-547v10z" glyph-name="Omega" horiz-adv-x="1714" unicode="Ω"/><glyph d="M397 695v-379c0 -86 19 -149 83 -206c137 -122 320 -190 520 -190c273 0 514 127 651 341l8 -5c-140 -217 -384 -346 -659 -346c-431 0 -784 317 -784 790s353 790 784 790s784 -317 784 -790v-5h-1387zM397 705h1206v379c0 86 -19 150 -84 207 c-138 121 -319 189 -519 189s-383 -68 -520 -190c-64 -57 -83 -120 -83 -206v-379z" glyph-name="estimated" horiz-adv-x="2000" unicode="℮"/><glyph d="M391 1400l324 -730h-11l-106 239h-424l-106 -239h-11l324 730h10zM386 1387l-208 -468h415zM1615 649l-6 -8c-51 40 -133 80 -251 80c-136 0 -241 -66 -241 -181c0 -85 51 -148 204 -163l109 -11c140 -14 213 -66 213 -173c0 -135 -124 -196 -281 -196 c-119 0 -217 47 -271 85l6 8c52 -37 147 -83 265 -83c151 0 271 57 271 186c0 101 -69 149 -205 163l-109 11c-157 16 -212 83 -212 173c0 121 109 191 251 191c120 0 205 -40 257 -82zM1359 1400l-883 -1400h-12l883 1400h12z" glyph-name="uni214D" horiz-adv-x="1700" unicode="⅍"/><glyph d="M1161 1400l-883 -1400h-12l883 1400h12zM1458 714v-8l-352 -706h-11l351 704h-459v10h471zM340 1401v-717h-10v702l-275 -119v11z" glyph-name="uni2150" horiz-adv-x="1513" unicode="⅐"/><glyph d="M1161 1400l-883 -1400h-12l883 1400h12zM1185 0l197 333c-42 -38 -101 -61 -170 -61c-140 0 -240 96 -240 223s100 222 240 222s241 -96 241 -222c0 -40 -10 -77 -29 -110l-227 -385h-12zM1212 282c135 0 230 91 231 213c0 121 -97 212 -231 212s-230 -90 -230 -212 s96 -213 230 -213zM340 1401v-717h-10v702l-275 -119v11z" glyph-name="uni2151" horiz-adv-x="1519" unicode="⅑"/><glyph d="M1161 1400l-883 -1400h-12l883 1400h12zM1261 717v-717h-10v702l-275 -119v11zM1829 717c154 0 281 -135 281 -360s-127 -360 -281 -360c-155 0 -282 135 -282 360s127 360 282 360zM1829 707c-149 0 -272 -130 -272 -350c0 -219 123 -350 272 -350s271 131 271 350 c0 220 -122 350 -271 350zM340 1401v-717h-10v702l-275 -119v11z" glyph-name="uni2152" horiz-adv-x="2220" unicode="⅒"/><glyph d="M1161 1400l-883 -1400h-12l883 1400h12zM1158 717c127 0 214 -76 214 -178c0 -101 -65 -162 -154 -178c96 -16 169 -82 169 -176c0 -128 -109 -188 -223 -188c-89 0 -155 29 -208 76l7 8c51 -46 116 -74 201 -74c110 0 213 56 213 178c0 105 -95 171 -211 171h-111v10 h111c111 0 196 60 196 173c0 96 -83 168 -204 168c-84 0 -151 -37 -193 -90l-8 6c44 54 112 94 201 94zM340 1401v-717h-10v702l-275 -119v11z" glyph-name="onethird" horiz-adv-x="1481" unicode="⅓"/><glyph d="M1253 1400l-883 -1400h-12l883 1400h12zM1250 717c127 0 214 -76 214 -178c0 -101 -65 -162 -154 -178c96 -16 169 -82 169 -176c0 -128 -109 -188 -223 -188c-89 0 -155 29 -208 76l7 8c51 -46 116 -74 201 -74c110 0 213 56 213 178c0 105 -95 171 -211 171h-111v10 h111c111 0 196 60 196 173c0 96 -83 168 -204 168c-84 0 -151 -37 -193 -90l-8 6c44 54 112 94 201 94zM79 1279l-8 6c33 58 91 116 198 116c138 0 209 -94 209 -203c0 -86 -45 -152 -97 -206l-288 -298h418v-10h-433v8l295 306c52 54 95 117 95 200c0 104 -67 193 -199 193 c-102 0 -158 -55 -190 -112z" glyph-name="twothirds" horiz-adv-x="1573" unicode="⅔"/><glyph d="M1161 1400l-883 -1400h-12l883 1400h12zM1406 714v-10h-351l-13 -293h129c170 0 259 -82 259 -203c0 -127 -94 -211 -231 -211c-94 0 -170 35 -227 105l8 6c55 -68 129 -101 219 -101c133 0 221 80 221 201c0 114 -84 193 -250 193h-138l14 313h360zM340 1401v-717h-10 v702l-275 -119v11z" glyph-name="uni2155" horiz-adv-x="1529" unicode="⅕"/><glyph d="M1253 1400l-883 -1400h-12l883 1400h12zM1498 714v-10h-351l-13 -293h129c170 0 259 -82 259 -203c0 -127 -94 -211 -231 -211c-94 0 -170 35 -227 105l8 6c55 -68 129 -101 219 -101c133 0 221 80 221 201c0 114 -84 193 -250 193h-138l14 313h360zM79 1279l-8 6 c33 58 91 116 198 116c138 0 209 -94 209 -203c0 -86 -45 -152 -97 -206l-288 -298h418v-10h-433v8l295 306c52 54 95 117 95 200c0 104 -67 193 -199 193c-102 0 -158 -55 -190 -112z" glyph-name="uni2156" horiz-adv-x="1621" unicode="⅖"/><glyph d="M1215 1400l-883 -1400h-12l883 1400h12zM1460 714v-10h-351l-13 -293h129c170 0 259 -82 259 -203c0 -127 -94 -211 -231 -211c-94 0 -170 35 -227 105l8 6c55 -68 129 -101 219 -101c133 0 221 80 221 201c0 114 -84 193 -250 193h-138l14 313h360zM257 1401 c127 0 214 -76 214 -178c0 -101 -65 -162 -154 -178c96 -16 169 -82 169 -176c0 -128 -109 -188 -223 -188c-89 0 -155 29 -208 76l7 8c51 -46 116 -74 201 -74c110 0 213 56 213 178c0 105 -95 171 -211 171h-111v10h111c111 0 196 60 196 173c0 96 -83 168 -204 168 c-84 0 -151 -37 -193 -90l-8 6c44 54 112 94 201 94z" glyph-name="uni2157" horiz-adv-x="1583" unicode="⅗"/><glyph d="M1247 1400l-883 -1400h-12l883 1400h12zM1492 714v-10h-351l-13 -293h129c170 0 259 -82 259 -203c0 -127 -94 -211 -231 -211c-94 0 -170 35 -227 105l8 6c55 -68 129 -101 219 -101c133 0 221 80 221 201c0 114 -84 193 -250 193h-138l14 313h360zM420 1082v-215h148 v-10h-148v-173h-10v173h-366v9l266 532h11l-265 -531h354v215h10z" glyph-name="uni2158" horiz-adv-x="1615" unicode="⅘"/><glyph d="M1161 1400l-883 -1400h-12l883 1400h12zM1165 714l-198 -334c43 39 102 62 171 62c140 0 240 -96 240 -223s-100 -222 -240 -222s-241 96 -241 222c0 40 10 77 29 110l227 385h12zM1138 432c-135 0 -230 -91 -231 -213c0 -121 97 -212 231 -212s230 90 230 212 s-96 213 -230 213zM340 1401v-717h-10v702l-275 -119v11z" glyph-name="uni2159" horiz-adv-x="1449" unicode="⅙"/><glyph d="M1263 1400l-883 -1400h-12l883 1400h12zM1267 714l-198 -334c43 39 102 62 171 62c140 0 240 -96 240 -223s-100 -222 -240 -222s-241 96 -241 222c0 40 10 77 29 110l227 385h12zM1240 432c-135 0 -230 -91 -231 -213c0 -121 97 -212 231 -212s230 90 230 212 s-96 213 -230 213zM505 1398v-10h-351l-13 -293h129c170 0 259 -82 259 -203c0 -127 -94 -211 -231 -211c-94 0 -170 35 -227 105l8 6c55 -68 129 -101 219 -101c133 0 221 80 221 201c0 114 -84 193 -250 193h-138l14 313h360z" glyph-name="uni215A" horiz-adv-x="1551" unicode="⅚"/><glyph d="M1161 1400l-883 -1400h-12l883 1400h12zM1225 717c126 0 232 -62 232 -178c0 -100 -74 -159 -169 -177c106 -17 187 -78 187 -179c0 -124 -113 -187 -250 -187s-250 63 -250 187c0 101 81 162 187 179c-95 18 -169 77 -169 177c0 116 106 178 232 178zM1225 357 c-132 0 -240 -61 -240 -174c0 -117 108 -177 240 -177s240 60 240 177c0 113 -108 174 -240 174zM1225 707c-121 0 -222 -58 -222 -168c0 -114 101 -172 222 -172s222 58 222 172c0 110 -101 168 -222 168zM340 1401v-717h-10v702l-275 -119v11z" glyph-name="oneeighth" horiz-adv-x="1569" unicode="⅛"/><glyph d="M1215 1400l-883 -1400h-12l883 1400h12zM1279 717c126 0 232 -62 232 -178c0 -100 -74 -159 -169 -177c106 -17 187 -78 187 -179c0 -124 -113 -187 -250 -187s-250 63 -250 187c0 101 81 162 187 179c-95 18 -169 77 -169 177c0 116 106 178 232 178zM1279 357 c-132 0 -240 -61 -240 -174c0 -117 108 -177 240 -177s240 60 240 177c0 113 -108 174 -240 174zM1279 707c-121 0 -222 -58 -222 -168c0 -114 101 -172 222 -172s222 58 222 172c0 110 -101 168 -222 168zM257 1401c127 0 214 -76 214 -178c0 -101 -65 -162 -154 -178 c96 -16 169 -82 169 -176c0 -128 -109 -188 -223 -188c-89 0 -155 29 -208 76l7 8c51 -46 116 -74 201 -74c110 0 213 56 213 178c0 105 -95 171 -211 171h-111v10h111c111 0 196 60 196 173c0 96 -83 168 -204 168c-84 0 -151 -37 -193 -90l-8 6c44 54 112 94 201 94z" glyph-name="threeeighths" horiz-adv-x="1623" unicode="⅜"/><glyph d="M1263 1400l-883 -1400h-12l883 1400h12zM1327 717c126 0 232 -62 232 -178c0 -100 -74 -159 -169 -177c106 -17 187 -78 187 -179c0 -124 -113 -187 -250 -187s-250 63 -250 187c0 101 81 162 187 179c-95 18 -169 77 -169 177c0 116 106 178 232 178zM1327 357 c-132 0 -240 -61 -240 -174c0 -117 108 -177 240 -177s240 60 240 177c0 113 -108 174 -240 174zM1327 707c-121 0 -222 -58 -222 -168c0 -114 101 -172 222 -172s222 58 222 172c0 110 -101 168 -222 168zM505 1398v-10h-351l-13 -293h129c170 0 259 -82 259 -203 c0 -127 -94 -211 -231 -211c-94 0 -170 35 -227 105l8 6c55 -68 129 -101 219 -101c133 0 221 80 221 201c0 114 -84 193 -250 193h-138l14 313h360z" glyph-name="fiveeighths" horiz-adv-x="1671" unicode="⅝"/><glyph d="M1107 1400l-883 -1400h-12l883 1400h12zM1171 717c126 0 232 -62 232 -178c0 -100 -74 -159 -169 -177c106 -17 187 -78 187 -179c0 -124 -113 -187 -250 -187s-250 63 -250 187c0 101 81 162 187 179c-95 18 -169 77 -169 177c0 116 106 178 232 178zM1171 357 c-132 0 -240 -61 -240 -174c0 -117 108 -177 240 -177s240 60 240 177c0 113 -108 174 -240 174zM1171 707c-121 0 -222 -58 -222 -168c0 -114 101 -172 222 -172s222 58 222 172c0 110 -101 168 -222 168zM537 1398v-8l-352 -706h-11l351 704h-459v10h471z" glyph-name="seveneighths" horiz-adv-x="1515" unicode="⅞"/><glyph d="M1161 1400l-883 -1400h-12l883 1400h12zM340 1401v-717h-10v702l-275 -119v11z" glyph-name="uni215F" horiz-adv-x="901" unicode="⅟"/><glyph d="M1378 1400l-883 -1400h-12l883 1400h12zM1375 717c127 0 214 -76 214 -178c0 -101 -65 -162 -154 -178c96 -16 169 -82 169 -176c0 -128 -109 -188 -223 -188c-89 0 -155 29 -208 76l7 8c51 -46 116 -74 201 -74c110 0 213 56 213 178c0 105 -95 171 -211 171h-111v10 h111c111 0 196 60 196 173c0 96 -83 168 -204 168c-84 0 -151 -37 -193 -90l-8 6c44 54 112 94 201 94zM392 1401c154 0 281 -135 281 -360s-127 -360 -281 -360c-155 0 -282 135 -282 360s127 360 282 360zM392 1391c-149 0 -272 -130 -272 -350c0 -219 123 -350 272 -350 s271 131 271 350c0 220 -122 350 -271 350z" glyph-name="uni2189" horiz-adv-x="1698" unicode="↉"/><glyph d="M1703 621h-1386l566 -565l-8 -8l-577 578l577 578l8 -8l-566 -565h1386v-10z" glyph-name="arrowleft" horiz-adv-x="2000" unicode="←"/><glyph d="M996 0v1386l-565 -566l-8 8l578 577l578 -577l-8 -8l-565 566v-1386h-10z" glyph-name="arrowup" horiz-adv-x="2000" unicode="↑"/><glyph d="M298 630h1386l-566 565l8 8l577 -578l-577 -578l-8 8l566 565h-1386v10z" glyph-name="arrowright" horiz-adv-x="2000" unicode="→"/><glyph d="M1005 1400v-1386l565 566l8 -8l-578 -577l-578 577l8 8l565 -566v1386h10z" glyph-name="arrowdown" horiz-adv-x="2000" unicode="↓"/><glyph d="M1492 125l-980 980v-799h-11l1 816l817 1v-11h-800l980 -980z" glyph-name="uni2196" horiz-adv-x="2000" unicode="↖"/><glyph d="M500 132l980 980h-799v11l816 -1l1 -817h-11v800l-980 -980z" glyph-name="uni2197" horiz-adv-x="2000" unicode="↗"/><glyph d="M507 1126l980 -980v799h11l-1 -816l-817 -1v11h800l-980 980z" glyph-name="uni2198" horiz-adv-x="2000" unicode="↘"/><glyph d="M1500 1118l-980 -980h799v-11l-816 1l-1 817h11v-800l980 980z" glyph-name="uni2199" horiz-adv-x="2000" unicode="↙"/><glyph d="M275 1436l4 8c356 -191 621 -465 709 -869c8 -35 12 -77 12 -114c0 -265 -201 -466 -461 -466c-259 0 -459 201 -459 466s200 466 459 466c184 0 337 -100 412 -253c-106 345 -355 588 -676 762zM539 917c-255 0 -449 -195 -449 -456s194 -456 449 -456 c256 0 451 195 451 456s-195 456 -451 456z" glyph-name="partialdiff" horiz-adv-x="1150" unicode="∂"/><glyph d="M723 1405l625 -1397v-8h-1256v8l625 1397h6zM720 1388l-616 -1378h1232z" glyph-name="Delta" horiz-adv-x="1440" unicode="∆"/><glyph d="M1188 1400v-1665h-10v1655h-938v-1655h-10v1665h958z" glyph-name="product" horiz-adv-x="1418" unicode="∏"/><glyph d="M1187 1400v-10h-1034l672 -806v-6l-673 -833h1035v-10h-1049v9l677 837l-677 810v9h1049z" glyph-name="summation" horiz-adv-x="1325" unicode="∑"/><glyph d="M1000 525v-10h-800v10h800z" glyph-name="minus" horiz-adv-x="1200" unicode="−"/><glyph d="M600 606c46 0 86 -37 86 -86c0 -46 -40 -86 -86 -86c-49 0 -86 40 -86 86c0 49 37 86 86 86z" glyph-name="uni2219" horiz-adv-x="1200" unicode="∙"/><glyph d="M1124 1440l-628 -1705h-10l-440 1000h11l434 -987l622 1692h11z" glyph-name="radical" horiz-adv-x="1174" unicode="√"/><glyph d="M62 520c0 196 131 315 285 315c141 0 230 -116 407 -308c177 192 267 308 408 308c154 0 284 -119 284 -315s-131 -315 -285 -315c-141 0 -231 117 -407 308c-176 -191 -266 -308 -407 -308c-154 0 -285 119 -285 315zM1436 520c0 192 -124 305 -274 305 c-137 0 -224 -113 -401 -305c176 -192 263 -305 400 -305c150 0 275 113 275 305zM72 520c0 -192 125 -305 275 -305c137 0 224 113 400 305c-176 192 -263 305 -400 305c-150 0 -275 -113 -275 -305z" glyph-name="infinity" horiz-adv-x="1508" unicode="∞"/><glyph d="M690 1394l-2 -10c-31 7 -62 11 -96 11c-195 0 -260 -119 -260 -320v-1015c0 -203 -69 -330 -270 -330c-34 0 -67 4 -98 11l2 10c31 -7 62 -11 96 -11c195 0 260 119 260 320v1015c0 203 69 330 270 330c34 0 67 -4 98 -11z" glyph-name="integral" horiz-adv-x="718" unicode="∫"/><glyph d="M1000 375v-10h-800v10h800zM1000 675v-10h-800v10h800zM993 1021l8 -6c-59 -70 -122 -108 -226 -108c-167 0 -192 106 -355 106c-102 0 -162 -36 -218 -104l-8 6c58 70 122 108 226 108c167 0 192 -106 355 -106c102 0 161 36 218 104z" glyph-name="congruent" horiz-adv-x="1200" unicode="≅"/><glyph d="M993 730l8 -6c-59 -70 -122 -108 -226 -108c-167 0 -192 106 -355 106c-102 0 -162 -36 -218 -104l-8 6c58 70 122 108 226 108c167 0 192 -106 355 -106c102 0 161 36 218 104zM993 434l8 -6c-59 -70 -122 -108 -226 -108c-167 0 -192 106 -355 106 c-102 0 -162 -36 -218 -104l-8 6c58 70 122 108 226 108c167 0 192 -106 355 -106c102 0 161 36 218 104z" glyph-name="approxequal" horiz-adv-x="1200" unicode="≈"/><glyph d="M1000 375v-10h-800v10h800zM1000 675v-10h-800v10h800zM890 866h-15l-275 249l-275 -249h-15l289 262h2z" glyph-name="uni2259" horiz-adv-x="1200" unicode="≙"/><glyph d="M1000 375v-10h-470l-139 -285h-12l139 285h-318v10h323l142 290h-465v10h470l139 285h11l-139 -285h319v-10h-324l-141 -290h465z" glyph-name="notequal" horiz-adv-x="1200" unicode="≠"/><glyph d="M961 1069v-11l-713 -351l713 -350v-11l-722 355v13zM239 150v10h722v-10h-722z" glyph-name="lessequal" horiz-adv-x="1200" unicode="≤"/><glyph d="M239 1058v11l722 -355v-13l-722 -355v11l713 350zM961 160v-10h-722v10h722z" glyph-name="greaterequal" horiz-adv-x="1200" unicode="≥"/><glyph d="M605 577v-114h-10v114h10z" glyph-name="dotmath" horiz-adv-x="1200" unicode="⋅"/><glyph d="M1130 974l7 -8l-144 -144c77 -78 124 -185 124 -302c0 -238 -195 -433 -433 -433c-118 0 -225 47 -303 123l-144 -144l-7 8l143 143c-76 78 -123 186 -123 303c0 238 194 434 434 434c117 0 224 -48 302 -124zM260 520c0 -115 46 -220 120 -296l599 599 c-76 75 -181 121 -295 121c-235 0 -424 -190 -424 -424zM684 97c233 0 423 189 423 423c0 115 -46 219 -120 296l-599 -599c76 -74 180 -120 296 -120z" glyph-name="uni2300" horiz-adv-x="1367" unicode="∅"/><glyph d="M1130 974l7 -8l-144 -144c77 -78 124 -185 124 -302c0 -238 -195 -433 -433 -433c-118 0 -225 47 -303 123l-144 -144l-7 8l143 143c-76 78 -123 186 -123 303c0 238 194 434 434 434c117 0 224 -48 302 -124zM260 520c0 -115 46 -220 120 -296l599 599 c-76 75 -181 121 -295 121c-235 0 -424 -190 -424 -424zM684 97c233 0 423 189 423 423c0 115 -46 219 -120 296l-599 -599c76 -74 180 -120 296 -120z" glyph-name="uni2300" horiz-adv-x="1367" unicode="⌀"/><glyph d="M1025 1555c472 0 855 -382 855 -854s-383 -856 -855 -856s-854 384 -854 856s382 854 854 854zM1025 1545c-466 0 -844 -377 -844 -844s378 -846 844 -846s845 379 845 846s-379 844 -845 844zM1098 1131v-827h-10v812l-336 -146v11z" glyph-name="uni2460" horiz-adv-x="2050" unicode="①"/><glyph d="M1025 1555c472 0 855 -382 855 -854s-383 -856 -855 -856s-854 384 -854 856s382 854 854 854zM1025 1545c-466 0 -844 -377 -844 -844s378 -846 844 -846s845 379 845 846s-379 844 -845 844zM792 992l-8 5c38 68 107 134 227 134c160 0 242 -108 242 -234 c0 -99 -53 -174 -113 -237l-334 -346h484v-10h-499v8l342 354c60 62 110 135 110 231c0 120 -78 224 -232 224c-116 0 -182 -62 -219 -129z" glyph-name="uni2461" horiz-adv-x="2050" unicode="②"/><glyph d="M1025 1555c472 0 855 -382 855 -854s-383 -856 -855 -856s-854 384 -854 856s382 854 854 854zM1025 1545c-466 0 -844 -377 -844 -844s378 -846 844 -846s845 379 845 846s-379 844 -845 844zM1012 1131c162 0 263 -89 263 -205c0 -118 -79 -187 -187 -205 c116 -20 205 -95 205 -204c0 -148 -133 -217 -274 -217c-97 0 -186 35 -246 87l7 8c58 -52 144 -86 239 -86c136 0 264 67 264 208c0 121 -114 199 -255 199h-135v10h135c134 0 237 68 237 200c0 111 -96 195 -253 195c-93 0 -183 -45 -230 -103l-8 6c49 60 143 107 238 107 z" glyph-name="uni2462" horiz-adv-x="2050" unicode="③"/><glyph d="M1025 1555c472 0 855 -382 855 -854s-383 -856 -855 -856s-854 384 -854 856s382 854 854 854zM1025 1545c-466 0 -844 -377 -844 -844s378 -846 844 -846s845 379 845 846s-379 844 -845 844zM1140 761v-247h171v-10h-171v-200h-10v200h-424v8l307 615h11l-306 -613h412 v247h10z" glyph-name="uni2463" horiz-adv-x="2050" unicode="④"/><glyph d="M1025 1555c472 0 855 -382 855 -854s-383 -856 -855 -856s-854 384 -854 856s382 854 854 854zM1025 1545c-466 0 -844 -377 -844 -844s378 -846 844 -846s845 379 845 846s-379 844 -845 844zM1264 1127v-10h-405l-15 -340h137c221 0 312 -97 312 -236 c0 -140 -107 -241 -267 -241c-108 0 -196 40 -262 120l8 7c63 -79 149 -117 254 -117c155 0 257 96 257 231c0 133 -86 226 -303 226h-146l15 360h415z" glyph-name="uni2464" horiz-adv-x="2050" unicode="⑤"/><glyph d="M1025 1555c472 0 855 -382 855 -854s-383 -856 -855 -856s-854 384 -854 856s382 854 854 854zM1025 1545c-466 0 -844 -377 -844 -844s378 -846 844 -846s845 379 845 846s-379 844 -845 844zM1057 1127l-231 -390c50 48 120 76 203 76c161 0 276 -110 276 -257 c0 -146 -115 -256 -276 -256c-162 0 -279 110 -279 256c0 45 11 89 32 125l264 446h11zM1029 803c-156 0 -269 -106 -269 -247c0 -140 112 -246 269 -246c156 0 267 106 267 246s-111 247 -267 247z" glyph-name="uni2465" horiz-adv-x="2050" unicode="⑥"/><glyph d="M1025 1555c472 0 855 -382 855 -854s-383 -856 -855 -856s-854 384 -854 856s382 854 854 854zM1025 1545c-466 0 -844 -377 -844 -844s378 -846 844 -846s845 379 845 846s-379 844 -845 844zM1327 1127v-8l-407 -815h-11l406 813h-532v10h544z" glyph-name="uni2466" horiz-adv-x="2050" unicode="⑦"/><glyph d="M1025 1555c472 0 855 -382 855 -854s-383 -856 -855 -856s-854 384 -854 856s382 854 854 854zM1025 1545c-466 0 -844 -377 -844 -844s378 -846 844 -846s845 379 845 846s-379 844 -845 844zM1025 1131c148 0 268 -70 268 -204c0 -119 -88 -187 -204 -205 c128 -17 224 -89 224 -207c0 -142 -129 -215 -288 -215c-158 0 -288 73 -288 215c0 119 96 190 224 207c-116 18 -203 86 -203 205c0 134 120 204 267 204zM1025 1121c-142 0 -258 -66 -258 -194c0 -133 116 -200 258 -200c143 0 258 67 258 200c0 128 -116 194 -258 194z M1025 717c-153 0 -278 -70 -278 -202c0 -136 125 -205 278 -205c154 0 278 69 278 205c0 132 -124 202 -278 202z" glyph-name="uni2467" horiz-adv-x="2050" unicode="⑧"/><glyph d="M1025 1555c472 0 855 -382 855 -854s-383 -856 -855 -856s-854 384 -854 856s382 854 854 854zM1025 1545c-466 0 -844 -377 -844 -844s378 -846 844 -846s845 379 845 846s-379 844 -845 844zM1014 304l230 389c-51 -47 -120 -75 -201 -75c-161 0 -277 110 -277 257 c0 146 115 256 277 256s278 -110 278 -256c0 -46 -10 -89 -31 -125l-264 -446h-12zM1043 628c156 0 269 106 269 247c0 140 -112 246 -269 246s-267 -106 -267 -246c0 -141 110 -247 267 -247z" glyph-name="uni2468" horiz-adv-x="2050" unicode="⑨"/><glyph d="M1025 1555c472 0 855 -382 855 -854s-383 -856 -855 -856s-854 384 -854 856s382 854 854 854zM1025 1545c-466 0 -844 -377 -844 -844s378 -846 844 -846s845 379 845 846s-379 844 -845 844zM1026 1131c187 0 341 -156 341 -415s-154 -416 -341 -416 c-188 0 -342 157 -342 416s154 415 342 415zM1026 1121c-182 0 -332 -151 -332 -405s150 -406 332 -406c181 0 331 152 331 406s-150 405 -331 405z" glyph-name="uni24EA" horiz-adv-x="2050" unicode="⓪"/><glyph d="M1026 1131c-188 0 -342 -156 -342 -415s154 -416 342 -416c187 0 341 157 341 416s-154 415 -341 415zM1026 1121c181 0 331 -151 331 -405s-150 -406 -331 -406c-182 0 -332 152 -332 406s150 405 332 405zM1025 1551c470 0 851 -380 851 -850s-381 -852 -851 -852 s-850 382 -850 852s380 850 850 850z" glyph-name="uni24FF" horiz-adv-x="2050" unicode="⓿"/><glyph d="M200 1400h1400v-1400h-1400v1400z" glyph-name="filledbox" horiz-adv-x="1800" unicode="■"/><glyph d="M200 1400h1400v-1400h-1400v1400zM210 1390v-1380h1380v1380h-1380z" glyph-name="H22073" horiz-adv-x="1800" unicode="□"/><glyph d="M200 1400h700v-1400h-700v1400z" glyph-name="uni25AE" horiz-adv-x="1800" unicode="▌"/><glyph d="M200 1400h700v-1400h-700v1400z" glyph-name="uni25AE" horiz-adv-x="1800" unicode="▮"/><glyph d="M900 1420l820 -1420h-1640z" glyph-name="triagup" horiz-adv-x="1800" unicode="▲"/><glyph d="M900 1420l820 -1420h-1640zM900 1400l-803 -1390h1606z" glyph-name="uni25B3" horiz-adv-x="1800" unicode="△"/><glyph d="M601 796l197 -341h-395z" glyph-name="uni25B4" horiz-adv-x="1200" unicode="▴"/><glyph d="M831 625l-341 -198v396z" glyph-name="uni25B8" horiz-adv-x="1200" unicode="▸"/><glyph d="M900 -20l-820 1420h1640z" glyph-name="triagdn" horiz-adv-x="1800" unicode="▼"/><glyph d="M900 -20l-820 1420h1640zM900 0l803 1390h-1606z" glyph-name="uni25BD" horiz-adv-x="1800" unicode="▽"/><glyph d="M599 455l-197 341h395z" glyph-name="uni25BE" horiz-adv-x="1200" unicode="▾"/><glyph d="M369 625l341 198v-396z" glyph-name="uni25C2" horiz-adv-x="1200" unicode="◂"/><glyph d="M900 1438l738 -738l-738 -738l-738 738z" glyph-name="uni25C6" horiz-adv-x="1800" unicode="◆"/><glyph d="M900 1438l738 -738l-738 -738l-738 738zM900 1424l-724 -724l724 -724l724 724z" glyph-name="uni25C7" horiz-adv-x="1800" unicode="◇"/><glyph d="M1439 700l-655 -700h-14l-655 700l655 700h14zM1425 700l-648 693l-648 -693l648 -693z" glyph-name="lozenge" horiz-adv-x="1554" unicode="◊"/><glyph d="M900 -39c-409 0 -739 331 -739 739s330 739 739 739c408 0 739 -331 739 -739s-331 -739 -739 -739zM900 -29c402 0 729 327 729 729s-327 729 -729 729c-403 0 -729 -327 -729 -729s326 -729 729 -729z" glyph-name="circle" horiz-adv-x="1800" unicode="○"/><glyph d="M900 -39c-409 0 -739 331 -739 739s330 739 739 739c408 0 739 -331 739 -739s-331 -739 -739 -739z" glyph-name="H18533" horiz-adv-x="1800" unicode="●"/><glyph d="M900 -39c-409 0 -739 331 -739 739s330 739 739 739c408 0 739 -331 739 -739s-331 -739 -739 -739zM900 1429v-1458c402 0 729 327 729 729s-327 729 -729 729z" glyph-name="uni25D0" horiz-adv-x="1800" unicode="◐"/><glyph d="M900 1439v-1478c-409 0 -739 331 -739 739s330 739 739 739z" glyph-name="uni25D6" horiz-adv-x="1800" unicode="◖"/><glyph d="M200 1400h1400v-1400h-1400v1400zM900 1390v-1380h690v1380h-690z" glyph-name="uni25E7" horiz-adv-x="1800" unicode="◧"/><glyph d="M253 1547h1694v-1694h-1694v1694zM263 1537v-1674h1674v1674h-1674z" glyph-name="uni2610" horiz-adv-x="2200" unicode="☐"/><glyph d="M253 1547h1694v-1694h-1694v1694zM263 1537v-1674h1674v1674h-1674zM1682 1246l8 -6l-748 -1086l-391 528l8 6l383 -517z" glyph-name="uni2611" horiz-adv-x="2200" unicode="☑"/><glyph d="M1947 1547v-1694h-1694v1694h1694zM1937 1537h-1674v-1674h1674v1674zM592 192l501 501l-508 508l7 7l508 -508l508 508l7 -7l-508 -508l501 -501l-7 -7l-501 501l-501 -501z" glyph-name="uni2612" horiz-adv-x="2200" unicode="☒"/><glyph d="M1131 1105c135 0 234 -104 234 -240c0 -201 -216 -434 -465 -609c-249 175 -465 408 -465 609c0 136 99 240 234 240c122 0 231 -84 231 -182c0 98 109 182 231 182z" glyph-name="heart" horiz-adv-x="1800" unicode="♥"/><glyph d="M1704 1224l8 -6l-798 -1078l-426 465l7 6l418 -455z" glyph-name="uni2713" horiz-adv-x="2200" unicode="✓"/><glyph d="M1031 700l996 -996l-7 -8l-996 997l-997 -997l-7 8l996 996l-996 996l7 8l997 -996l996 996l7 -8z" glyph-name="uni2715" horiz-adv-x="2047" unicode="╳"/><glyph d="M1031 700l996 -996l-7 -8l-996 997l-997 -997l-7 8l996 996l-996 996l7 8l997 -996l996 996l7 -8z" glyph-name="uni2715" horiz-adv-x="2047" unicode="✕"/><glyph d="M1108 700l504 -504l-7 -8l-504 505l-505 -505l-7 8l504 504l-504 504l7 8l505 -504l504 504l7 -8z" glyph-name="uni2717" horiz-adv-x="2200" unicode="✗"/><glyph d="M1025 1551c470 0 851 -380 851 -850s-381 -852 -851 -852s-850 382 -850 852s380 850 850 850zM1098 304v827l-346 -150v-11l336 146v-812h10z" glyph-name="uni278A" horiz-adv-x="2050" unicode="❶"/><glyph d="M1025 1551c470 0 851 -380 851 -850s-381 -852 -851 -852s-850 382 -850 852s380 850 850 850zM1098 304v827l-346 -150v-11l336 146v-812h10z" glyph-name="uni278A" horiz-adv-x="2050" unicode="➊"/><glyph d="M784 997l8 -5c37 67 103 129 219 129c154 0 232 -104 232 -224c0 -96 -50 -169 -110 -231l-342 -354v-8h499v10h-484l334 346c60 63 113 138 113 237c0 126 -82 234 -242 234c-120 0 -189 -66 -227 -134zM1025 1551c470 0 851 -380 851 -850s-381 -852 -851 -852 s-850 382 -850 852s380 850 850 850z" glyph-name="uni278B" horiz-adv-x="2050" unicode="❷"/><glyph d="M784 997l8 -5c37 67 103 129 219 129c154 0 232 -104 232 -224c0 -96 -50 -169 -110 -231l-342 -354v-8h499v10h-484l334 346c60 63 113 138 113 237c0 126 -82 234 -242 234c-120 0 -189 -66 -227 -134zM1025 1551c470 0 851 -380 851 -850s-381 -852 -851 -852 s-850 382 -850 852s380 850 850 850z" glyph-name="uni278B" horiz-adv-x="2050" unicode="➋"/><glyph d="M1025 1551c470 0 851 -380 851 -850s-381 -852 -851 -852s-850 382 -850 852s380 850 850 850zM1012 1131c-95 0 -189 -47 -238 -107l8 -6c47 58 137 103 230 103c157 0 253 -84 253 -195c0 -132 -103 -200 -237 -200h-135v-10h135c141 0 255 -78 255 -199 c0 -141 -128 -207 -264 -207c-95 0 -181 33 -239 85l-7 -8c60 -52 149 -87 246 -87c141 0 274 69 274 217c0 109 -89 184 -205 204c108 18 187 87 187 205c0 116 -101 205 -263 205z" glyph-name="uni278C" horiz-adv-x="2050" unicode="❸"/><glyph d="M1025 1551c470 0 851 -380 851 -850s-381 -852 -851 -852s-850 382 -850 852s380 850 850 850zM1012 1131c-95 0 -189 -47 -238 -107l8 -6c47 58 137 103 230 103c157 0 253 -84 253 -195c0 -132 -103 -200 -237 -200h-135v-10h135c141 0 255 -78 255 -199 c0 -141 -128 -207 -264 -207c-95 0 -181 33 -239 85l-7 -8c60 -52 149 -87 246 -87c141 0 274 69 274 217c0 109 -89 184 -205 204c108 18 187 87 187 205c0 116 -101 205 -263 205z" glyph-name="uni278C" horiz-adv-x="2050" unicode="➌"/><glyph d="M1025 1551c470 0 851 -380 851 -850s-381 -852 -851 -852s-850 382 -850 852s380 850 850 850zM1140 761h-10v-247h-412l306 613h-11l-307 -615v-8h424v-200h10v200h171v10h-171v247z" glyph-name="uni278D" horiz-adv-x="2050" unicode="❹"/><glyph d="M1025 1551c470 0 851 -380 851 -850s-381 -852 -851 -852s-850 382 -850 852s380 850 850 850zM1140 761h-10v-247h-412l306 613h-11l-307 -615v-8h424v-200h10v200h171v10h-171v247z" glyph-name="uni278D" horiz-adv-x="2050" unicode="➍"/><glyph d="M1025 1551c470 0 851 -380 851 -850s-381 -852 -851 -852s-850 382 -850 852s380 850 850 850zM1264 1117v10h-415l-15 -360h146c217 0 303 -93 303 -226c0 -135 -102 -231 -257 -231c-105 0 -191 38 -254 117l-8 -7c66 -80 154 -120 262 -120c160 0 267 101 267 241 c0 139 -91 236 -312 236h-137l15 340h405z" glyph-name="uni278E" horiz-adv-x="2050" unicode="❺"/><glyph d="M1025 1551c470 0 851 -380 851 -850s-381 -852 -851 -852s-850 382 -850 852s380 850 850 850zM1264 1117v10h-415l-15 -360h146c217 0 303 -93 303 -226c0 -135 -102 -231 -257 -231c-105 0 -191 38 -254 117l-8 -7c66 -80 154 -120 262 -120c160 0 267 101 267 241 c0 139 -91 236 -312 236h-137l15 340h405z" glyph-name="uni278E" horiz-adv-x="2050" unicode="➎"/><glyph d="M1025 1551c470 0 851 -380 851 -850s-381 -852 -851 -852s-850 382 -850 852s380 850 850 850zM1057 1127h-11l-263 -444c-21 -36 -33 -82 -33 -127c0 -146 117 -256 279 -256c161 0 276 110 276 256c0 147 -115 257 -276 257c-83 0 -153 -28 -203 -76zM1029 803 c156 0 267 -107 267 -247s-111 -246 -267 -246c-157 0 -269 106 -269 246c0 141 113 247 269 247z" glyph-name="uni278F" horiz-adv-x="2050" unicode="❻"/><glyph d="M1025 1551c470 0 851 -380 851 -850s-381 -852 -851 -852s-850 382 -850 852s380 850 850 850zM1057 1127h-11l-263 -444c-21 -36 -33 -82 -33 -127c0 -146 117 -256 279 -256c161 0 276 110 276 256c0 147 -115 257 -276 257c-83 0 -153 -28 -203 -76zM1029 803 c156 0 267 -107 267 -247s-111 -246 -267 -246c-157 0 -269 106 -269 246c0 141 113 247 269 247z" glyph-name="uni278F" horiz-adv-x="2050" unicode="➏"/><glyph d="M1327 1127h-544v-10h532l-406 -813h11l407 815v8zM1025 1551c470 0 851 -380 851 -850s-381 -852 -851 -852s-850 382 -850 852s380 850 850 850z" glyph-name="uni2790" horiz-adv-x="2050" unicode="❼"/><glyph d="M1327 1127h-544v-10h532l-406 -813h11l407 815v8zM1025 1551c470 0 851 -380 851 -850s-381 -852 -851 -852s-850 382 -850 852s380 850 850 850z" glyph-name="uni2790" horiz-adv-x="2050" unicode="➐"/><glyph d="M1025 1551c470 0 851 -380 851 -850s-381 -852 -851 -852s-850 382 -850 852s380 850 850 850zM1025 1129c-146 0 -266 -70 -266 -203c0 -118 88 -186 202 -204c-127 -17 -223 -88 -223 -206c0 -141 130 -214 287 -214c158 0 287 73 287 214c0 118 -96 189 -223 206 c115 18 203 86 203 204c0 133 -120 203 -267 203zM1025 717c153 0 277 -70 277 -201c0 -135 -124 -204 -277 -204c-152 0 -277 69 -277 204c0 131 125 201 277 201zM1025 1119c141 0 257 -66 257 -193c0 -132 -115 -199 -257 -199c-141 0 -257 67 -257 199 c0 127 116 193 257 193z" glyph-name="uni2791" horiz-adv-x="2050" unicode="❽"/><glyph d="M1025 1551c470 0 851 -380 851 -850s-381 -852 -851 -852s-850 382 -850 852s380 850 850 850zM1025 1129c-146 0 -266 -70 -266 -203c0 -118 88 -186 202 -204c-127 -17 -223 -88 -223 -206c0 -141 130 -214 287 -214c158 0 287 73 287 214c0 118 -96 189 -223 206 c115 18 203 86 203 204c0 133 -120 203 -267 203zM1025 717c153 0 277 -70 277 -201c0 -135 -124 -204 -277 -204c-152 0 -277 69 -277 204c0 131 125 201 277 201zM1025 1119c141 0 257 -66 257 -193c0 -132 -115 -199 -257 -199c-141 0 -257 67 -257 199 c0 127 116 193 257 193z" glyph-name="uni2791" horiz-adv-x="2050" unicode="➑"/><glyph d="M1025 1551c470 0 851 -380 851 -850s-381 -852 -851 -852s-850 382 -850 852s380 850 850 850zM1014 304h12l263 445c21 36 32 80 32 126c0 146 -116 256 -278 256s-277 -110 -277 -256c0 -147 116 -257 277 -257c81 0 150 28 201 75zM1043 628c-157 0 -267 106 -267 247 c0 140 110 246 267 246s269 -106 269 -246c0 -141 -113 -247 -269 -247z" glyph-name="uni2792" horiz-adv-x="2050" unicode="❾"/><glyph d="M1025 1551c470 0 851 -380 851 -850s-381 -852 -851 -852s-850 382 -850 852s380 850 850 850zM1014 304h12l263 445c21 36 32 80 32 126c0 146 -116 256 -278 256s-277 -110 -277 -256c0 -147 116 -257 277 -257c81 0 150 28 201 75zM1043 628c-157 0 -267 106 -267 247 c0 140 110 246 267 246s269 -106 269 -246c0 -141 -113 -247 -269 -247z" glyph-name="uni2792" horiz-adv-x="2050" unicode="➒"/><glyph d="M1030 824h420l-339 -247l130 -400l-340 247l-339 -247l129 400l-340 247h421l129 400z" glyph-name="uni2B51" horiz-adv-x="1800" unicode="⭑"/><glyph d="M1030 824h420l-339 -247l130 -400l-340 247l-339 -247l129 400l-340 247h421l129 400zM1022 814l-121 377l-122 -377h-398l321 -233l-122 -378l321 233l320 -233l-122 378l320 233h-397z" glyph-name="uni2B52" horiz-adv-x="1800" unicode="⭒"/><glyph d="M746 808v-10l-537 -196v10zM746 488v-10l-537 -196v10z" glyph-name="uni2E17" horiz-adv-x="955" unicode="⸗"/><glyph d="M310 1440h10v-455h195v-10h-195v-195h-10v195h-195v10h195v455z" glyph-name="uni2E38" horiz-adv-x="630" unicode="⸸"/><glyph d="M1030 824h420l-339 -247l130 -400l-340 247l-339 -247l129 400l-340 247h421l129 400zM1023 814l-122 377v-755l321 -233l-123 378l320 233h-396z" glyph-name="uniEA00" horiz-adv-x="1800" unicode=""/><glyph d="M901 424l-339 -247l129 400l-340 247h421l129 400v-800z" glyph-name="uniEA01" horiz-adv-x="1800" unicode=""/><glyph d="M833 922v-10h-489v-912h-10v912h-274v10h274v163c0 223 77 360 300 360c95 0 182 -30 240 -69l-6 -8c-56 37 -141 67 -234 67c-217 0 -290 -133 -290 -350v-163h489zM1702 922v-10h-489v-912h-10v912h-274v10h274v163c0 223 77 360 300 360c95 0 182 -30 240 -69l-6 -8 c-56 37 -141 67 -234 67c-217 0 -290 -133 -290 -350v-163h489z" glyph-name="uniFB00" horiz-adv-x="1778" unicode="ﬀ"/><glyph d="M833 922v-10h-489v-912h-10v912h-274v10h274v163c0 223 77 360 300 360c95 0 182 -30 240 -69l-6 -8c-56 37 -141 67 -234 67c-217 0 -290 -133 -290 -350v-163h489zM1120 922v-922h-10v922h10zM1120 1320v-114h-10v114h10z" glyph-name="fi" horiz-adv-x="1321" unicode="ﬁ"/><glyph d="M833 922v-10h-489v-912h-10v912h-274v10h274v163c0 223 77 360 300 360c95 0 182 -30 240 -69l-6 -8c-56 37 -141 67 -234 67c-217 0 -290 -133 -290 -350v-163h489zM1120 1440v-1440h-10v1440h10z" glyph-name="fl" horiz-adv-x="1321" unicode="ﬂ"/><glyph d="M833 922v-10h-489v-912h-10v912h-274v10h274v163c0 223 77 360 300 360c95 0 182 -30 240 -69l-6 -8c-56 37 -141 67 -234 67c-217 0 -290 -133 -290 -350v-163h489zM1702 922v-10h-489v-912h-10v912h-274v10h274v163c0 223 77 360 300 360c95 0 182 -30 240 -69l-6 -8 c-56 37 -141 67 -234 67c-217 0 -290 -133 -290 -350v-163h489zM1989 922v-922h-10v922h10zM1989 1320v-114h-10v114h10z" glyph-name="uniFB03" horiz-adv-x="2190" unicode="ﬃ"/><glyph d="M833 922v-10h-489v-912h-10v912h-274v10h274v163c0 223 77 360 300 360c95 0 182 -30 240 -69l-6 -8c-56 37 -141 67 -234 67c-217 0 -290 -133 -290 -350v-163h489zM1702 922v-10h-489v-912h-10v912h-274v10h274v163c0 223 77 360 300 360c95 0 182 -30 240 -69l-6 -8 c-56 37 -141 67 -234 67c-217 0 -290 -133 -290 -350v-163h489zM1989 1440v-1440h-10v1440h10z" glyph-name="uniFB04" horiz-adv-x="2190" unicode="ﬄ"/><glyph d="M1392 922v-10h-505v-617c0 -192 101 -290 270 -290c103 0 188 32 243 89l8 -6c-57 -59 -144 -93 -251 -93c-173 0 -280 101 -280 300v617h-245v10h245v147c0 220 -134 366 -338 366s-338 -146 -338 -366v-1069h-10v1069c0 226 139 376 348 376s348 -150 348 -376v-147 h505z" glyph-name="uniFB05" horiz-adv-x="1474" unicode="ﬅ"/><glyph d="M807 817l-6 -8c-69 56 -196 108 -343 108c-182 0 -324 -84 -324 -232c0 -107 67 -190 274 -209l143 -13c181 -16 283 -87 283 -220c0 -172 -167 -248 -372 -248c-178 0 -286 57 -361 116l6 8c78 -62 186 -114 355 -114c199 0 362 72 362 238c0 124 -93 194 -273 210 l-143 13c-214 19 -284 108 -284 219c0 154 146 242 334 242c149 0 278 -53 349 -110zM1755 922v-10h-505v-617c0 -192 101 -290 270 -290c103 0 188 32 243 89l8 -6c-57 -59 -144 -93 -251 -93c-173 0 -280 101 -280 300v617h-245v10h245v326h10v-326h505z" glyph-name="uniFB06" horiz-adv-x="1837" unicode="ﬆ"/><glyph d="M-586 1052h-10l22 388h10z" glyph-name="uni030C.alt001"/><glyph d="M-427 -316l8 -6c-43 -54 -97 -83 -159 -83c-93 0 -161 55 -161 142s82 181 171 270l9 -7c-90 -88 -170 -181 -170 -263s63 -132 151 -132c59 0 110 27 151 79z" glyph-name="uni0328.alt001"/><glyph d="M-592 4h18c-106 -66 -187 -132 -187 -238c0 -97 77 -161 184 -161c69 0 134 27 183 79l8 -6c-51 -54 -118 -83 -191 -83c-113 0 -194 69 -194 171c0 107 77 173 179 238z" glyph-name="uni0328.alt002"/><glyph d="M-427 -316l8 -6c-43 -54 -98 -83 -159 -83c-93 0 -161 55 -161 142c0 116 111 193 297 272l4 -9c-183 -78 -291 -152 -291 -263c0 -82 63 -132 151 -132c59 0 110 27 151 79z" glyph-name="uni0328.alt003"/><glyph d="M-394 -316l8 -6c-51 -54 -118 -83 -191 -83c-113 0 -194 69 -194 171c0 136 125 209 283 299l3 -7c-154 -90 -276 -163 -276 -292c0 -97 77 -161 184 -161c69 0 134 27 183 79z" glyph-name="uni0328.alt004"/><glyph d="M211 922v-922h-10v922h10zM211 1320v-114h-10v114h10z" glyph-name="i.latn_TRK" horiz-adv-x="412"/><glyph d="M211 922v-1165c0 -103 -38 -162 -132 -162c-48 0 -89 18 -115 37l6 8c25 -19 65 -35 109 -35c87 0 122 53 122 152v1165h10zM137 1052h-13l251 300h13z" glyph-name="j.latn_NLD" horiz-adv-x="412"/><glyph d="M1131 10v-10h-901v1400h10v-1390h891zM819 756v-114h-10v114h10z" glyph-name="Ldot.latn_CAT" horiz-adv-x="1177"/><glyph d="M211 1440v-1440h-10v1440h10zM425 781v-114h-10v114h10z" glyph-name="ldot.latn_CAT" horiz-adv-x="435"/><glyph d="M392 1401c154 0 281 -135 281 -360s-127 -360 -281 -360c-155 0 -282 135 -282 360s127 360 282 360zM392 1391c-149 0 -272 -130 -272 -350c0 -219 123 -350 272 -350s271 131 271 350c0 220 -122 350 -271 350z" glyph-name="zero.numr" horiz-adv-x="783"/><glyph d="M340 1401v-717h-10v702l-275 -119v11z" glyph-name="one.numr" horiz-adv-x="516"/><glyph d="M79 1279l-8 6c33 58 91 116 198 116c138 0 209 -94 209 -203c0 -86 -45 -152 -97 -206l-288 -298h418v-10h-433v8l295 306c52 54 95 117 95 200c0 104 -67 193 -199 193c-102 0 -158 -55 -190 -112z" glyph-name="two.numr" horiz-adv-x="588"/><glyph d="M257 1401c127 0 214 -76 214 -178c0 -101 -65 -162 -154 -178c96 -16 169 -82 169 -176c0 -128 -109 -188 -223 -188c-89 0 -155 29 -208 76l7 8c51 -46 116 -74 201 -74c110 0 213 56 213 178c0 105 -95 171 -211 171h-111v10h111c111 0 196 60 196 173 c0 96 -83 168 -204 168c-84 0 -151 -37 -193 -90l-8 6c44 54 112 94 201 94z" glyph-name="three.numr" horiz-adv-x="580"/><glyph d="M420 1082v-215h148v-10h-148v-173h-10v173h-366v9l266 532h11l-265 -531h354v215h10z" glyph-name="four.numr" horiz-adv-x="612"/><glyph d="M505 1398v-10h-351l-13 -293h129c170 0 259 -82 259 -203c0 -127 -94 -211 -231 -211c-94 0 -170 35 -227 105l8 6c55 -68 129 -101 219 -101c133 0 221 80 221 201c0 114 -84 193 -250 193h-138l14 313h360z" glyph-name="five.numr" horiz-adv-x="628"/><glyph d="M334 1398l-198 -334c43 39 102 62 171 62c140 0 240 -96 240 -223s-100 -222 -240 -222s-241 96 -241 222c0 40 10 77 29 110l227 385h12zM307 1116c-135 0 -230 -91 -231 -213c0 -121 97 -212 231 -212s230 90 230 212s-96 213 -230 213z" glyph-name="six.numr" horiz-adv-x="618"/><glyph d="M537 1398v-8l-352 -706h-11l351 704h-459v10h471z" glyph-name="seven.numr" horiz-adv-x="592"/><glyph d="M344 1401c126 0 232 -62 232 -178c0 -100 -74 -159 -169 -177c106 -17 187 -78 187 -179c0 -124 -113 -187 -250 -187s-250 63 -250 187c0 101 81 162 187 179c-95 18 -169 77 -169 177c0 116 106 178 232 178zM344 1041c-132 0 -240 -61 -240 -174 c0 -117 108 -177 240 -177s240 60 240 177c0 113 -108 174 -240 174zM344 1391c-121 0 -222 -58 -222 -168c0 -114 101 -172 222 -172s222 58 222 172c0 110 -101 168 -222 168z" glyph-name="eight.numr" horiz-adv-x="688"/><glyph d="M284 684l197 333c-42 -38 -101 -61 -170 -61c-140 0 -240 96 -240 223s100 222 240 222s241 -96 241 -222c0 -40 -10 -77 -29 -110l-227 -385h-12zM311 966c135 0 230 91 231 213c0 121 -97 212 -231 212s-230 -90 -230 -212s96 -213 230 -213z" glyph-name="nine.numr" horiz-adv-x="618"/><glyph d="M392 717c154 0 281 -135 281 -360s-127 -360 -281 -360c-155 0 -282 135 -282 360s127 360 282 360zM392 707c-149 0 -272 -130 -272 -350c0 -219 123 -350 272 -350s271 131 271 350c0 220 -122 350 -271 350z" glyph-name="zero.dnom" horiz-adv-x="783"/><glyph d="M340 717v-717h-10v702l-275 -119v11z" glyph-name="one.dnom" horiz-adv-x="516"/><glyph d="M79 595l-8 6c33 58 91 116 198 116c138 0 209 -94 209 -203c0 -86 -45 -152 -97 -206l-288 -298h418v-10h-433v8l295 306c52 54 95 117 95 200c0 104 -67 193 -199 193c-102 0 -158 -55 -190 -112z" glyph-name="two.dnom" horiz-adv-x="588"/><glyph d="M257 717c127 0 214 -76 214 -178c0 -101 -65 -162 -154 -178c96 -16 169 -82 169 -176c0 -128 -109 -188 -223 -188c-89 0 -155 29 -208 76l7 8c51 -46 116 -74 201 -74c110 0 213 56 213 178c0 105 -95 171 -211 171h-111v10h111c111 0 196 60 196 173 c0 96 -83 168 -204 168c-84 0 -151 -37 -193 -90l-8 6c44 54 112 94 201 94z" glyph-name="three.dnom" horiz-adv-x="580"/><glyph d="M420 398v-215h148v-10h-148v-173h-10v173h-366v9l266 532h11l-265 -531h354v215h10z" glyph-name="four.dnom" horiz-adv-x="612"/><glyph d="M505 714v-10h-351l-13 -293h129c170 0 259 -82 259 -203c0 -127 -94 -211 -231 -211c-94 0 -170 35 -227 105l8 6c55 -68 129 -101 219 -101c133 0 221 80 221 201c0 114 -84 193 -250 193h-138l14 313h360z" glyph-name="five.dnom" horiz-adv-x="628"/><glyph d="M334 714l-198 -334c43 39 102 62 171 62c140 0 240 -96 240 -223s-100 -222 -240 -222s-241 96 -241 222c0 40 10 77 29 110l227 385h12zM307 432c-135 0 -230 -91 -231 -213c0 -121 97 -212 231 -212s230 90 230 212s-96 213 -230 213z" glyph-name="six.dnom" horiz-adv-x="618"/><glyph d="M537 714v-8l-352 -706h-11l351 704h-459v10h471z" glyph-name="seven.dnom" horiz-adv-x="592"/><glyph d="M344 717c126 0 232 -62 232 -178c0 -100 -74 -159 -169 -177c106 -17 187 -78 187 -179c0 -124 -113 -187 -250 -187s-250 63 -250 187c0 101 81 162 187 179c-95 18 -169 77 -169 177c0 116 106 178 232 178zM344 357c-132 0 -240 -61 -240 -174 c0 -117 108 -177 240 -177s240 60 240 177c0 113 -108 174 -240 174zM344 707c-121 0 -222 -58 -222 -168c0 -114 101 -172 222 -172s222 58 222 172c0 110 -101 168 -222 168z" glyph-name="eight.dnom" horiz-adv-x="688"/><glyph d="M284 0l197 333c-42 -38 -101 -61 -170 -61c-140 0 -240 96 -240 223s100 222 240 222s241 -96 241 -222c0 -40 -10 -77 -29 -110l-227 -385h-12zM311 282c135 0 230 91 231 213c0 121 -97 212 -231 212s-230 -90 -230 -212s96 -213 230 -213z" glyph-name="nine.dnom" horiz-adv-x="618"/><glyph glyph-name="space.frac" horiz-adv-x="104"/><glyph d="M469 1315c177 0 314 -136 314 -317c0 -182 -137 -318 -314 -318c-150 0 -269 97 -303 236v-232h-10v979h10v-583c34 138 153 235 303 235zM469 1305c-173 0 -303 -132 -303 -307c0 -176 130 -308 303 -308c172 0 304 132 304 308c0 175 -132 307 -304 307z" glyph-name="b.ordn" horiz-adv-x="884"/><glyph d="M414 1315c91 0 171 -36 227 -95l-7 -6c-55 57 -132 91 -220 91c-172 0 -303 -132 -303 -307c0 -176 131 -308 303 -308c88 0 165 35 220 91l7 -6c-56 -59 -136 -95 -227 -95c-178 0 -313 137 -313 318s135 317 313 317z" glyph-name="c.ordn" horiz-adv-x="742"/><glyph d="M415 1315c150 0 270 -98 303 -238v586h10v-979h-10v234c-33 -140 -153 -238 -303 -238c-178 0 -314 136 -314 318c0 181 136 317 314 317zM415 1305c-173 0 -304 -132 -304 -307c0 -176 131 -308 304 -308c172 0 303 132 303 308c0 175 -131 307 -303 307z" glyph-name="d.ordn" horiz-adv-x="884"/><glyph d="M411 1315c158 0 287 -131 291 -311v-5h-591v-2c0 -178 126 -307 300 -307c117 0 190 47 250 117l7 -7c-83 -97 -172 -120 -257 -120c-179 0 -310 134 -310 317c0 182 139 318 310 318zM411 1305c-162 0 -294 -126 -300 -296h580c-5 170 -128 296 -280 296z" glyph-name="e.ordn" horiz-adv-x="803"/><glyph d="M166 1663v-541c30 112 132 193 262 193c163 0 271 -93 271 -257v-374h-10v374c0 150 -94 247 -262 247c-144 0 -261 -109 -261 -253v-368h-10v979h10z" glyph-name="h.ordn" horiz-adv-x="847"/><glyph d="M166 1663v-979h-10v979h10z" glyph-name="l.ordn" horiz-adv-x="322"/><glyph d="M960 1315c164 0 272 -93 272 -257v-374h-10v374c0 150 -94 247 -262 247c-144 0 -261 -109 -261 -253v-368h-10v374c0 150 -94 247 -262 247c-144 0 -261 -109 -261 -253v-368h-10v628h10v-190c30 112 132 193 262 193c145 0 246 -74 267 -206c26 120 131 206 265 206z" glyph-name="m.ordn" horiz-adv-x="1380"/><glyph d="M378 1316c45 0 89 -10 123 -30l-5 -9c-32 20 -75 29 -118 29c-122 0 -212 -110 -212 -258v-364h-10v628h10v-185c25 109 104 189 212 189z" glyph-name="r.ordn" horiz-adv-x="562"/><glyph d="M570 1241l-5 -8c-47 37 -133 72 -233 72c-123 0 -218 -56 -218 -155c0 -72 47 -129 185 -141l95 -8c124 -10 194 -60 194 -151c0 -117 -113 -170 -254 -170c-119 0 -194 38 -246 79l6 8c53 -42 126 -77 240 -77c135 0 244 48 244 160c0 83 -62 130 -184 141l-96 9 c-146 13 -194 73 -194 150c0 105 99 165 228 165c101 0 189 -36 238 -74z" glyph-name="s.ordn" horiz-adv-x="676"/><glyph d="M578 1312v-10h-341v-417c0 -129 68 -195 181 -195c70 0 127 22 165 60l6 -6c-39 -40 -98 -64 -171 -64c-118 0 -191 69 -191 205v417h-166v10h166v221h10v-221h341z" glyph-name="t.ordn" horiz-adv-x="653"/><glyph d="M699 1312v-375c0 -155 -109 -257 -272 -257c-162 0 -271 102 -271 257v375h10v-375c0 -149 104 -247 261 -247c158 0 262 98 262 247v375h10z" glyph-name="u.ordn" horiz-adv-x="855"/><glyph d="M411 1315c158 0 287 -131 291 -311v-5h-591v-2c0 -178 126 -307 300 -307c117 0 190 47 250 117l7 -7c-83 -97 -172 -120 -257 -120c-179 0 -310 134 -310 317c0 182 139 318 310 318zM411 1306c-162 0 -294 -127 -300 -297h580c-5 170 -128 297 -280 297zM449 1400 l-171 204h13l170 -204h-12z" glyph-name="egrave.ordn" horiz-adv-x="803"/><glyph d="M651 1005c284 0 516 -201 516 -502c0 -308 -232 -508 -516 -508s-516 210 -516 508c0 301 232 502 516 502zM651 995c-279 0 -506 -197 -506 -492c0 -292 227 -498 506 -498s506 196 506 498c0 295 -227 492 -506 492z" glyph-name="zero.osf" horiz-adv-x="1302"/><glyph d="M521 1008v-1008h-10v994l-437 -158v11z" glyph-name="one.osf" horiz-adv-x="737"/><glyph d="M96 806l-8 6c63 80 174 193 379 193c251 0 379 -159 379 -330c0 -138 -70 -271 -299 -409l-425 -256h798v-10h-820v8l441 266c228 137 295 266 295 401c0 166 -123 320 -369 320c-201 0 -308 -109 -371 -189z" glyph-name="two.osf" horiz-adv-x="1014"/><glyph d="M456 1005c249 0 421 -149 421 -345c0 -207 -137 -326 -323 -351c198 -27 353 -156 353 -347c0 -250 -215 -367 -439 -367c-170 0 -298 57 -400 147l7 8c100 -90 225 -145 393 -145c221 0 429 113 429 357c0 210 -189 342 -419 342h-219v10h219c221 0 389 119 389 346 c0 192 -165 335 -411 335c-166 0 -294 -73 -377 -178l-9 6c85 105 216 182 386 182z" glyph-name="three.osf" horiz-adv-x="1022"/><glyph d="M756 432v-422h315v-10h-315v-400h-10v400h-692v9l494 991h11l-494 -990h681v422h10z" glyph-name="four.osf" horiz-adv-x="1125"/><glyph d="M936 1000v-10h-692l-28 -588h237c349 0 530 -145 530 -416c0 -235 -181 -391 -451 -391c-184 0 -333 68 -444 205l8 6c109 -135 254 -201 436 -201c266 0 441 150 441 381c0 267 -174 406 -520 406h-247l28 608h702z" glyph-name="five.osf" horiz-adv-x="1104"/><glyph d="M594 1400l-401 -681c85 90 211 145 359 145c273 0 469 -187 469 -435c0 -247 -196 -434 -469 -434c-274 0 -471 187 -471 434c0 77 17 148 53 209l448 762h12zM552 854c-269 0 -460 -182 -461 -425c0 -242 191 -424 461 -424c269 0 459 182 459 424 c0 243 -190 425 -459 425z" glyph-name="six.osf" horiz-adv-x="1109"/><glyph d="M1003 1000v-8l-694 -1392h-11l693 1390h-910v10h922z" glyph-name="seven.osf" horiz-adv-x="1084"/><glyph d="M583 1405c237 0 434 -130 434 -346c0 -199 -154 -323 -353 -350c219 -25 387 -153 387 -351c0 -231 -211 -364 -468 -364s-468 133 -468 364c0 198 168 326 387 351c-199 27 -353 151 -353 350c0 216 197 346 434 346zM583 704c-252 0 -458 -130 -458 -346 c0 -225 206 -354 458 -354s458 129 458 354c0 216 -206 346 -458 346zM583 1395c-233 0 -424 -126 -424 -336c0 -219 191 -345 424 -345s424 126 424 345c0 210 -191 336 -424 336z" glyph-name="eight.osf" horiz-adv-x="1166"/><glyph d="M515 -400l400 680c-84 -89 -211 -144 -358 -144c-273 0 -469 187 -469 435c0 247 196 434 469 434c274 0 471 -187 471 -434c0 -77 -17 -148 -53 -209l-448 -762h-12zM557 146c269 0 460 182 461 425c0 242 -191 424 -461 424c-269 0 -459 -182 -459 -424 c0 -243 190 -425 459 -425z" glyph-name="nine.osf" horiz-adv-x="1109"/><glyph d="M600 1405c289 0 496 -247 496 -704c0 -458 -207 -706 -496 -706s-496 248 -496 706c0 457 207 704 496 704zM600 1395c-283 0 -486 -243 -486 -694c0 -452 203 -696 486 -696s486 244 486 696c0 451 -203 694 -486 694z" glyph-name="zero.tf" horiz-adv-x="1200"/><glyph d="M173 10h473v1381l-479 -171v11l489 174v-1395h437v-10h-920v10z" glyph-name="one.tf" horiz-adv-x="1200"/><glyph d="M188 1173l-9 5c64 114 178 227 385 227c271 0 408 -184 408 -396c0 -168 -89 -298 -191 -403l-574 -596h831v-10h-847v8l582 604c102 106 189 231 189 397c0 208 -134 386 -398 386c-202 0 -313 -109 -376 -222z" glyph-name="two.tf" horiz-adv-x="1200"/><glyph d="M558 1405c249 0 421 -149 421 -345c0 -207 -136 -326 -323 -351c200 -27 353 -156 353 -347c0 -250 -215 -367 -439 -367c-170 0 -298 57 -400 147l7 8c100 -90 227 -145 393 -145c219 0 429 113 429 357c0 210 -189 342 -419 342h-219v10h219c221 0 389 119 389 346 c0 190 -167 335 -411 335c-164 0 -294 -73 -377 -178l-9 6c85 105 216 182 386 182z" glyph-name="three.tf" horiz-adv-x="1200"/><glyph d="M837 776v-422h295v-10h-295v-344h-10v344h-722v9l522 1047h11l-521 -1046h710v422h10z" glyph-name="four.tf" horiz-adv-x="1200"/><glyph d="M986 1400v-10h-692l-28 -588h257c335 0 510 -159 510 -394c0 -249 -181 -413 -451 -413c-184 0 -333 68 -444 205l8 6c109 -135 256 -201 436 -201c264 0 441 159 441 403c0 228 -170 384 -500 384h-267l28 608h702z" glyph-name="five.tf" horiz-adv-x="1200"/><glyph d="M642 1400l-401 -681c85 90 211 145 359 145c273 0 469 -187 469 -435s-196 -434 -469 -434c-274 0 -471 187 -471 434c0 77 17 148 53 209l448 762h12zM600 854c-269 0 -460 -182 -461 -425c0 -242 193 -424 461 -424c267 0 459 181 459 424s-192 425 -459 425z" glyph-name="six.tf" horiz-adv-x="1200"/><glyph d="M1070 1400v-8l-694 -1392h-11l693 1390h-910v10h922z" glyph-name="seven.tf" horiz-adv-x="1200"/><glyph d="M600 1405c247 0 454 -120 454 -346c0 -207 -160 -325 -366 -350c226 -25 400 -145 400 -351c0 -241 -221 -364 -488 -364s-488 123 -488 364c0 206 174 326 400 351c-207 25 -366 143 -366 350c0 226 207 346 454 346zM600 704c-264 0 -478 -121 -478 -346 c0 -234 215 -354 478 -354s478 120 478 354c0 225 -214 346 -478 346zM600 1395c-242 0 -444 -116 -444 -336c0 -229 202 -345 444 -345s444 116 444 345c0 220 -202 336 -444 336z" glyph-name="eight.tf" horiz-adv-x="1200"/><glyph d="M558 0l400 680c-84 -89 -211 -144 -358 -144c-273 0 -469 187 -469 435c0 247 196 434 469 434c274 0 471 -187 471 -434c0 -77 -17 -148 -53 -209l-448 -762h-12zM600 546c269 0 460 182 461 425c0 241 -192 424 -461 424c-268 0 -459 -183 -459 -424 c0 -242 191 -425 459 -425z" glyph-name="nine.tf" horiz-adv-x="1200"/><glyph glyph-name="uni2007.tf" horiz-adv-x="1200"/><glyph d="M600 1005c273 0 496 -191 496 -502c0 -318 -223 -508 -496 -508s-496 200 -496 508c0 311 223 502 496 502zM600 995c-267 0 -486 -187 -486 -492c0 -302 219 -498 486 -498s486 186 486 498c0 305 -219 492 -486 492z" glyph-name="zero.tosf" horiz-adv-x="1200"/><glyph d="M210 10h453v985l-459 -130v10l469 133v-998h417v-10h-880v10z" glyph-name="one.tosf" horiz-adv-x="1200"/><glyph d="M223 806l-8 6c63 80 174 193 379 193c251 0 379 -159 379 -330c0 -138 -70 -271 -299 -409l-425 -256h798v-10h-820v8l441 266c228 137 295 266 295 401c0 166 -123 320 -369 320c-201 0 -308 -109 -371 -189z" glyph-name="two.tosf" horiz-adv-x="1200"/><glyph d="M574 1005c249 0 421 -149 421 -345c0 -207 -137 -326 -323 -351c198 -27 353 -156 353 -347c0 -250 -215 -367 -439 -367c-170 0 -298 57 -400 147l7 8c100 -90 225 -145 393 -145c221 0 429 113 429 357c0 210 -189 342 -419 342h-219v10h219c221 0 389 119 389 346 c0 192 -165 335 -411 335c-166 0 -294 -73 -377 -178l-9 6c85 105 216 182 386 182z" glyph-name="three.tosf" horiz-adv-x="1200"/><glyph d="M818 432v-422h315v-10h-315v-400h-10v400h-692v9l494 991h11l-494 -990h681v422h10z" glyph-name="four.tosf" horiz-adv-x="1200"/><glyph d="M981 1000v-10h-692l-28 -588h237c349 0 530 -145 530 -416c0 -235 -181 -391 -451 -391c-184 0 -333 68 -444 205l8 6c109 -135 254 -201 436 -201c266 0 441 150 441 381c0 267 -174 406 -520 406h-247l28 608h702z" glyph-name="five.tosf" horiz-adv-x="1200"/><glyph d="M646 1400l-401 -681c85 90 211 145 359 145c273 0 469 -187 469 -435c0 -247 -196 -434 -469 -434c-274 0 -471 187 -471 434c0 77 17 148 53 209l448 762h12zM604 854c-269 0 -460 -182 -461 -425c0 -242 191 -424 461 -424c269 0 459 182 459 424 c0 243 -190 425 -459 425z" glyph-name="six.tosf" horiz-adv-x="1200"/><glyph d="M1088 1000v-8l-694 -1392h-11l693 1390h-910v10h922z" glyph-name="seven.tosf" horiz-adv-x="1200"/><glyph d="M611 1405c237 0 434 -130 434 -346c0 -199 -154 -323 -353 -350c219 -25 387 -153 387 -351c0 -231 -211 -364 -468 -364s-468 133 -468 364c0 198 168 326 387 351c-199 27 -353 151 -353 350c0 216 197 346 434 346zM611 704c-252 0 -458 -130 -458 -346 c0 -225 206 -354 458 -354s458 129 458 354c0 216 -206 346 -458 346zM611 1395c-233 0 -424 -126 -424 -336c0 -219 191 -345 424 -345s424 126 424 345c0 210 -191 336 -424 336z" glyph-name="eight.tosf" horiz-adv-x="1200"/><glyph d="M554 -400l400 680c-84 -89 -211 -144 -358 -144c-273 0 -469 187 -469 435c0 247 196 434 469 434c274 0 471 -187 471 -434c0 -77 -17 -148 -53 -209l-448 -762h-12zM596 146c269 0 460 182 461 425c0 242 -191 424 -461 424c-269 0 -459 -182 -459 -424 c0 -243 190 -425 459 -425z" glyph-name="nine.tosf" horiz-adv-x="1200"/><glyph glyph-name="uni2007.tosf" horiz-adv-x="1200"/><glyph d="M260 1003v-712h-10v712h10zM260 82v-82h-10v82h10z" glyph-name="exclam.sc" horiz-adv-x="510"/><glyph d="M235 720h178l64 283h11l-64 -283h388l64 283h11l-64 -283h184l-2 -10h-184l-93 -414h184l-2 -10h-184l-64 -286h-10l64 286h-389l-64 -286h-10l64 286h-179l2 10h179l92 414h-178zM422 710l-93 -414h389l92 414h-388z" glyph-name="numbersign.sc" horiz-adv-x="1145"/><glyph d="M591 1146h10v-138c152 -3 280 -56 352 -107l-6 -8c-71 51 -196 102 -346 105v-488l87 -8c195 -19 292 -109 292 -238c0 -184 -168 -266 -379 -269v-138h-10v138c-144 1 -296 62 -371 109l6 8c73 -47 223 -107 365 -107v496l-58 6c-219 21 -292 125 -292 238 c0 167 152 263 345 263h5v138zM687 492l-86 8v-495c208 2 369 81 369 259c0 125 -91 209 -283 228zM251 745c0 -109 69 -207 283 -228l57 -6v487h-5c-191 0 -335 -92 -335 -253z" glyph-name="dollar.sc" horiz-adv-x="1200"/><glyph d="M340 1008c133 0 235 -101 235 -234c0 -135 -102 -236 -235 -236c-128 0 -230 101 -230 236c0 133 102 234 230 234zM340 998c-124 0 -220 -95 -220 -224c0 -131 96 -226 220 -226c129 0 225 95 225 226c0 129 -96 224 -225 224zM1012 1003l-634 -1003h-12l634 1003h12z M1033 465c132 0 234 -101 234 -235s-102 -235 -234 -235c-129 0 -231 101 -231 235s102 235 231 235zM1033 455c-125 0 -221 -95 -221 -225s96 -225 221 -225c128 0 224 95 224 225s-96 225 -224 225z" glyph-name="percent.sc" horiz-adv-x="1377"/><glyph d="M968 0h-14l-233 221c-90 -119 -177 -226 -332 -226c-154 0 -263 92 -263 221c0 167 130 249 254 330c-124 116 -182 177 -182 268c0 101 89 194 205 194c117 0 205 -90 205 -187c0 -132 -103 -205 -212 -276l324 -309l203 272l8 -6l-204 -273zM389 5 c150 0 236 104 325 223l-327 311c-123 -80 -251 -160 -251 -323c0 -124 105 -211 253 -211zM208 814c0 -87 57 -146 180 -262c109 71 210 142 210 269c0 93 -82 177 -195 177c-112 0 -195 -87 -195 -184z" glyph-name="ampersand.sc" horiz-adv-x="1004"/><glyph d="M485 1102l2 -10c-195 -57 -339 -302 -339 -590s144 -533 339 -590l-2 -10c-199 59 -347 310 -347 600s148 541 347 600z" glyph-name="parenleft.sc" horiz-adv-x="579"/><glyph d="M94 -98l-2 10c195 57 339 302 339 590s-144 533 -339 590l2 10c199 -59 347 -310 347 -600s-148 -541 -347 -600z" glyph-name="parenright.sc" horiz-adv-x="579"/><glyph d="M118 867l189 -62v198h10v-198l186 62l3 -10l-186 -62l116 -158l-8 -6l-116 158l-116 -158l-8 6l115 158l-188 62z" glyph-name="asterisk.sc" horiz-adv-x="621"/><glyph d="M617 1003l-514 -1003h-11l514 1003h11z" glyph-name="slash.sc" horiz-adv-x="709"/><glyph d="M564 1008c228 0 416 -190 416 -506s-188 -507 -416 -507s-416 191 -416 507s188 506 416 506zM564 998c-222 0 -406 -185 -406 -496s184 -497 406 -497s406 186 406 497s-184 496 -406 496z" glyph-name="zero.sc" horiz-adv-x="1128"/><glyph d="M495 1008v-1008h-10v993l-411 -179v11z" glyph-name="one.sc" horiz-adv-x="732"/><glyph d="M105 840l-9 4c46 84 130 164 276 164c195 0 294 -132 294 -285c0 -121 -65 -212 -138 -289l-408 -424h592v-10h-608v8l417 432c74 76 135 166 135 283c0 147 -95 275 -284 275c-142 0 -222 -76 -267 -158z" glyph-name="two.sc" horiz-adv-x="816"/><glyph d="M372 1008c186 0 313 -108 313 -249c0 -145 -99 -230 -233 -251c144 -22 255 -114 255 -249c0 -180 -164 -264 -336 -264c-117 0 -224 43 -297 106l7 8c71 -63 175 -104 290 -104c168 0 326 81 326 254c0 148 -140 244 -313 244h-165v10h165c165 0 291 84 291 246 c0 135 -122 239 -303 239c-121 0 -227 -55 -289 -126l-8 6c64 73 174 130 297 130z" glyph-name="three.sc" horiz-adv-x="833"/><glyph d="M586 556v-301h210v-10h-210v-245h-10v245h-517v8l374 750h11l-373 -748h505v301h10z" glyph-name="four.sc" horiz-adv-x="855"/><glyph d="M705 1003v-10h-495l-19 -417h168c251 0 381 -105 381 -300c0 -168 -130 -281 -325 -281c-131 0 -239 49 -319 147l8 6c78 -96 182 -143 311 -143c189 0 315 108 315 271c0 189 -125 290 -371 290h-178l19 437h505z" glyph-name="five.sc" horiz-adv-x="873"/><glyph d="M461 1003l-285 -482c61 62 149 99 252 99c196 0 337 -134 337 -313c0 -178 -140 -312 -337 -312s-339 134 -339 312c0 55 12 107 38 151l322 545h12zM428 610c-191 0 -329 -130 -329 -303c0 -172 137 -302 329 -302s327 130 327 302s-135 303 -327 303z" glyph-name="six.sc" horiz-adv-x="861"/><glyph d="M751 1003v-8l-497 -995h-11l496 993h-650v10h662z" glyph-name="seven.sc" horiz-adv-x="840"/><glyph d="M477 1007c179 0 326 -86 326 -249c0 -145 -108 -229 -251 -250c157 -20 275 -108 275 -252c0 -173 -157 -262 -350 -262s-351 89 -351 262c0 144 118 232 275 252c-142 21 -250 105 -250 250c0 163 147 249 326 249zM477 503c-188 0 -341 -86 -341 -247 c0 -167 153 -252 341 -252s340 85 340 252c0 161 -152 247 -340 247zM477 997c-174 0 -316 -82 -316 -239c0 -163 141 -245 316 -245s316 82 316 245c0 157 -142 239 -316 239z" glyph-name="eight.sc" horiz-adv-x="953"/><glyph d="M400 0l285 481c-62 -62 -149 -98 -252 -98c-196 0 -337 134 -337 313c0 178 140 312 337 312s339 -134 339 -312c0 -55 -12 -107 -38 -151l-322 -545h-12zM433 393c191 0 329 130 329 303c0 172 -137 302 -329 302s-327 -130 -327 -302s135 -303 327 -303z" glyph-name="nine.sc" horiz-adv-x="861"/><glyph d="M292 291h-10v214h7c196 0 325 98 325 247c0 148 -141 246 -318 246c-23 0 -46 -1 -65 -3l-1 10c19 2 42 3 66 3c180 0 328 -102 328 -256c0 -152 -135 -256 -332 -257v-204zM292 82v-82h-10v82h10z" glyph-name="question.sc" horiz-adv-x="744"/><glyph d="M983 784v-383c0 -107 49 -146 108 -146c107 0 179 113 179 262c0 345 -248 541 -547 541c-304 0 -547 -241 -547 -541c0 -304 243 -548 547 -548c123 0 236 39 327 107l6 -8c-93 -68 -208 -109 -333 -109c-308 0 -557 250 -557 558c0 304 249 551 557 551 c303 0 557 -202 557 -551c0 -151 -76 -272 -189 -272c-63 0 -118 45 -118 156v38c-32 -115 -132 -194 -259 -194c-149 0 -268 117 -268 272c0 154 119 272 268 272c127 0 227 -80 259 -194v189h10zM714 779c-145 0 -258 -112 -258 -262c0 -151 113 -262 258 -262 c150 0 259 111 259 262c0 150 -109 262 -259 262z" glyph-name="at.sc" horiz-adv-x="1446"/><glyph d="M478 -85v-10h-248v1194h248v-10h-238v-1174h238z" glyph-name="bracketleft.sc" horiz-adv-x="570"/><glyph d="M606 0l-514 1003h11l514 -1003h-11z" glyph-name="backslash.sc" horiz-adv-x="709"/><glyph d="M92 1089v10h248v-1194h-248v10h238v1174h-238z" glyph-name="bracketright.sc" horiz-adv-x="570"/><glyph d="M539 1007l494 -1007h-11l-162 331h-647l-162 -331h-11l493 1007h6zM536 991l-318 -650h637z" glyph-name="a.sc" horiz-adv-x="1073"/><glyph d="M230 1003h425c220 0 366 -73 366 -247c0 -146 -105 -221 -270 -240c178 -17 289 -96 289 -255c0 -183 -151 -261 -375 -261h-435v1003zM665 511h-425v-501h425c219 0 365 74 365 251c0 178 -144 250 -365 250zM655 993h-415v-472h415c215 0 356 69 356 235 c0 168 -141 237 -356 237z" glyph-name="b.sc" horiz-adv-x="1178"/><glyph d="M640 1008c164 0 315 -77 395 -203l-8 -6c-78 124 -227 199 -387 199c-271 0 -492 -200 -492 -496c0 -297 221 -497 492 -497c162 0 309 75 387 199l8 -6c-80 -126 -231 -203 -395 -203c-276 0 -502 204 -502 507c0 302 226 506 502 506z" glyph-name="c.sc" horiz-adv-x="1175"/><glyph d="M230 1003h367c315 0 531 -198 531 -502c0 -303 -216 -501 -531 -501h-367v1003zM597 993h-357v-983h357c310 0 521 194 521 491c0 298 -211 492 -521 492z" glyph-name="d.sc" horiz-adv-x="1266"/><glyph d="M939 10v-10h-709v1003h709v-10h-699v-484h684v-10h-684v-489h699z" glyph-name="e.sc" horiz-adv-x="1123"/><glyph d="M923 509v-10h-683v-499h-10v1003h701v-10h-691v-484h683z" glyph-name="f.sc" horiz-adv-x="1069"/><glyph d="M639 1008c156 0 297 -70 389 -182l-8 -6c-90 110 -229 178 -381 178c-270 0 -491 -200 -491 -496s221 -497 491 -497c264 0 460 184 462 494h-417v10h427v-10c-2 -316 -203 -504 -472 -504c-275 0 -501 205 -501 507s226 506 501 506z" glyph-name="g.sc" horiz-adv-x="1249"/><glyph d="M240 1003v-494h828v494h10v-1003h-10v499h-828v-499h-10v1003h10z" glyph-name="h.sc" horiz-adv-x="1308"/><glyph d="M240 1003v-1003h-10v1003h10z" glyph-name="i.sc" horiz-adv-x="470"/><glyph d="M747 1003v-639c0 -236 -163 -369 -379 -369c-138 0 -244 54 -308 111l7 8c63 -57 166 -109 301 -109c210 0 369 128 369 359v639h10z" glyph-name="j.sc" horiz-adv-x="965"/><glyph d="M240 1003v-494h179l568 494h15l-573 -499l602 -504h-16l-596 499h-179v-499h-10v1003h10z" glyph-name="k.sc" horiz-adv-x="1081"/><glyph d="M939 10v-10h-709v1003h10v-993h699z" glyph-name="l.sc" horiz-adv-x="985"/><glyph d="M1306 1008v-1008h-10v982l-525 -843h-6l-525 843v-982h-10v1008h6l532 -856l532 856h6z" glyph-name="m.sc" horiz-adv-x="1536"/><glyph d="M1068 1003v-1008h-8l-820 992v-987h-10v1008h5l823 -995v990h10z" glyph-name="n.sc" horiz-adv-x="1298"/><glyph d="M641 1008c277 0 503 -204 503 -506c0 -303 -226 -507 -503 -507s-503 204 -503 507c0 302 226 506 503 506zM641 998c-272 0 -492 -199 -492 -496c0 -298 220 -497 492 -497s492 199 492 497c0 297 -220 496 -492 496z" glyph-name="o.sc" horiz-adv-x="1282"/><glyph d="M620 1003c230 0 388 -102 388 -290s-158 -290 -388 -290h-380v-423h-10v1003h390zM620 993h-380v-560h380c226 0 378 99 378 280s-152 280 -378 280z" glyph-name="p.sc" horiz-adv-x="1128"/><glyph d="M641 1008c277 0 503 -204 503 -506c0 -129 -41 -241 -110 -327l150 -175h-13l-144 168c-92 -109 -231 -173 -386 -173c-277 0 -503 204 -503 507c0 302 226 506 503 506zM746 514l281 -330c66 83 106 191 106 318c0 297 -220 496 -492 496s-492 -199 -492 -496 c0 -298 220 -497 492 -497c153 0 289 63 379 171l-287 338h13z" glyph-name="q.sc" horiz-adv-x="1282"/><glyph d="M620 1003c217 0 366 -92 366 -268c0 -174 -149 -267 -366 -267h-119l478 -468h-14l-478 468h-247v-468h-10v1003h390zM620 993h-380v-515h380c213 0 356 90 356 257c0 169 -143 258 -356 258z" glyph-name="r.sc" horiz-adv-x="1106"/><glyph d="M930 895l-6 -8c-77 55 -221 111 -384 111c-209 0 -369 -92 -369 -253c0 -116 74 -205 311 -227l170 -16c215 -20 320 -94 320 -237c0 -187 -189 -270 -427 -270c-148 0 -282 38 -407 116l5 8c125 -77 257 -114 402 -114c232 0 417 79 417 260c0 138 -102 208 -309 227 l-173 16c-242 22 -319 117 -319 237c0 167 165 263 379 263c167 0 312 -57 390 -113z" glyph-name="s.sc" horiz-adv-x="1110"/><glyph d="M934 1003v-10h-439v-993h-10v993h-439v10h888z" glyph-name="t.sc" horiz-adv-x="980"/><glyph d="M1051 1003v-619c0 -257 -189 -389 -422 -389s-422 132 -422 389v619h10v-619c0 -251 184 -379 412 -379s412 128 412 379v619h10z" glyph-name="u.sc" horiz-adv-x="1258"/><glyph d="M1028 1003l-491 -1008h-6l-491 1008h11l483 -992l483 992h11z" glyph-name="v.sc" horiz-adv-x="1068"/><glyph d="M1694 1003l-408 -1008h-8l-399 997l-399 -997h-8l-408 1008h11l401 -991l399 996h8l399 -997l401 992h11z" glyph-name="w.sc" horiz-adv-x="1758"/><glyph d="M995 1003l-440 -487l466 -516h-13l-460 510l-460 -510h-13l465 516l-439 487h13l434 -480l434 480h13z" glyph-name="x.sc" horiz-adv-x="1096"/><glyph d="M932 1003l-455 -541v-462h-10v462l-455 541h13l447 -531l447 531h13z" glyph-name="y.sc" horiz-adv-x="944"/><glyph d="M989 1003v-8l-836 -985h842v-10h-857v8l836 985h-812v10h827z" glyph-name="z.sc" horiz-adv-x="1133"/><glyph d="M541 1089h-60c-102 0 -174 -60 -164 -221l9 -139c9 -140 -51 -209 -137 -227c86 -18 146 -87 137 -226l-9 -139c-11 -162 62 -222 164 -222h60v-10h-60c-106 0 -185 66 -174 232l9 139c11 161 -69 221 -178 221v10c109 0 189 60 178 222l-9 138c-11 166 68 232 174 232 h60v-10z" glyph-name="braceleft.sc" horiz-adv-x="633"/><glyph d="M152 1089h-60v10h60c106 0 185 -66 174 -232l-9 -138c-11 -162 69 -222 178 -222v-10c-109 0 -189 -60 -178 -221l9 -139c11 -166 -68 -232 -174 -232h-60v10h60c102 0 175 60 164 222l-9 139c-9 139 51 208 137 226c-86 18 -146 87 -137 227l9 139 c10 161 -62 221 -164 221z" glyph-name="braceright.sc" horiz-adv-x="633"/><glyph d="M250 0v712h10v-712h-10zM250 921v82h10v-82h-10z" glyph-name="exclamdown.sc" horiz-adv-x="510"/><glyph d="M656 836c101 0 190 -38 252 -99l-7 -8c-61 61 -146 97 -245 97h-16v-650h16c99 0 184 36 245 97l7 -8c-62 -61 -151 -99 -252 -99h-16v-166h-10v167c-183 12 -320 152 -320 334s137 322 320 334v167h10v-166h16zM320 501c0 -178 132 -312 310 -324v648 c-178 -12 -310 -146 -310 -324z" glyph-name="cent.sc" horiz-adv-x="1200"/><glyph d="M942 10v-10h-704v10h147v486h-147v10h147v192c0 202 128 310 288 310c106 0 195 -49 249 -146l-8 -4c-54 93 -137 140 -241 140c-154 0 -278 -102 -278 -300v-192h425v-10h-425v-486h547z" glyph-name="sterling.sc" horiz-adv-x="1200"/><glyph d="M301 793l7 8l101 -102c50 48 117 77 192 77c73 0 141 -30 190 -77l102 102l7 -8l-101 -102c47 -49 77 -116 77 -190s-30 -142 -78 -191l102 -102l-7 -8l-102 102c-50 -47 -117 -76 -190 -76c-74 0 -142 29 -191 76l-102 -102l-8 8l102 102c-48 49 -77 117 -77 191 s29 141 77 191zM601 236c147 0 265 117 265 265s-118 265 -265 265c-149 0 -266 -117 -266 -265s117 -265 266 -265z" glyph-name="currency.sc" horiz-adv-x="1200"/><glyph d="M925 296v-10h-321v-286h-10v286h-317v10h317v204h-317v10h314l-387 493h13l382 -487l385 487h13l-390 -493h318v-10h-321v-204h321z" glyph-name="yen.sc" horiz-adv-x="1200"/><glyph d="M844 893l-6 -8c-68 57 -190 113 -334 113c-181 0 -319 -77 -319 -210c0 -106 97 -176 269 -190l147 -12c151 -12 279 -79 279 -201c0 -90 -55 -153 -143 -189c77 -32 129 -86 129 -163c0 -156 -160 -227 -362 -227c-162 0 -294 67 -366 120l7 7c71 -52 200 -117 359 -117 c196 0 352 67 352 217c0 114 -125 176 -270 189l-147 13c-179 16 -280 88 -280 200c0 86 56 154 142 187c-82 35 -126 91 -126 166c0 139 143 220 329 220c147 0 273 -58 340 -115zM454 588c-54 4 -102 14 -141 29c-89 -35 -144 -98 -144 -182c0 -106 96 -174 270 -190 l147 -13c49 -5 97 -15 138 -30c89 33 146 95 146 183c0 115 -123 179 -270 191z" glyph-name="section.sc" horiz-adv-x="1018"/><glyph d="M724 1059c306 0 557 -251 557 -558s-251 -558 -557 -558c-308 0 -558 251 -558 558s250 558 558 558zM724 1049c-304 0 -548 -245 -548 -548s244 -548 548 -548c302 0 547 245 547 548s-245 548 -547 548zM976 681l-8 -6c-46 72 -132 116 -227 116 c-159 0 -288 -115 -288 -290s129 -290 288 -290c95 0 181 44 227 116l8 -6c-48 -74 -138 -120 -235 -120c-163 0 -298 121 -298 300s135 300 298 300c97 0 187 -46 235 -120z" glyph-name="copyright.sc" horiz-adv-x="1447"/><glyph d="M397 1006l330 -745h-11l-109 244h-432l-108 -244h-11l330 745h11zM391 992l-212 -477h424z" glyph-name="ordfeminine.sc" horiz-adv-x="783"/><glyph d="M264 591c-115 0 -209 94 -209 209c0 114 94 208 209 208s208 -94 208 -208c0 -115 -93 -209 -208 -209zM264 601c111 0 198 88 198 199c0 110 -87 198 -198 198s-199 -88 -199 -198c0 -111 88 -199 199 -199z" glyph-name="degree.sc" horiz-adv-x="527"/><glyph d="M475 1006c205 0 371 -150 371 -374s-166 -374 -371 -374c-206 0 -372 150 -372 374s166 374 372 374zM475 996c-200 0 -362 -146 -362 -364s162 -364 362 -364s361 146 361 364s-161 364 -361 364z" glyph-name="ordmasculine.sc" horiz-adv-x="949"/><glyph d="M452 712h10v-214h-7c-196 0 -325 -98 -325 -247c0 -148 141 -246 318 -246c23 0 46 1 65 3l1 -10c-19 -2 -42 -3 -66 -3c-180 0 -328 102 -328 256c0 152 135 256 332 257v204zM452 921v82h10v-82h-10z" glyph-name="questiondown.sc" horiz-adv-x="744"/><glyph d="M930 895l-6 -8c-77 55 -221 111 -384 111c-209 0 -369 -92 -369 -253c0 -116 74 -205 311 -227l170 -16c215 -20 320 -94 320 -237c0 -187 -189 -270 -427 -270c-148 0 -282 38 -407 116l5 8c125 -77 257 -114 402 -114c232 0 417 79 417 260c0 138 -102 208 -309 227 l-173 16c-242 22 -319 117 -319 237c0 167 165 263 379 263c167 0 312 -57 390 -113zM2040 895l-6 -8c-77 55 -221 111 -384 111c-209 0 -369 -92 -369 -253c0 -116 74 -205 311 -227l170 -16c215 -20 320 -94 320 -237c0 -187 -189 -270 -427 -270c-148 0 -282 38 -407 116 l5 8c125 -77 257 -114 402 -114c232 0 417 79 417 260c0 138 -102 208 -309 227l-173 16c-242 22 -319 117 -319 237c0 167 165 263 379 263c167 0 312 -57 390 -113z" glyph-name="germandbls.sc" horiz-adv-x="2220"/><glyph d="M539 1007l494 -1007h-11l-162 331h-647l-162 -331h-11l493 1007h6zM536 991l-318 -650h637zM595 1133l-251 300h13l251 -300h-13z" glyph-name="agrave.sc" horiz-adv-x="1073"/><glyph d="M539 1007l494 -1007h-11l-162 331h-647l-162 -331h-11l493 1007h6zM536 991l-318 -650h637zM467 1133h-13l251 300h13z" glyph-name="aacute.sc" horiz-adv-x="1073"/><glyph d="M539 1007l494 -1007h-11l-162 331h-647l-162 -331h-11l493 1007h6zM536 991l-318 -650h637zM826 1157h-15l-275 249l-275 -249h-15l289 262h2z" glyph-name="acircumflex.sc" horiz-adv-x="1073"/><glyph d="M539 1007l494 -1007h-11l-162 331h-647l-162 -331h-11l493 1007h6zM536 991l-318 -650h637zM259 1241l-8 6c44 69 92 108 171 108c132 0 140 -106 268 -106c75 0 119 35 163 104l8 -6c-44 -69 -92 -108 -171 -108c-132 0 -140 106 -268 106c-75 0 -119 -35 -163 -104z" glyph-name="atilde.sc" horiz-adv-x="1073"/><glyph d="M539 1007l494 -1007h-11l-162 331h-647l-162 -331h-11l493 1007h6zM536 991l-318 -650h637zM331 1351v-114h-10v114h10zM751 1351v-114h-10v114h10z" glyph-name="adieresis.sc" horiz-adv-x="1073"/><glyph d="M539 1007l494 -1007h-11l-162 331h-647l-162 -331h-11l493 1007h6zM536 991l-318 -650h637zM536 1128c-98 0 -179 81 -179 179s81 179 179 179s179 -81 179 -179s-81 -179 -179 -179zM536 1138c94 0 169 75 169 169s-75 169 -169 169s-169 -75 -169 -169 s75 -169 169 -169z" glyph-name="aring.sc" horiz-adv-x="1073"/><glyph d="M1521 10v-10h-709v332h-511l-256 -332h-13l774 1003h715v-10h-699v-484h684v-10h-684v-489h699zM308 342h504v652z" glyph-name="ae.sc" horiz-adv-x="1705"/><glyph d="M640 1008c164 0 315 -77 395 -203l-8 -6c-78 124 -227 199 -387 199c-271 0 -492 -200 -492 -496c0 -297 221 -497 492 -497c162 0 309 75 387 199l8 -6c-80 -126 -231 -203 -395 -203h-26l-101 -321h-11l101 322c-259 16 -465 216 -465 506c0 302 226 506 502 506z" glyph-name="ccedilla.sc" horiz-adv-x="1175"/><glyph d="M939 10v-10h-709v1003h709v-10h-699v-484h684v-10h-684v-489h699zM647 1133l-251 300h13l251 -300h-13z" glyph-name="egrave.sc" horiz-adv-x="1123"/><glyph d="M939 10v-10h-709v1003h709v-10h-699v-484h684v-10h-684v-489h699zM519 1133h-13l251 300h13z" glyph-name="eacute.sc" horiz-adv-x="1123"/><glyph d="M939 10v-10h-709v1003h709v-10h-699v-484h684v-10h-684v-489h699zM878 1157h-15l-275 249l-275 -249h-15l289 262h2z" glyph-name="ecircumflex.sc" horiz-adv-x="1123"/><glyph d="M939 10v-10h-709v1003h709v-10h-699v-484h684v-10h-684v-489h699zM383 1351v-114h-10v114h10zM803 1351v-114h-10v114h10z" glyph-name="edieresis.sc" horiz-adv-x="1123"/><glyph d="M240 1003v-1003h-10v1003h10zM294 1133l-251 300h13l251 -300h-13z" glyph-name="igrave.sc" horiz-adv-x="470"/><glyph d="M240 1003v-1003h-10v1003h10zM166 1133h-13l251 300h13z" glyph-name="iacute.sc" horiz-adv-x="470"/><glyph d="M240 1003v-1003h-10v1003h10zM525 1157h-15l-275 249l-275 -249h-15l289 262h2z" glyph-name="icircumflex.sc" horiz-adv-x="470"/><glyph d="M240 1003v-1003h-10v1003h10zM30 1351v-114h-10v114h10zM450 1351v-114h-10v114h10z" glyph-name="idieresis.sc" horiz-adv-x="470"/><glyph d="M425 1003h367c315 0 531 -198 531 -502c0 -303 -216 -501 -531 -501h-367v515h-287v10h287v478zM828 525v-10h-393v-505h357c310 0 521 194 521 491c0 298 -211 492 -521 492h-357v-468h393z" glyph-name="eth.sc" horiz-adv-x="1461"/><glyph d="M1068 1003v-1008h-8l-820 992v-987h-10v1008h5l823 -995v990h10zM372 1241l-8 6c44 69 92 108 171 108c132 0 140 -106 268 -106c75 0 119 35 163 104l8 -6c-44 -69 -92 -108 -171 -108c-132 0 -140 106 -268 106c-75 0 -119 -35 -163 -104z" glyph-name="ntilde.sc" horiz-adv-x="1298"/><glyph d="M641 1008c277 0 503 -204 503 -506c0 -303 -226 -507 -503 -507s-503 204 -503 507c0 302 226 506 503 506zM641 998c-272 0 -492 -199 -492 -496c0 -298 220 -497 492 -497s492 199 492 497c0 297 -220 496 -492 496zM700 1133l-251 300h13l251 -300h-13z" glyph-name="ograve.sc" horiz-adv-x="1282"/><glyph d="M641 1008c277 0 503 -204 503 -506c0 -303 -226 -507 -503 -507s-503 204 -503 507c0 302 226 506 503 506zM641 998c-272 0 -492 -199 -492 -496c0 -298 220 -497 492 -497s492 199 492 497c0 297 -220 496 -492 496zM572 1133h-13l251 300h13z" glyph-name="oacute.sc" horiz-adv-x="1282"/><glyph d="M641 1008c277 0 503 -204 503 -506c0 -303 -226 -507 -503 -507s-503 204 -503 507c0 302 226 506 503 506zM641 998c-272 0 -492 -199 -492 -496c0 -298 220 -497 492 -497s492 199 492 497c0 297 -220 496 -492 496zM931 1157h-15l-275 249l-275 -249h-15l289 262h2z" glyph-name="ocircumflex.sc" horiz-adv-x="1282"/><glyph d="M641 1008c277 0 503 -204 503 -506c0 -303 -226 -507 -503 -507s-503 204 -503 507c0 302 226 506 503 506zM641 998c-272 0 -492 -199 -492 -496c0 -298 220 -497 492 -497s492 199 492 497c0 297 -220 496 -492 496zM364 1241l-8 6c44 69 92 108 171 108 c132 0 140 -106 268 -106c75 0 119 35 163 104l8 -6c-44 -69 -92 -108 -171 -108c-132 0 -140 106 -268 106c-75 0 -119 -35 -163 -104z" glyph-name="otilde.sc" horiz-adv-x="1282"/><glyph d="M641 1008c277 0 503 -204 503 -506c0 -303 -226 -507 -503 -507s-503 204 -503 507c0 302 226 506 503 506zM641 998c-272 0 -492 -199 -492 -496c0 -298 220 -497 492 -497s492 199 492 497c0 297 -220 496 -492 496zM436 1351v-114h-10v114h10zM856 1351v-114h-10v114 h10z" glyph-name="odieresis.sc" horiz-adv-x="1282"/><glyph d="M642 1008c139 0 266 -53 357 -142l141 142l8 -7l-142 -142c86 -88 139 -211 139 -357c0 -303 -226 -507 -503 -507c-140 0 -267 51 -358 142l-141 -141l-8 7l142 141c-85 89 -138 212 -138 358c0 302 226 506 503 506zM1134 502c0 143 -52 263 -135 350l-708 -708 c89 -88 213 -139 351 -139c272 0 492 199 492 497zM642 998c-272 0 -492 -199 -492 -496c0 -144 51 -265 134 -351l708 708c-89 88 -213 139 -350 139z" glyph-name="oslash.sc" horiz-adv-x="1282"/><glyph d="M1051 1003v-619c0 -257 -189 -389 -422 -389s-422 132 -422 389v619h10v-619c0 -251 184 -379 412 -379s412 128 412 379v619h10zM688 1133l-251 300h13l251 -300h-13z" glyph-name="ugrave.sc" horiz-adv-x="1258"/><glyph d="M1051 1003v-619c0 -257 -189 -389 -422 -389s-422 132 -422 389v619h10v-619c0 -251 184 -379 412 -379s412 128 412 379v619h10zM560 1133h-13l251 300h13z" glyph-name="uacute.sc" horiz-adv-x="1258"/><glyph d="M1051 1003v-619c0 -257 -189 -389 -422 -389s-422 132 -422 389v619h10v-619c0 -251 184 -379 412 -379s412 128 412 379v619h10zM919 1157h-15l-275 249l-275 -249h-15l289 262h2z" glyph-name="ucircumflex.sc" horiz-adv-x="1258"/><glyph d="M1051 1003v-619c0 -257 -189 -389 -422 -389s-422 132 -422 389v619h10v-619c0 -251 184 -379 412 -379s412 128 412 379v619h10zM424 1351v-114h-10v114h10zM844 1351v-114h-10v114h10z" glyph-name="udieresis.sc" horiz-adv-x="1258"/><glyph d="M932 1003l-455 -541v-462h-10v462l-455 541h13l447 -531l447 531h13zM403 1133h-13l251 300h13z" glyph-name="yacute.sc" horiz-adv-x="944"/><glyph d="M240 1003v-201h360c230 0 388 -102 388 -290s-158 -290 -388 -290h-360v-222h-10v1003h10zM600 792h-360v-560h360c226 0 378 99 378 280s-152 280 -378 280z" glyph-name="thorn.sc" horiz-adv-x="1108"/><glyph d="M932 1003l-455 -541v-462h-10v462l-455 541h13l447 -531l447 531h13zM267 1351v-114h-10v114h10zM687 1351v-114h-10v114h10z" glyph-name="ydieresis.sc" horiz-adv-x="944"/><glyph d="M539 1007l494 -1007h-11l-162 331h-647l-162 -331h-11l493 1007h6zM536 991l-318 -650h637zM263 1278v10h547v-10h-547z" glyph-name="amacron.sc" horiz-adv-x="1073"/><glyph d="M539 1007l494 -1007h-11l-162 331h-647l-162 -331h-11l493 1007h6zM536 991l-318 -650h637zM258 1407l10 2c34 -150 133 -231 268 -231s233 81 268 231l10 -2c-36 -154 -139 -239 -278 -239s-243 85 -278 239z" glyph-name="abreve.sc" horiz-adv-x="1073"/><glyph d="M1044 -316l8 -6c-43 -54 -98 -83 -159 -83c-93 0 -161 55 -161 142c0 117 107 191 287 268l-159 326h-647l-162 -331h-11l493 1007h6l494 -1007c-189 -79 -291 -152 -291 -263c0 -82 63 -132 151 -132c59 0 110 27 151 79zM536 991l-318 -650h637z" glyph-name="aogonek.sc" horiz-adv-x="1073"/><glyph d="M640 1008c164 0 315 -77 395 -203l-8 -6c-78 124 -227 199 -387 199c-271 0 -492 -200 -492 -496c0 -297 221 -497 492 -497c162 0 309 75 387 199l8 -6c-80 -126 -231 -203 -395 -203c-276 0 -502 204 -502 507c0 302 226 506 502 506zM563 1133h-13l251 300h13z" glyph-name="cacute.sc" horiz-adv-x="1175"/><glyph d="M640 1008c164 0 315 -77 395 -203l-8 -6c-78 124 -227 199 -387 199c-271 0 -492 -200 -492 -496c0 -297 221 -497 492 -497c162 0 309 75 387 199l8 -6c-80 -126 -231 -203 -395 -203c-276 0 -502 204 -502 507c0 302 226 506 502 506zM922 1157h-15l-275 249l-275 -249 h-15l289 262h2z" glyph-name="ccircumflex.sc" horiz-adv-x="1175"/><glyph d="M640 1008c164 0 315 -77 395 -203l-8 -6c-78 124 -227 199 -387 199c-271 0 -492 -200 -492 -496c0 -297 221 -497 492 -497c162 0 309 75 387 199l8 -6c-80 -126 -231 -203 -395 -203c-276 0 -502 204 -502 507c0 302 226 506 502 506zM637 1351v-114h-10v114h10z" glyph-name="cdotaccent.sc" horiz-adv-x="1175"/><glyph d="M640 1008c164 0 315 -77 395 -203l-8 -6c-78 124 -227 199 -387 199c-271 0 -492 -200 -492 -496c0 -297 221 -497 492 -497c162 0 309 75 387 199l8 -6c-80 -126 -231 -203 -395 -203c-276 0 -502 204 -502 507c0 302 226 506 502 506zM342 1413h15l275 -249l275 249h15 l-289 -262h-2z" glyph-name="ccaron.sc" horiz-adv-x="1175"/><glyph d="M230 1003h367c315 0 531 -198 531 -502c0 -303 -216 -501 -531 -501h-367v1003zM597 993h-357v-983h357c310 0 521 194 521 491c0 298 -211 492 -521 492zM322 1413h15l275 -249l275 249h15l-289 -262h-2z" glyph-name="dcaron.sc" horiz-adv-x="1266"/><glyph d="M425 1003h367c315 0 531 -198 531 -502c0 -303 -216 -501 -531 -501h-367v515h-287v10h287v478zM828 525v-10h-393v-505h357c310 0 521 194 521 491c0 298 -211 492 -521 492h-357v-468h393z" glyph-name="dcroat.sc" horiz-adv-x="1461"/><glyph d="M939 10v-10h-709v1003h709v-10h-699v-484h684v-10h-684v-489h699zM315 1278v10h547v-10h-547z" glyph-name="emacron.sc" horiz-adv-x="1123"/><glyph d="M939 10v-10h-709v1003h709v-10h-699v-484h684v-10h-684v-489h699zM310 1407l10 2c34 -150 133 -231 268 -231s233 81 268 231l10 -2c-36 -154 -139 -239 -278 -239s-243 85 -278 239z" glyph-name="ebreve.sc" horiz-adv-x="1123"/><glyph d="M939 10v-10h-709v1003h709v-10h-699v-484h684v-10h-684v-489h699zM593 1351v-114h-10v114h10z" glyph-name="edotaccent.sc" horiz-adv-x="1123"/><glyph d="M939 10v-10h-183c-103 -64 -180 -130 -180 -234c0 -97 77 -161 184 -161c69 0 134 27 183 79l8 -6c-51 -54 -118 -83 -191 -83c-113 0 -194 69 -194 171c0 105 74 171 173 234h-509v1003h709v-10h-699v-484h684v-10h-684v-489h699z" glyph-name="eogonek.sc" horiz-adv-x="1123"/><glyph d="M939 10v-10h-709v1003h709v-10h-699v-484h684v-10h-684v-489h699zM298 1413h15l275 -249l275 249h15l-289 -262h-2z" glyph-name="ecaron.sc" horiz-adv-x="1123"/><glyph d="M639 1008c156 0 297 -70 389 -182l-8 -6c-90 110 -229 178 -381 178c-270 0 -491 -200 -491 -496s221 -497 491 -497c264 0 460 184 462 494h-417v10h427v-10c-2 -316 -203 -504 -472 -504c-275 0 -501 205 -501 507s226 506 501 506zM929 1157h-15l-275 249l-275 -249 h-15l289 262h2z" glyph-name="gcircumflex.sc" horiz-adv-x="1249"/><glyph d="M639 1008c156 0 297 -70 389 -182l-8 -6c-90 110 -229 178 -381 178c-270 0 -491 -200 -491 -496s221 -497 491 -497c264 0 460 184 462 494h-417v10h427v-10c-2 -316 -203 -504 -472 -504c-275 0 -501 205 -501 507s226 506 501 506zM361 1407l10 2 c34 -150 133 -231 268 -231s233 81 268 231l10 -2c-36 -154 -139 -239 -278 -239s-243 85 -278 239z" glyph-name="gbreve.sc" horiz-adv-x="1249"/><glyph d="M639 1008c156 0 297 -70 389 -182l-8 -6c-90 110 -229 178 -381 178c-270 0 -491 -200 -491 -496s221 -497 491 -497c264 0 460 184 462 494h-417v10h427v-10c-2 -316 -203 -504 -472 -504c-275 0 -501 205 -501 507s226 506 501 506zM644 1351v-114h-10v114h10z" glyph-name="gdotaccent.sc" horiz-adv-x="1249"/><glyph d="M639 1008c156 0 297 -70 389 -182l-8 -6c-90 110 -229 178 -381 178c-270 0 -491 -200 -491 -496s221 -497 491 -497c264 0 460 184 462 494h-417v10h427v-10c-2 -316 -203 -504 -472 -504c-275 0 -501 205 -501 507s226 506 501 506zM647 -90h10l-52 -310h-10z" glyph-name="gcommaaccent.sc" horiz-adv-x="1249"/><glyph d="M240 1003v-494h828v494h10v-1003h-10v499h-828v-499h-10v1003h10zM944 1157h-15l-275 249l-275 -249h-15l289 262h2z" glyph-name="hcircumflex.sc" horiz-adv-x="1308"/><glyph d="M1217 765v-10h-139v-755h-10v499h-828v-499h-10v755h-140v10h140v238h10v-238h828v238h10v-238h139zM240 509h828v246h-828v-246z" glyph-name="hbar.sc" horiz-adv-x="1308"/><glyph d="M240 1003v-1003h-10v1003h10zM-42 1241l-8 6c44 69 92 108 171 108c132 0 140 -106 268 -106c75 0 119 35 163 104l8 -6c-44 -69 -92 -108 -171 -108c-132 0 -140 106 -268 106c-75 0 -119 -35 -163 -104z" glyph-name="itilde.sc" horiz-adv-x="470"/><glyph d="M240 1003v-1003h-10v1003h10zM-38 1278v10h547v-10h-547z" glyph-name="imacron.sc" horiz-adv-x="470"/><glyph d="M240 1003v-1003h-10v1003h10zM-43 1407l10 2c34 -150 133 -231 268 -231s233 81 268 231l10 -2c-36 -154 -139 -239 -278 -239s-243 85 -278 239z" glyph-name="ibreve.sc" horiz-adv-x="470"/><glyph d="M372 -316l8 -6c-43 -54 -97 -83 -159 -83c-93 0 -161 55 -161 142c0 97 81 180 170 268v998h10v-1003c-90 -87 -170 -171 -170 -263c0 -82 63 -132 151 -132c59 0 110 27 151 79z" glyph-name="iogonek.sc" horiz-adv-x="470"/><glyph d="M240 1003v-1003h-10v1003h10zM240 1351v-114h-10v114h10z" glyph-name="Idotaccent.sc" horiz-adv-x="470"/><glyph d="M240 1003v-1003h-10v1003h10z" glyph-name="dotlessi.sc" horiz-adv-x="470"/><glyph d="M240 1003v-1003h-10v1003h10zM1217 1003v-639c0 -236 -163 -369 -379 -369c-138 0 -244 54 -308 111l7 8c63 -57 166 -109 301 -109c210 0 369 128 369 359v639h10z" glyph-name="ij.sc" horiz-adv-x="1435"/><glyph d="M747 1003v-639c0 -236 -163 -369 -379 -369c-138 0 -244 54 -308 111l7 8c63 -57 166 -109 301 -109c210 0 369 128 369 359v639h10zM1032 1157h-15l-275 249l-275 -249h-15l289 262h2z" glyph-name="jcircumflex.sc" horiz-adv-x="965"/><glyph d="M240 1003v-494h179l568 494h15l-573 -499l602 -504h-16l-596 499h-179v-499h-10v1003h10zM560 -90h10l-52 -310h-10z" glyph-name="kcommaaccent.sc" horiz-adv-x="1081"/><glyph d="M240 1003v-494h179l568 494h15l-573 -499l602 -504h-16l-596 499h-179v-499h-10v1003h10z" glyph-name="kgreenlandic.sc" horiz-adv-x="1081"/><glyph d="M939 10v-10h-709v1003h10v-993h699zM166 1133h-13l251 300h13z" glyph-name="lacute.sc" horiz-adv-x="985"/><glyph d="M939 10v-10h-709v1003h10v-993h699zM609 -90h10l-52 -310h-10z" glyph-name="lcommaaccent.sc" horiz-adv-x="985"/><glyph d="M939 10v-10h-709v1003h10v-993h699zM535 615h-10l22 388h10z" glyph-name="lcaron.sc" horiz-adv-x="985"/><glyph d="M939 10v-10h-709v1003h10v-993h699zM722 533v-114h-10v114h10z" glyph-name="ldot.sc" horiz-adv-x="985"/><glyph d="M1031 10v-10h-709v430l-184 -105v11l184 106v561h10v-556l431 247v-12l-431 -247v-425h699z" glyph-name="lslash.sc" horiz-adv-x="1077"/><glyph d="M1068 1003v-1008h-8l-820 992v-987h-10v1008h5l823 -995v990h10zM580 1133h-13l251 300h13z" glyph-name="nacute.sc" horiz-adv-x="1298"/><glyph d="M1068 1003v-1008h-8l-820 992v-987h-10v1008h5l823 -995v990h10zM671 -90h10l-52 -310h-10z" glyph-name="ncommaaccent.sc" horiz-adv-x="1298"/><glyph d="M1068 1003v-1008h-8l-820 992v-987h-10v1008h5l823 -995v990h10zM359 1413h15l275 -249l275 249h15l-289 -262h-2z" glyph-name="ncaron.sc" horiz-adv-x="1298"/><glyph d="M260 1440h10l-70 -418h-10zM1385 1003v-1008h-8l-820 992v-987h-10v1008h5l823 -995v990h10z" glyph-name="napostrophe.sc" horiz-adv-x="1615"/><glyph d="M1068 1003v-1035c0 -168 -75 -259 -216 -259c-80 0 -142 29 -173 49l6 8c29 -20 89 -47 167 -47c137 0 206 85 206 249v30l-818 989v-987h-10v1008h5l823 -995v990h10z" glyph-name="eng.sc" horiz-adv-x="1298"/><glyph d="M641 1008c277 0 503 -204 503 -506c0 -303 -226 -507 -503 -507s-503 204 -503 507c0 302 226 506 503 506zM641 998c-272 0 -492 -199 -492 -496c0 -298 220 -497 492 -497s492 199 492 497c0 297 -220 496 -492 496zM368 1278v10h547v-10h-547z" glyph-name="omacron.sc" horiz-adv-x="1282"/><glyph d="M641 1008c277 0 503 -204 503 -506c0 -303 -226 -507 -503 -507s-503 204 -503 507c0 302 226 506 503 506zM641 998c-272 0 -492 -199 -492 -496c0 -298 220 -497 492 -497s492 199 492 497c0 297 -220 496 -492 496zM363 1407l10 2c34 -150 133 -231 268 -231 s233 81 268 231l10 -2c-36 -154 -139 -239 -278 -239s-243 85 -278 239z" glyph-name="obreve.sc" horiz-adv-x="1282"/><glyph d="M641 1008c277 0 503 -204 503 -506c0 -303 -226 -507 -503 -507s-503 204 -503 507c0 302 226 506 503 506zM641 998c-272 0 -492 -199 -492 -496c0 -298 220 -497 492 -497s492 199 492 497c0 297 -220 496 -492 496zM792 1133h-13l251 300h13zM452 1133h-13l251 300h13 z" glyph-name="ohungarumlaut.sc" horiz-adv-x="1282"/></font>
</defs>
</svg>
